<svg width="19" height="19" viewBox="0 0 19 19" fill="none" xmlns="http://www.w3.org/2000/svg">
<g clip-path="url(#clip0_29304_148)">
<path d="M6.60967 9.07426H5.9375C5.91509 8.51412 5.84788 7.99879 5.73585 7.46105L6.38561 7.28181C6.60967 7.21459 6.7441 6.99053 6.69929 6.76648C6.63207 6.54242 6.40802 6.40799 6.18396 6.4528L5.5342 6.63204C5.46698 6.40799 5.37736 6.16152 5.28774 5.93747C5.17571 5.6686 5.04127 5.37733 4.90684 5.13086L5.46698 4.79478C5.66863 4.68275 5.73585 4.41388 5.62382 4.21223C5.51179 4.01058 5.24292 3.94336 5.04127 4.05539L4.45873 4.39148C4.12264 3.85374 3.71934 3.36082 3.29363 2.9127L3.27123 2.8903C3.09198 2.73346 2.82311 2.73346 2.66627 2.9127C1.83726 3.78653 1.14269 4.81719 0.694575 5.95987C0.246462 7.05775 0 8.26766 0 9.52237C0 10.7771 0.246462 11.9646 0.694575 13.0849C1.16509 14.2276 1.83726 15.2582 2.66627 16.132L2.68868 16.1544C2.86792 16.3113 3.13679 16.3113 3.29363 16.132C3.74174 15.6839 4.12264 15.191 4.45873 14.6533L5.04127 14.9894C5.24292 15.1014 5.51179 15.0342 5.62382 14.8325C5.73585 14.6309 5.66863 14.362 5.46698 14.25L4.88443 13.9139C5.01887 13.645 5.1533 13.3761 5.26533 13.1073C5.35495 12.8832 5.44458 12.6592 5.51179 12.4127L6.16156 12.5919C6.38561 12.6592 6.63207 12.5247 6.67689 12.2783C6.7441 12.0542 6.60967 11.8078 6.36321 11.7629L5.71344 11.5837C5.82547 11.0684 5.89269 10.5306 5.91509 9.97049H6.58726C6.83373 9.97049 7.01297 9.76884 7.01297 9.54478C7.01297 9.32072 6.85613 9.07426 6.60967 9.07426ZM4.90684 11.3148L4.27948 11.158C4.05542 11.0908 3.80896 11.2252 3.76415 11.4717C3.69693 11.6957 3.83137 11.9422 4.07783 11.987L4.70519 12.1438C4.63797 12.3455 4.57075 12.5471 4.50354 12.7264C4.41391 12.9728 4.30189 13.1969 4.18986 13.4434L3.62972 13.1297C3.42807 13.0177 3.1592 13.0849 3.04717 13.2865C2.93514 13.4882 3.00236 13.757 3.20401 13.8691L3.76415 14.1828C3.54009 14.5188 3.29363 14.8549 3.02476 15.1686C2.39741 14.4516 1.90448 13.645 1.54599 12.7488C1.14269 11.7629 0.918632 10.6651 0.918632 9.52237C0.918632 8.37968 1.14269 7.28181 1.54599 6.29596C1.90448 5.39973 2.41981 4.59313 3.02476 3.87615C3.29363 4.18983 3.54009 4.50351 3.76415 4.862L3.20401 5.17568C3.00236 5.2877 2.93514 5.55657 3.04717 5.75822C3.1592 5.95987 3.42807 6.02709 3.62972 5.91506L4.18986 5.60138C4.30189 5.82544 4.41391 6.0719 4.50354 6.31836C4.57075 6.52002 4.66038 6.69926 4.70519 6.90091L4.07783 7.05775C3.85377 7.12497 3.71934 7.34902 3.76415 7.57308C3.83137 7.79714 4.05542 7.93157 4.27948 7.88676L4.90684 7.72992C4.99646 8.17803 5.06368 8.64855 5.08608 9.11907H4.43632C4.18986 9.11907 4.01061 9.32072 4.01061 9.54478C4.01061 9.76884 4.21226 9.97049 4.43632 9.97049H5.08608C5.06368 10.3962 4.99646 10.8667 4.90684 11.3148Z" fill="#F05F61"/>
<path d="M18.3055 5.93747C17.8349 4.79479 17.1628 3.76413 16.3338 2.8903C16.1769 2.71106 15.9081 2.71106 15.7288 2.8679L15.7064 2.8903C15.2583 3.33842 14.8774 3.83134 14.5413 4.36908L13.9588 4.03299C13.7571 3.92096 13.4882 3.98818 13.3762 4.18983C13.2642 4.39148 13.3314 4.66035 13.5331 4.77238L14.1156 5.10846C13.9812 5.37733 13.8467 5.6462 13.7347 5.91507C13.6451 6.13913 13.5555 6.36318 13.4882 6.60964L12.8385 6.4304C12.6144 6.36318 12.368 6.49762 12.3231 6.74408C12.2559 6.96813 12.3904 7.2146 12.6368 7.25941L13.2866 7.43865C13.1746 7.95398 13.1073 8.49172 13.0849 9.05186H12.4128C12.1663 9.05186 11.9871 9.25351 11.9871 9.47757C11.9871 9.70162 12.1887 9.90328 12.4128 9.90328H13.0849C13.1073 10.4634 13.1746 10.9787 13.2866 11.5165L12.6368 11.6957C12.4128 11.7629 12.2783 11.987 12.3231 12.2111C12.3904 12.4351 12.6144 12.5696 12.8385 12.5247L13.4882 12.3455C13.5555 12.5695 13.6451 12.816 13.7347 13.0401C13.8467 13.3089 13.9812 13.6002 14.1156 13.8467L13.5331 14.2052C13.3314 14.3172 13.2642 14.5861 13.3762 14.7877C13.4882 14.9894 13.7571 15.0566 13.9588 14.9445L14.5413 14.6085C14.8774 15.1462 15.2807 15.6391 15.7064 16.0872C15.8632 16.2665 16.1321 16.2665 16.3114 16.1096L16.3338 16.0872C17.1628 15.2134 17.8573 14.1828 18.3055 13.0401C18.7536 11.9422 19 10.7323 19 9.47757C19 8.22285 18.7536 7.05776 18.3055 5.93747ZM17.4989 12.7264C17.1404 13.6226 16.625 14.4292 16.0201 15.1462C15.7512 14.8325 15.5047 14.5188 15.2807 14.1604L15.8408 13.8467C16.0425 13.7346 16.1097 13.4658 15.9977 13.2641C15.8856 13.0625 15.6168 12.9953 15.4151 13.1073L14.855 13.4434C14.743 13.2193 14.6309 12.9729 14.5413 12.7264C14.4741 12.5247 14.3845 12.3455 14.3397 12.1438L14.967 11.987C15.1911 11.9198 15.3255 11.6957 15.2807 11.4717C15.2135 11.2476 14.9894 11.1132 14.7654 11.158L14.138 11.3148C14.0484 10.8667 13.9812 10.3962 13.9588 9.92568H14.6085C14.855 9.92568 15.0342 9.72403 15.0342 9.49997C15.0342 9.27592 14.8326 9.07427 14.6085 9.07427H13.9588C13.9812 8.60375 14.0484 8.13323 14.138 7.68512L14.7654 7.84196C14.9894 7.90917 15.2359 7.77474 15.2807 7.52828C15.3479 7.30422 15.2135 7.05776 14.967 7.01295L14.3397 6.85611C14.4069 6.65446 14.4741 6.4528 14.5413 6.27356C14.6309 6.0271 14.743 5.80304 14.855 5.55658L15.4151 5.89266C15.6168 6.00469 15.8856 5.93747 15.9977 5.73582C16.1097 5.53417 16.0425 5.2653 15.8408 5.15328L15.2807 4.8396C15.5047 4.50351 15.7512 4.16743 16.0201 3.85375C16.6474 4.57073 17.1404 5.37733 17.4989 6.27356C17.9022 7.25941 18.1262 8.35729 18.1262 9.49997C18.1262 10.6427 17.9022 11.7405 17.4989 12.7264Z" fill="#F05F61"/>
<path d="M4.45878 14.6085C4.18991 15.0118 3.89864 15.4151 3.58496 15.7736C5.13095 17.23 7.21468 18.1262 9.50006 18.1262C11.7854 18.1262 13.8692 17.23 15.4152 15.7736C15.1015 15.4151 14.7878 15.0118 14.5413 14.6085L13.9588 14.9446C13.7571 15.0566 13.4883 14.9894 13.3762 14.7878C13.2642 14.5861 13.3314 14.3172 13.5331 14.2052L14.1156 13.8691C13.9812 13.6003 13.8468 13.3314 13.7347 13.0625C13.6451 12.8385 13.5555 12.6144 13.4883 12.3903L12.8385 12.5696C12.6144 12.6368 12.368 12.5024 12.3232 12.2559C12.256 12.0319 12.3904 11.7854 12.6368 11.7406L13.2866 11.5613C13.1746 11.046 13.1074 10.5083 13.085 9.94813H12.4128C12.1663 9.94813 11.9871 9.74648 11.9871 9.52242C11.9871 9.27596 12.1887 9.09672 12.4128 9.09672H13.085C13.1074 8.53657 13.1746 7.99884 13.2866 7.48351L12.6368 7.30426C12.4128 7.23705 12.2784 7.01299 12.3232 6.78893C12.3904 6.56488 12.6144 6.43044 12.8385 6.47525L13.4883 6.6545C13.5555 6.43044 13.6451 6.18398 13.7347 5.98233C13.8468 5.71346 13.9812 5.42219 14.1156 5.17573L13.5331 4.79483C13.3314 4.6828 13.2642 4.41393 13.3762 4.21228C13.4883 4.01063 13.7571 3.94342 13.9588 4.05544L14.5413 4.39153C14.8102 3.98823 15.1015 3.58493 15.4152 3.22643C13.8692 1.77007 11.7854 0.87384 9.50006 0.87384C7.21468 0.87384 5.13095 1.77007 3.58496 3.22643C3.89864 3.58493 4.21232 3.98823 4.45878 4.39153L5.04133 4.05544C5.24298 3.94342 5.51185 4.01063 5.62388 4.21228C5.7359 4.41393 5.66869 4.6828 5.46704 4.79483L4.88449 5.13092C5.01892 5.39978 5.15336 5.66865 5.26539 5.93752C5.35501 6.16158 5.44463 6.38563 5.51185 6.60969L6.16161 6.43044C6.38567 6.36323 6.63213 6.49766 6.67694 6.74412C6.74416 6.96818 6.60973 7.21464 6.36326 7.25945L5.7135 7.4387C5.82553 7.95403 5.89274 8.49176 5.91515 9.05191H6.58732C6.83378 9.05191 7.01303 9.25356 7.01303 9.47761C7.01303 9.72407 6.81138 9.90332 6.58732 9.90332H5.91515C5.89274 10.4635 5.82553 11.0012 5.7135 11.5165L6.36326 11.6958C6.58732 11.763 6.72175 11.987 6.67694 12.2111C6.60973 12.4352 6.38567 12.5696 6.16161 12.5248L5.51185 12.3455C5.44463 12.5696 5.35501 12.8161 5.26539 13.0177C5.15336 13.2866 5.01892 13.5778 4.88449 13.8243L5.46704 14.2052C5.66869 14.3172 5.7359 14.5861 5.62388 14.7878C5.51185 14.9894 5.24298 15.0566 5.04133 14.9446L4.45878 14.6085Z" fill="white"/>
<path d="M3.00232 13.2641C3.11435 13.0625 3.38321 12.9953 3.58486 13.1073L4.14501 13.4434C4.25703 13.2193 4.36906 12.9729 4.45868 12.7264C4.5259 12.5248 4.61552 12.3455 4.66034 12.1439L4.03298 11.9646C3.80892 11.8974 3.67449 11.6733 3.7193 11.4493C3.78652 11.2252 4.01057 11.0908 4.23463 11.1356L4.86199 11.3149C4.95161 10.8667 5.01883 10.3962 5.04123 9.9257H4.39147C4.14501 9.9257 3.96576 9.72405 3.96576 9.49999C3.96576 9.25353 4.16741 9.07428 4.39147 9.07428H5.04123C5.01883 8.60377 4.95161 8.13325 4.86199 7.68513L4.23463 7.86438C4.01057 7.9316 3.76411 7.79716 3.7193 7.5507C3.65208 7.32664 3.78652 7.08018 4.03298 7.03537L4.66034 6.85612C4.59312 6.65447 4.5259 6.45282 4.45868 6.27358C4.36906 6.02711 4.25703 5.80306 4.14501 5.5566L3.58486 5.89268C3.38321 6.00471 3.11435 5.93749 3.00232 5.73584C2.89029 5.53419 2.95751 5.26532 3.15916 5.15329L3.7193 4.81721C3.49524 4.48112 3.24878 4.14504 2.97991 3.83136C2.35255 4.54834 1.85963 5.35494 1.50114 6.25117C1.09784 7.25943 0.873779 8.3349 0.873779 9.47759C0.873779 10.6203 1.09784 11.7182 1.50114 12.704C1.85963 13.6002 2.37496 14.4068 2.97991 15.1238C3.24878 14.8101 3.49524 14.4965 3.7193 14.138L3.15916 13.8019C2.95751 13.7347 2.89029 13.4658 3.00232 13.2641Z" fill="white"/>
<path d="M13.9138 9.92569C13.9362 10.3962 14.0034 10.8667 14.0931 11.3148L14.7204 11.1356C14.9445 11.0684 15.1909 11.2028 15.2358 11.4493C15.303 11.6733 15.1685 11.9198 14.9221 11.9646L14.2947 12.1439C14.3619 12.3455 14.4291 12.5472 14.4964 12.7264C14.586 12.9729 14.698 13.1969 14.81 13.4434L15.3702 13.1073C15.5718 12.9953 15.8407 13.0625 15.9527 13.2641C16.0648 13.4658 15.9975 13.7347 15.7959 13.8467L15.2358 14.1604C15.4598 14.4964 15.7063 14.8325 15.9751 15.1462C16.6025 14.4292 17.0954 13.6226 17.4539 12.7264C17.8572 11.7181 18.0813 10.6427 18.0813 9.49999C18.0813 8.3573 17.8572 7.25942 17.4539 6.27357C17.0954 5.37734 16.5801 4.57074 15.9751 3.85376C15.7063 4.16744 15.4598 4.48112 15.2358 4.83961L15.7959 5.15329C15.9975 5.26532 16.0648 5.53418 15.9527 5.73583C15.8407 5.93749 15.5718 6.0047 15.3702 5.89267L14.81 5.55659C14.698 5.78065 14.586 6.02711 14.4964 6.27357C14.4291 6.47522 14.3395 6.65447 14.2947 6.85612L14.9221 7.03536C15.1461 7.10258 15.2806 7.32664 15.2358 7.55069C15.1685 7.77475 14.9445 7.90918 14.7204 7.86437L14.0931 7.68513C14.0034 8.13324 13.9362 8.60376 13.9138 9.07428H14.5636C14.81 9.07428 14.9893 9.27593 14.9893 9.49999C14.9893 9.74645 14.7876 9.92569 14.5636 9.92569H13.9138Z" fill="white"/>
<path d="M9.50006 18.9776C12.1215 18.9776 14.4965 17.9245 16.1993 16.1993C17.9246 14.4741 18.9776 12.0991 18.9776 9.49999C18.9776 6.87853 17.9246 4.50353 16.1993 2.8007C14.4965 1.07547 12.1215 0.0223999 9.50006 0.0223999C6.87859 0.0223999 4.50359 1.07547 2.80076 2.8007C1.07553 4.50353 0.0224609 6.87853 0.0224609 9.49999C0.0224609 12.1215 1.07553 14.4965 2.80076 16.1993C4.526 17.9021 6.87859 18.9776 9.50006 18.9776ZM3.40572 3.40565C4.97411 1.83726 7.12506 0.873815 9.50006 0.873815C11.8751 0.873815 14.0484 1.83726 15.5944 3.40565C17.1628 4.97405 18.1262 7.12499 18.1262 9.49999C18.1262 11.875 17.1628 14.0483 15.5944 15.5943C14.026 17.1627 11.8751 18.1262 9.50006 18.1262C7.12506 18.1262 4.95171 17.1627 3.40572 15.5943C1.83732 14.0259 0.873876 11.875 0.873876 9.49999C0.873876 7.12499 1.83732 4.95165 3.40572 3.40565Z" fill="#1B1B1B"/>
</g>
<defs>
<clipPath id="clip0_29304_148">
<rect width="19" height="19" fill="white"/>
</clipPath>
</defs>
</svg>
