<svg width="19" height="19" viewBox="0 0 19 19" fill="none" xmlns="http://www.w3.org/2000/svg">
<g clip-path="url(#clip0_29305_152)">
<path d="M9.49993 18.6832C14.5717 18.6832 18.6832 14.5717 18.6832 9.49993C18.6832 4.42814 14.5717 0.31665 9.49993 0.31665C4.42814 0.31665 0.31665 4.42814 0.31665 9.49993C0.31665 14.5717 4.42814 18.6832 9.49993 18.6832Z" fill="#E8751A"/>
<path d="M9.49994 0C4.26231 0 0 4.26231 0 9.49994C0 14.7376 4.26231 18.9999 9.49994 18.9999C14.7376 18.9999 18.9999 14.7376 18.9999 9.49994C18.9999 4.26231 14.7376 0 9.49994 0ZM16.1436 3.63531C15.9377 4.30031 15.6337 4.9178 15.2316 5.47197C14.8009 6.07046 14.2689 6.58029 13.6514 6.99196C13.1859 7.29596 12.6951 7.52712 12.1884 7.67912C11.8369 7.78679 11.4728 7.85645 11.1054 7.89129C10.9503 5.41813 10.4341 2.96082 9.57594 0.63333C12.1884 0.655496 14.5317 1.81132 16.1436 3.63531ZM10.4721 7.91345C9.63611 7.89445 8.80645 7.68229 8.07178 7.29912C6.24146 6.26363 4.67397 4.76264 3.52448 2.95448C4.9653 1.63716 6.83996 0.791662 8.90778 0.655496C9.78494 2.97665 10.3138 5.43397 10.4721 7.91345ZM3.06531 3.41048C4.26547 5.25347 5.8773 6.78613 7.77095 7.85645C8.61328 8.29662 9.55694 8.53412 10.5038 8.54678C10.5386 9.47144 10.5228 10.3961 10.4563 11.3144C7.08379 11.4063 3.78414 10.8299 0.636496 9.60128C0.636496 9.56644 0.636496 9.53161 0.636496 9.49678C0.636496 7.14079 1.56432 4.99697 3.06848 3.40731L3.06531 3.41048ZM0.671329 10.2916C3.60048 11.3968 6.65313 11.9636 9.77227 11.9636C9.98127 11.9636 10.1903 11.9573 10.3993 11.9509C10.3138 12.8344 10.1808 13.7084 10.0034 14.5729C9.41128 14.5729 8.79695 14.6521 8.21428 14.8294C7.65062 14.9972 7.09962 15.2537 6.58346 15.5957C5.95963 16.0106 5.41813 16.5236 4.9653 17.1157C2.58715 15.6939 0.930994 13.1923 0.671329 10.2948V10.2916ZM8.90778 18.3444C7.69812 18.2652 6.55496 17.9422 5.5258 17.4229C5.9248 16.9226 6.39346 16.4824 6.93179 16.1246C7.39729 15.8206 7.88812 15.5894 8.39478 15.4374C8.87611 15.2917 9.37011 15.2157 9.86727 15.2062C9.61711 16.2734 9.29728 17.3216 8.90778 18.3476V18.3444ZM10.5101 15.2347C11.2099 15.3044 11.8876 15.4944 12.5114 15.8174C13.1131 16.1594 13.6894 16.5552 14.2309 16.9922C12.8819 17.8472 11.2859 18.3476 9.57594 18.3634C9.95277 17.3406 10.2694 16.2956 10.5101 15.2316V15.2347ZM14.7756 16.6217C14.1644 16.1119 13.5089 15.6559 12.8123 15.2601C12.1283 14.9054 11.3999 14.6932 10.6431 14.6109C10.8236 13.7274 10.9534 12.8313 11.0389 11.9288C13.5216 11.8116 15.9631 11.3398 18.3064 10.5259C18.0182 13.0181 16.6946 15.1967 14.7756 16.6217ZM18.3571 9.83877C16.0169 10.6779 13.5786 11.1656 11.0928 11.2923C11.1593 10.3739 11.1719 9.44928 11.1371 8.52462C11.5551 8.48662 11.9699 8.40745 12.3689 8.28712C12.9326 8.11928 13.4836 7.86279 13.9997 7.52079C14.6806 7.06796 15.2664 6.50113 15.7414 5.84563C16.1024 5.3453 16.3969 4.80064 16.6154 4.21797C17.7142 5.69363 18.3634 7.52079 18.3634 9.49994C18.3634 9.61394 18.3602 9.72477 18.3539 9.83877H18.3571Z" fill="black"/>
</g>
<defs>
<clipPath id="clip0_29305_152">
<rect width="19" height="19" fill="white"/>
</clipPath>
</defs>
</svg>
