<svg width="19" height="19" viewBox="0 0 19 19" fill="none" xmlns="http://www.w3.org/2000/svg">
<g clip-path="url(#clip0_27890_53)">
<path d="M9.4121 11.1399C9.38472 11.2358 9.35735 11.3281 9.32997 11.4205C8.99963 12.5255 8.56301 13.5958 8.02622 14.6166C7.53347 14.7193 4.04312 15.4139 3.23897 14.4763C3.19449 14.4215 2.92074 14.093 2.6025 13.6482C2.31164 13.241 2.08579 12.892 1.93865 12.649C0.316662 10.0004 0.142145 7.86859 0.179786 6.69145C0.200318 6.00023 0.244802 4.15582 1.0729 3.95393C1.3262 3.9048 1.58871 3.95242 1.80862 4.08738C1.93716 4.15368 2.05868 4.23279 2.17134 4.32349L8.17337 4.40904L10.0178 4.43642C10.0486 4.76492 10.0725 5.1208 10.0828 5.50405C10.155 7.40618 9.92869 9.30788 9.4121 11.1399Z" fill="#D3394C"/>
<path d="M7.97147 13.3197C7.90646 13.4668 7.83802 13.614 7.76958 13.7611C7.63271 14.0485 7.48898 14.336 7.34184 14.6166C6.84909 14.7192 4.04312 15.4139 3.23897 14.4763C3.19449 14.4215 2.92074 14.093 2.6025 13.6482C2.58538 13.6262 2.56939 13.6033 2.55459 13.5797C2.45536 13.4429 2.36639 13.3128 2.28768 13.1931C2.14396 12.9809 2.02762 12.7961 1.93865 12.649C0.316662 10.0004 0.142145 7.86857 0.179786 6.69143C0.200318 6.00021 0.244802 4.1558 1.0729 3.9539C1.15161 3.93337 1.56908 3.8444 2.17134 4.32347L9.67558 4.43639C9.9596 7.50927 9.23074 10.5377 7.97147 13.3197Z" fill="#F45669"/>
<path d="M10.0828 5.50404C9.69396 6.54479 8.93824 7.40759 7.9578 7.93017C7.87568 7.97466 7.79013 8.01914 7.70116 8.06021C5.57273 9.04914 3.73517 8.51874 2.56829 6.4348C2.16689 5.70827 1.90898 4.91132 1.80863 4.08737C1.75889 3.72891 1.78562 3.36397 1.88706 3.01658C1.98851 2.66919 2.16237 2.34723 2.3972 2.07187C3.52643 0.833134 8.57375 1.0932 9.86723 2.5304C9.94126 2.61084 10.0045 2.70056 10.0554 2.79731C10.244 3.22284 10.3438 3.68241 10.3485 4.14785C10.3532 4.61329 10.2628 5.07478 10.0828 5.50404Z" fill="#D3394C"/>
<path d="M8.97124 2.74219C8.14741 1.13461 3.50153 0.777363 2.36707 2.04145C1.02956 3.53177 2.4474 5.43752 2.52913 5.58638C3.63222 7.59549 5.35206 8.05964 7.3911 7.15275C9.09446 6.39516 9.69825 4.16082 8.97124 2.74219Z" fill="#F45669"/>
<path d="M8.68324 13.7645C8.694 14.9469 8.64374 16.129 8.53268 17.3062C8.52909 17.3402 8.51546 17.3724 8.49351 17.3986C8.47157 17.4248 8.44232 17.4439 8.40949 17.4534C6.64697 17.9561 4.78996 18.0312 2.99261 17.6724C2.85451 17.6438 2.72842 17.5738 2.63119 17.4717C2.53396 17.3696 2.47023 17.2402 2.44852 17.1009L2.4451 17.077C2.28291 16.0077 2.25991 14.9219 2.37666 13.8467C2.3804 13.7984 2.39447 13.7514 2.41792 13.709C2.44136 13.6666 2.47364 13.6297 2.51256 13.6008C2.55149 13.572 2.59616 13.5518 2.64355 13.5417C2.69095 13.5315 2.73997 13.5317 2.78729 13.5421C4.38385 13.8938 6.02992 13.9609 7.64982 13.7406C7.64982 13.7406 8.05772 13.6826 8.47793 13.6003C8.50252 13.5952 8.52794 13.5955 8.55237 13.6014C8.57681 13.6072 8.59965 13.6184 8.61927 13.6341C8.63888 13.6498 8.65479 13.6696 8.66585 13.6921C8.67691 13.7147 8.68285 13.7394 8.68324 13.7645Z" fill="#494949"/>
<path d="M8.68327 13.4052V13.8022C8.68214 13.7762 8.67538 13.7508 8.66346 13.7277C8.65155 13.7046 8.63475 13.6844 8.61425 13.6685C8.59374 13.6525 8.57001 13.6412 8.54471 13.6353C8.5194 13.6295 8.49312 13.6292 8.46769 13.6345C8.20078 13.6892 7.93387 13.7337 7.76962 13.7611C7.66696 13.7782 7.60195 13.785 7.60195 13.785C5.92093 14.0223 4.21082 13.9528 2.55463 13.5797C2.45539 13.4428 2.36642 13.3128 2.28772 13.193C2.35952 13.1564 2.44207 13.1467 2.52041 13.1657C4.18708 13.5457 5.90907 13.6188 7.60195 13.3812C7.60195 13.3812 7.75251 13.3573 7.97151 13.3197C8.11523 13.2957 8.28975 13.2649 8.46769 13.2307C8.4937 13.225 8.52066 13.2253 8.54656 13.2314C8.57247 13.2376 8.59666 13.2495 8.61735 13.2662C8.63805 13.283 8.65471 13.3042 8.66612 13.3282C8.67753 13.3523 8.68339 13.3786 8.68327 13.4052Z" fill="#D3394C"/>
<path d="M7.9103 16.868C7.90398 16.9006 7.8879 16.9305 7.86419 16.9537C7.84048 16.9769 7.81026 16.9924 7.77755 16.998C6.5191 17.3439 5.20693 17.4506 3.90914 17.3126C3.65099 17.2853 3.40023 17.2491 3.16052 17.2097C3.11996 17.2037 3.08309 17.1976 3.0462 17.1916C2.90884 17.1766 2.77926 17.1203 2.67457 17.0301C2.56988 16.94 2.49502 16.8202 2.45986 16.6865L2.45617 16.6654C2.28085 15.7236 2.25595 14.7599 2.38241 13.8104C2.39297 13.7632 2.41293 13.7186 2.44112 13.6793C2.4693 13.64 2.50512 13.6068 2.54643 13.5817C2.58775 13.5565 2.63371 13.54 2.68156 13.533C2.72942 13.5261 2.77818 13.5288 2.82494 13.5412C2.89501 13.5533 2.96508 13.5654 3.03145 13.5774C3.27851 13.6228 3.52193 13.6591 3.7653 13.6893C5.19224 13.8721 6.63607 13.8813 8.0652 13.7166C8.08374 14.7693 8.03199 15.8221 7.9103 16.868Z" fill="#727272"/>
<path d="M3.54744 17.7344C3.30791 17.7036 3.07522 17.6625 2.85279 17.618C2.7912 16.9781 2.75356 16.3348 2.7296 15.6949C2.70565 14.9729 2.70907 14.2372 2.73302 13.5083C2.96229 13.5596 3.18814 13.6007 3.41398 13.6349C3.39345 14.3159 3.39345 15.0003 3.41398 15.6744C3.43451 16.3588 3.48242 17.05 3.54744 17.7344Z" fill="#BCBBBB"/>
<path d="M3.50589 17.262C3.38954 17.2448 3.2732 17.2277 3.16028 17.2106C3.11921 17.2038 3.08157 17.1969 3.04735 17.1901C2.96381 17.1769 2.88293 17.1503 2.80782 17.1114C2.77018 16.6392 2.74623 16.1669 2.72912 15.6947C2.70516 14.983 2.70858 14.2541 2.73252 13.5355V13.5081C2.96179 13.5594 3.18763 13.6005 3.4135 13.6347V13.6416C3.39297 14.3191 3.39297 15.0035 3.4135 15.6742C3.43061 16.2012 3.4614 16.7316 3.50589 17.262Z" fill="#CAD3DD"/>
<path d="M17.416 12.957C17.3065 13.1486 17.197 13.3402 17.0841 13.5353H11.5817C11.4585 13.3881 11.3079 13.2034 11.1402 12.9809C9.92866 11.3922 8.98691 9.62375 8.67304 7.65986C8.58065 7.07814 8.26926 5.1516 9.12816 4.12503C9.25353 3.94522 9.4163 3.79464 9.6053 3.6836C9.7943 3.57256 10.0051 3.50369 10.2232 3.48171C10.2676 3.26013 10.34 3.0451 10.4387 2.84181C11.4756 0.73734 15.7667 0.542292 17.6282 2.15401C19.8827 4.1082 18.4495 11.1855 17.416 12.957Z" fill="#D3394C"/>
<path d="M9.83639 5.28529C9.90859 7.18741 9.68229 9.08911 9.1657 10.9212C9.13832 11.017 9.11095 11.1094 9.08357 11.2018C8.42231 10.1291 7.95764 8.94719 7.71139 7.71142C7.69428 7.62245 7.67717 7.53348 7.66348 7.44109C7.57793 6.91069 7.31445 5.25449 7.92697 4.19027C7.98283 4.08963 8.04814 3.99453 8.12202 3.90626C8.24639 3.72624 8.40845 3.57546 8.59695 3.46436C8.78545 3.35327 8.99587 3.28454 9.21361 3.26294C9.25921 3.04122 9.3328 2.8262 9.43261 2.62304C9.48669 2.51425 9.54964 2.4101 9.62081 2.31165C9.69484 2.39209 9.75811 2.48181 9.80902 2.57855C9.99763 3.00409 10.0973 3.46366 10.102 3.92909C10.1068 4.39453 10.0164 4.85602 9.83639 5.28529Z" fill="#D3394C"/>
<path d="M10.2223 3.48286C10.2672 3.2602 10.3405 3.0442 10.4404 2.84015C11.4748 0.735889 15.0832 0.542089 16.9433 2.15452C19.2803 4.18041 16.5808 13.2199 16.4002 13.5336H11.5803C11.2445 13.1326 10.9306 12.7138 10.64 12.2789C9.64924 10.9043 8.9771 9.32619 8.67239 7.65933C8.57925 7.07877 8.27036 5.15332 9.12864 4.12337C9.25377 3.94387 9.41635 3.79365 9.60516 3.68307C9.79398 3.5725 10.0045 3.50419 10.2223 3.48286Z" fill="#F45669"/>
<path d="M17.416 12.7981C17.3065 12.9897 17.197 13.1814 17.0841 13.3764H11.5817C11.4585 13.2293 11.3079 13.0445 11.1403 12.822C13.2294 12.9849 15.3283 12.9769 17.416 12.7981Z" fill="#D3394C"/>
<path d="M16.6495 13.3505C16.694 13.3471 16.7419 13.3436 16.7864 13.3402C16.8549 13.5661 16.9164 13.7919 16.9644 14.0212C16.9096 13.8295 16.8514 13.6619 16.7967 13.5181C16.769 13.4466 16.7169 13.3872 16.6495 13.3505Z" fill="#BCBBBB"/>
<path d="M17.132 15.7321C17.1235 16.3075 17.0512 16.8802 16.9164 17.4397C16.6837 17.491 16.4339 17.5355 16.1738 17.5731C16.1875 17.532 16.1978 17.4876 16.208 17.4465C16.3244 17.4225 16.4442 17.3952 16.5639 17.3678C16.6154 17.3558 16.6631 17.3314 16.7031 17.2969C16.743 17.2623 16.7739 17.2185 16.7932 17.1693C16.9702 16.7304 17.0832 16.2683 17.1285 15.7971C17.1314 15.7756 17.1325 15.7538 17.132 15.7321Z" fill="#BCBBBB"/>
<path d="M17.4776 17.1694C17.4583 17.2186 17.4274 17.2623 17.3874 17.2969C17.3475 17.3315 17.2997 17.3558 17.2483 17.3678C15.3317 17.8127 13.3433 17.8523 11.4105 17.4842C11.3766 17.4778 11.3453 17.4614 11.3209 17.4369C11.2965 17.4125 11.28 17.3813 11.2736 17.3473C11.0939 16.0633 11.0778 14.7617 11.2257 13.4737C11.2274 13.4522 11.2333 13.4313 11.2432 13.4121C11.2531 13.393 11.2668 13.376 11.2834 13.3623C11.3 13.3485 11.3192 13.3383 11.3399 13.3322C11.3606 13.326 11.3823 13.3241 11.4037 13.3266C13.3132 13.4919 15.2337 13.4862 17.1422 13.3095C17.2138 13.3022 17.2857 13.3188 17.3469 13.3565C17.4082 13.3942 17.4553 13.451 17.481 13.5182C17.9513 14.69 17.9501 15.9984 17.4776 17.1694Z" fill="#494949"/>
<path d="M17.1285 15.5236C17.0826 15.945 16.9693 16.3563 16.7932 16.7418C16.7743 16.7831 16.7463 16.8196 16.7114 16.8486C16.6764 16.8777 16.6354 16.8985 16.5913 16.9095C16.5845 16.9163 16.5742 16.9163 16.5639 16.9197C15.6762 17.1191 14.7704 17.2269 13.8606 17.2414C13.1707 17.2478 12.4816 17.1951 11.8006 17.084L11.739 17.0737C11.6295 17.06 11.52 17.0395 11.4105 17.0224C11.3781 17.0177 11.3477 17.0036 11.3234 16.9816C11.299 16.9597 11.2817 16.931 11.2737 16.8992C11.0939 15.7599 11.0777 14.6007 11.2258 13.4568C11.2288 13.4365 11.2358 13.417 11.2464 13.3995C11.2571 13.382 11.271 13.3667 11.2876 13.3546C11.3041 13.3425 11.3229 13.3338 11.3428 13.3291C11.3628 13.3243 11.3835 13.3235 11.4037 13.3267C11.52 13.337 11.6295 13.3438 11.739 13.3507C12.574 13.4123 13.2892 13.4431 14.0146 13.4328C14.2507 13.4362 14.4937 13.4328 14.7401 13.4294C15.4073 13.4191 16.0438 13.3918 16.6495 13.3473C16.6616 13.3528 16.6731 13.3597 16.6837 13.3678C16.7333 13.3991 16.7726 13.4443 16.7966 13.4978C17.0808 14.133 17.1951 14.831 17.1285 15.5236Z" fill="#727272"/>
<path d="M17.132 15.7321C17.1354 15.561 17.1354 15.3933 17.1252 15.2257C17.1054 14.8262 17.0528 14.4291 16.9678 14.0383C17.1227 14.5887 17.1783 15.1622 17.132 15.7321Z" fill="#727272"/>
<path d="M17.1799 17.4397C16.9472 17.491 16.6974 17.5355 16.4374 17.5731C16.6533 16.8232 16.7435 16.0427 16.7043 15.2633C16.6721 14.6257 16.5512 13.9957 16.345 13.3915C16.5366 13.3813 16.7248 13.3676 16.913 13.3505C16.9575 13.3471 17.0054 13.3436 17.0499 13.3402C17.241 13.9521 17.3548 14.5855 17.3887 15.2257C17.4251 15.9699 17.3548 16.7154 17.1799 17.4397Z" fill="#BCBBBB"/>
<path d="M17.1286 15.5236C17.0826 15.945 16.9694 16.3563 16.7932 16.7418C16.7743 16.7831 16.7463 16.8196 16.7114 16.8486C16.6765 16.8777 16.6354 16.8985 16.5913 16.9095C16.815 15.7353 16.7301 14.5233 16.345 13.3918C16.4579 13.3849 16.5708 13.3781 16.6837 13.3678C16.7333 13.3991 16.7726 13.4443 16.7967 13.4978C17.0808 14.133 17.1952 14.831 17.1286 15.5236Z" fill="#CAD3DD"/>
<path d="M17.4802 13.2447C18.7117 11.103 20.0752 3.97243 17.6843 1.89985C16.5498 0.917054 14.5551 0.505689 12.7242 0.877623C11.7588 1.02423 10.8786 1.51387 10.2449 2.25679C9.45348 1.43205 7.80818 1.13121 7.06904 1.03502C5.33971 0.809452 3.11446 0.96651 2.31412 1.84337C1.87816 2.33083 1.63277 2.95926 1.62306 3.61317C1.46928 3.58564 1.31152 3.58938 1.15921 3.62417C0.0912034 3.88783 0.0334039 5.7515 0.0056556 6.64743L0.00431762 6.68319C-0.057838 8.70191 0.551354 10.7708 1.81485 12.8323C1.9636 13.0748 2.12248 13.3151 2.28528 13.5522C2.23981 13.6359 2.21241 13.7282 2.20482 13.8231C2.08098 14.934 2.1057 16.0564 2.27834 17.1608C2.31225 17.3682 2.40826 17.5606 2.55371 17.7123C2.69916 17.8641 2.88722 17.9682 3.09305 18.0109C4.98402 18.391 6.9393 18.3022 8.78803 17.7523C8.85297 17.7328 8.91065 17.6944 8.95376 17.6421C8.99687 17.5897 9.02347 17.5258 9.03019 17.4583C9.07472 17.0031 9.31946 13.7163 9.14537 13.4002C9.36899 12.8706 9.5698 12.331 9.74276 11.7855C10.0693 12.3201 10.4261 12.8355 10.8115 13.3294C10.1486 13.8988 10.6773 17.811 10.6293 17.4171C10.6461 17.5626 10.709 17.699 10.809 17.8062C10.9089 17.9134 11.0405 17.9857 11.1846 18.0126C13.2202 18.3719 15.3078 18.3095 17.3183 17.8292C17.3686 17.8173 17.4156 17.7941 17.4557 17.7613C17.4957 17.7286 17.5278 17.6872 17.5496 17.6403C18.4737 15.599 17.7455 13.5869 17.4802 13.2447ZM2.81937 2.30486C3.34669 1.72741 5.13651 1.47277 6.98047 1.71371C8.4196 1.90126 9.54122 2.36277 9.88272 2.89979C9.84402 2.99293 9.81 3.08795 9.7808 3.18449C8.77324 3.40893 7.69366 4.61784 8.1386 7.53732C7.15824 8.11282 6.01546 8.41281 4.94671 8.03891C2.9043 7.32415 1.53808 3.7082 2.81937 2.30486ZM2.95003 17.0261C2.79165 15.9848 2.77042 14.9273 2.88688 13.8805C2.97065 13.899 3.05546 13.9121 3.13955 13.929C3.10829 15.0674 3.14065 16.2066 3.2365 17.3413L3.22806 17.3399C3.15455 17.3236 3.08808 17.2844 3.03814 17.2281C2.9882 17.1717 2.95737 17.101 2.95003 17.0261ZM8.37096 17.1598C6.92665 17.5581 5.41644 17.6587 3.93205 17.4555C3.83076 16.3234 3.79394 15.1864 3.82178 14.0501C5.37738 14.2899 6.96225 14.2661 8.50996 13.9798C8.51255 15.0378 8.46614 16.1052 8.37096 17.1598ZM9.25082 11.0491C9.03344 11.8132 8.7655 12.562 8.44877 13.2906C5.30527 13.8828 3.21341 13.1905 2.87113 13.1965C2.70707 12.9588 2.5473 12.7178 2.39832 12.4747C1.20566 10.5288 0.630558 8.58762 0.688364 6.70457L0.689702 6.66847C0.74719 4.81649 1.06598 4.352 1.32396 4.28817C1.43661 4.27203 1.55152 4.28548 1.6574 4.32718C1.81467 5.51296 2.67357 7.9685 4.7208 8.68518C5.93443 9.10929 7.13254 8.84176 8.26891 8.24713C8.48081 9.19418 8.81885 10.1085 9.27397 10.9656L9.25082 11.0491ZM8.84247 7.60916C8.64069 6.35273 8.55185 4.59541 9.65386 3.95843C9.6405 4.59244 9.7514 5.22293 9.98031 5.81433C10.0123 5.89879 10.0763 5.96719 10.1585 6.00461C10.2407 6.04203 10.3344 6.04543 10.4191 6.01407C10.5038 5.9827 10.5726 5.91913 10.6106 5.8372C10.6486 5.75527 10.6527 5.66164 10.6219 5.57673C9.86313 3.52732 10.5714 2.01253 12.8598 1.5483C14.4709 1.22148 16.2694 1.57938 17.2358 2.41715C19.2257 4.14185 18.1518 10.709 16.7475 13.1457C15.0255 13.3021 13.2935 13.3153 11.5693 13.1852C10.2491 11.5701 9.1745 9.67759 8.84247 7.60916ZM11.3093 17.3402C11.1426 16.1838 11.1251 15.0107 11.2572 13.8498C12.8545 13.9802 14.4593 13.9921 16.0584 13.8856C16.3586 15.0306 16.3574 16.2338 16.0549 17.3782C14.482 17.6307 12.878 17.6179 11.3093 17.3402ZM16.9932 17.2022C16.9267 17.2173 16.8593 17.2286 16.7925 17.2427C17.0383 16.1184 17.0247 14.9529 16.7528 13.8346C16.8338 13.8277 16.9154 13.8242 16.9962 13.8167C17.4392 14.902 17.4381 16.1178 16.9932 17.2022Z" fill="black"/>
</g>
<defs>
<clipPath id="clip0_27890_53">
<rect width="19" height="19" fill="white"/>
</clipPath>
</defs>
</svg>
