<svg width="30" height="30" viewBox="0 0 30 30" fill="none" xmlns="http://www.w3.org/2000/svg">
<g clip-path="url(#clip0_380_33245)">
<path d="M15.0025 30.0049C23.2881 30.0049 30.0049 23.2881 30.0049 15.0025C30.0049 6.71683 23.2881 0 15.0025 0C6.71683 0 0 6.71683 0 15.0025C0 23.2881 6.71683 30.0049 15.0025 30.0049Z" fill="url(#paint0_radial_380_33245)"/>
<mask id="mask0_380_33245" style="mask-type:luminance" maskUnits="userSpaceOnUse" x="0" y="0" width="31" height="31">
<path d="M15.0025 30.0049C23.2881 30.0049 30.0049 23.2881 30.0049 15.0025C30.0049 6.71683 23.2881 0 15.0025 0C6.71683 0 0 6.71683 0 15.0025C0 23.2881 6.71683 30.0049 15.0025 30.0049Z" fill="white"/>
</mask>
<g mask="url(#mask0_380_33245)">
<g opacity="0.2">
<path d="M6.83755 -3.13302C6.99008 -3.13302 7.1451 -3.09301 7.28513 -3.008L8.3278 -2.37789C9.11543 -1.90282 10.0156 -1.65527 10.9257 -1.65527C11.2033 -1.65527 11.4808 -1.67778 11.7559 -1.72529L14.8789 -2.24787C14.9314 -2.25787 14.9839 -2.26037 15.0364 -2.26037C15.519 -2.26037 15.939 -1.88781 15.9791 -1.39023L16.0841 -0.10502C16.1316 0.492579 15.719 1.02767 15.1289 1.13018L14.7939 1.19019C14.0412 1.32271 13.4061 1.8253 13.1036 2.52541C12.9761 2.81796 13.0411 3.16052 13.2661 3.38805L15.2189 5.36338C15.3039 5.45089 15.4215 5.4984 15.5415 5.4984C15.564 5.4984 15.589 5.4959 15.6115 5.4934C15.8165 5.46089 15.9716 5.29587 15.9916 5.08833L16.2091 2.84547C16.2566 2.35538 16.6692 1.98032 17.1617 1.98032H17.2318C17.6018 1.98032 17.9394 2.19536 18.0969 2.53041L18.537 3.47057C18.612 3.63059 18.7695 3.72061 18.932 3.72061C19.0121 3.72061 19.0946 3.69811 19.1671 3.6506C19.2396 3.60309 19.3221 3.58059 19.4021 3.58059C19.5696 3.58059 19.7297 3.6756 19.8022 3.84313L20.9424 6.47356C21.1874 7.03865 20.9249 7.69376 20.3573 7.9313L19.4346 8.31886C17.8669 8.97647 16.4841 10.0016 15.399 11.3119L15.3765 11.3394C15.3214 11.4069 15.2939 11.4919 15.2989 11.5769L15.3615 12.5521C15.374 12.7296 15.2439 12.8871 15.0664 12.9096C15.0339 12.9146 15.0039 12.9171 14.9714 12.9171C14.6638 12.9171 14.3863 12.7171 14.2938 12.417L14.2913 12.4045C14.1963 12.097 13.9137 11.892 13.5987 11.892C13.5637 11.892 13.5262 11.8945 13.4886 11.8995L12.8635 11.9945C12.3935 12.067 11.9934 12.377 11.8134 12.8171L11.6308 13.2597C11.5658 13.4147 11.5783 13.5897 11.6608 13.7348L11.6808 13.7673C11.7834 13.9448 11.9659 14.0398 12.1509 14.0398C12.2784 14.0398 12.4085 13.9948 12.5135 13.8998C12.6135 13.8098 12.7435 13.7598 12.8785 13.7598C12.8885 13.7598 12.8985 13.7598 12.9086 13.7598L13.2936 13.7823C13.5187 13.7948 13.6687 14.0198 13.5937 14.2323L13.5387 14.3899C13.4311 14.6974 13.6587 15.02 13.9862 15.02C14.2288 15.02 14.4313 15.2025 14.4563 15.4425L14.5188 16.0151C14.5438 16.2327 14.7138 16.4052 14.9314 16.4327L14.9839 16.4402C15.0039 16.4427 15.0239 16.4427 15.0439 16.4427C15.2089 16.4427 15.3615 16.3577 15.449 16.2152C15.689 15.8176 16.1191 15.5801 16.5767 15.5801C16.6342 15.5801 16.6942 15.5851 16.7517 15.5926L18.0194 15.7626C18.7145 15.8551 19.3771 16.1226 19.9422 16.5377L20.8449 17.2028C21.1174 17.4029 21.3174 17.6854 21.4199 18.0055C21.5525 18.4255 21.8525 18.7706 22.2476 18.9606L24.0129 19.8108C24.5305 20.0608 24.7305 20.6909 24.4529 21.1935L23.2402 23.3938C23.1027 23.6439 22.8627 23.8239 22.5851 23.8864L21.8725 24.0464C21.44 24.144 21.1199 24.514 21.0849 24.9566L21.0774 25.0666C21.0424 25.5142 20.8549 25.9343 20.5448 26.2593L16.8117 30.175C16.3691 30.6375 16.3241 31.3526 16.7017 31.8677L16.9667 32.2303C17.1643 32.5003 16.9642 32.8654 16.6492 32.8654C16.6292 32.8654 16.6067 32.8629 16.5842 32.8604L15.894 32.7554C15.449 32.6879 15.0789 32.3753 14.9339 31.9502L14.6388 31.0776C14.4888 30.6375 14.4788 30.1625 14.6063 29.7149L16.1641 24.224C16.3366 23.6214 16.1591 22.9713 15.709 22.5362L15.384 22.2236C15.0064 21.8611 14.7464 21.3935 14.6388 20.8834L14.3063 19.3282C14.1988 18.8256 14.2938 18.303 14.5688 17.8679L14.6263 17.7779C14.8014 17.5004 14.6513 17.1328 14.3313 17.0603L14.2188 17.0353C14.1087 17.0103 14.0112 16.9478 13.9437 16.8553L13.0461 15.6501C13.0061 15.5976 12.9536 15.5576 12.8935 15.535L10.6982 14.7124C10.1381 14.5024 9.66802 14.1073 9.36547 13.5897L7.24012 9.95413C6.95007 9.45905 6.78504 8.90146 6.75504 8.32887L6.70253 7.26369C6.66753 6.54607 6.43999 5.84846 6.04742 5.24586L5.50483 4.41572C5.01975 3.6706 4.36965 3.048 3.60452 2.59292L3.44199 2.50041C3.16695 2.33788 2.8594 2.25537 2.55435 2.25537C2.49684 2.25537 2.44183 2.25787 2.38432 2.26287C2.2343 2.27787 2.08427 2.28537 1.93425 2.28537C1.40166 2.28537 0.871572 2.18786 0.383992 1.96282L-1.42881 1.13018C-1.56883 1.06517 -1.62884 0.880142 -1.53132 0.760122L-1.52882 0.757622L-1.06875 0.210032C-0.901219 0.00999928 -1.01124 -0.295051 -1.26628 -0.342559C-1.47381 -0.380065 -1.59633 -0.5976 -1.52132 -0.795133L-1.35129 -1.24271C-1.30379 -1.36773 -1.18627 -1.45274 -1.05374 -1.46024C-0.7837 -1.47775 4.34464 -1.61777 5.73737 -2.78046C5.9374 -2.94549 6.22995 -2.93298 6.46249 -3.0455C6.58001 -3.10301 6.70753 -3.13302 6.83755 -3.13302ZM6.83755 -3.88314C6.59501 -3.88314 6.35497 -3.82813 6.13744 -3.72311C6.11243 -3.71311 6.03742 -3.69311 5.98241 -3.68061C5.78238 -3.6331 5.50983 -3.56809 5.25479 -3.35805C4.7197 -2.91048 2.80189 -2.37539 -0.973731 -2.21537C-1.03874 -2.21287 -1.08125 -2.21037 -1.10125 -2.20787C-1.52632 -2.18036 -1.89888 -1.90782 -2.05141 -1.51025L-2.22144 -1.06268C-2.33645 -0.760127 -2.31395 -0.425072 -2.15392 -0.142526C-2.10142 -0.0475101 -2.03641 0.0350034 -1.96139 0.110016L-2.10392 0.277543C-2.10392 0.280044 -2.10892 0.285045 -2.11142 0.287545C-2.30145 0.520083 -2.37146 0.825133 -2.30395 1.12268C-2.23394 1.42523 -2.0239 1.68527 -1.74136 1.8128L0.0714407 2.64543C0.634033 2.90297 1.26164 3.0355 1.93425 3.0355C2.10678 3.0355 2.2818 3.02799 2.45933 3.01049C2.49184 3.00799 2.52434 3.00549 2.55685 3.00549C2.73438 3.00549 2.90941 3.053 3.06193 3.14551L3.22196 3.24053C3.88457 3.63309 4.45466 4.18318 4.87723 4.82829L5.41982 5.65843C5.73987 6.14851 5.9249 6.7186 5.95491 7.3037L6.00742 8.36887C6.04242 9.05899 6.24496 9.7391 6.59251 10.3342L8.71786 13.9698C9.10543 14.6324 9.71553 15.145 10.4331 15.415L12.516 16.1952L13.3411 17.3028C13.4636 17.4679 13.6262 17.5979 13.8087 17.6829C13.5237 18.2355 13.4386 18.8656 13.5712 19.4832L13.9037 21.0385C14.0437 21.6986 14.3763 22.2962 14.8639 22.7637L15.1889 23.0763C15.4415 23.3188 15.539 23.6814 15.444 24.0189L13.8862 29.5098C13.7162 30.1049 13.7337 30.73 13.9312 31.3176L14.2263 32.1903C14.4613 32.8854 15.0564 33.3855 15.7815 33.498L16.4716 33.603C16.5316 33.613 16.5917 33.6155 16.6492 33.6155C17.0817 33.6155 17.4743 33.373 17.6718 32.9854C17.8694 32.5979 17.8319 32.1378 17.5743 31.7877L17.3093 31.4252C17.1442 31.2001 17.1668 30.8926 17.3568 30.6925L21.0899 26.7769C21.5175 26.3293 21.7775 25.7442 21.8275 25.1266L21.835 25.0166C21.845 24.9016 21.9275 24.8066 22.0401 24.7791L22.7527 24.619C23.2402 24.509 23.6578 24.194 23.9004 23.7564L25.1131 21.556C25.3431 21.136 25.3931 20.6359 25.2481 20.1783C25.1031 19.7232 24.773 19.3407 24.3404 19.1331L22.5751 18.283C22.3651 18.183 22.2076 17.998 22.1376 17.7779C21.9875 17.3003 21.695 16.8928 21.2924 16.5952L20.3898 15.9301C19.7247 15.44 18.9395 15.125 18.1219 15.015L16.8542 14.8449C16.7642 14.8324 16.6717 14.8274 16.5792 14.8274C16.0691 14.8274 15.579 15.02 15.2039 15.3525C15.1464 14.8574 14.8014 14.4624 14.3463 14.3224C14.4013 14.0423 14.3438 13.7573 14.1813 13.5147C13.9887 13.2272 13.6812 13.0521 13.3361 13.0321L12.9511 13.0096C12.9261 13.0071 12.901 13.0071 12.8785 13.0071C12.7585 13.0071 12.641 13.0246 12.5285 13.0546C12.616 12.8846 12.7835 12.7621 12.9761 12.7346L13.5812 12.6421C13.7737 13.2522 14.3313 13.6622 14.9739 13.6622C15.0389 13.6622 15.1039 13.6572 15.1664 13.6497C15.7315 13.5747 16.1466 13.0696 16.1091 12.4996L16.0566 11.6894C17.0467 10.5242 18.3119 9.59908 19.7222 9.00648L20.6448 8.61891C21.1049 8.42638 21.4625 8.06382 21.6475 7.60125C21.8325 7.13867 21.8275 6.63109 21.6275 6.17101L20.4873 3.54058C20.2998 3.10801 19.8722 2.82796 19.3996 2.82796C19.2921 2.82796 19.1871 2.84296 19.0846 2.87047L18.7745 2.20786C18.4945 1.61026 17.8894 1.2252 17.2293 1.2252H17.1592C16.2766 1.2252 15.5465 1.88781 15.4615 2.76795L15.3064 4.38072L13.8012 2.85547C13.7912 2.84546 13.7887 2.83046 13.7937 2.81796C13.9987 2.34788 14.4213 2.01283 14.9264 1.92281L15.2614 1.8628C16.2366 1.69028 16.9142 0.815132 16.8342 -0.172531L16.7267 -1.45024C16.6567 -2.32538 15.914 -3.0105 15.0364 -3.0105C14.9414 -3.0105 14.8464 -3.003 14.7539 -2.98799L11.6308 -2.46291C11.3983 -2.4229 11.1608 -2.4029 10.9232 -2.4029C10.1431 -2.4029 9.38047 -2.61543 8.71286 -3.018L7.67269 -3.6506C7.42015 -3.80063 7.1326 -3.88314 6.83755 -3.88314Z" fill="#424242"/>
<path d="M16.7892 13.3222C16.9417 13.3222 17.0917 13.3447 17.2393 13.3872C17.7868 13.5497 18.7545 13.8348 19.2196 13.9723C19.3496 14.0098 19.4071 14.1648 19.3321 14.2798L19.2171 14.4499C19.1571 14.5424 19.0546 14.5949 18.947 14.5949C18.9295 14.5949 18.912 14.5924 18.897 14.5899L16.8617 14.2673C16.7667 14.2523 16.6717 14.2448 16.5791 14.2448C16.4891 14.2448 16.3991 14.2523 16.3091 14.2648L15.939 14.3198C15.889 14.3274 15.8365 14.3324 15.7865 14.3324C15.514 14.3324 15.2514 14.2223 15.0589 14.0248L14.9764 13.9398C14.8989 13.8598 14.9364 13.7273 15.0439 13.7022C15.384 13.6172 16.0041 13.4647 16.4216 13.3647C16.5416 13.3372 16.6667 13.3222 16.7892 13.3222ZM16.7892 12.5721C16.6042 12.5721 16.4216 12.5946 16.2416 12.6371C15.824 12.7371 15.1989 12.8921 14.8589 12.9746C14.5488 13.0521 14.3013 13.2897 14.2138 13.5972C14.1262 13.9048 14.2113 14.2373 14.4338 14.4649L14.5163 14.5499C14.8464 14.8899 15.3089 15.0825 15.7815 15.0825C15.869 15.0825 15.959 15.075 16.0441 15.0625L16.4141 15.0075C16.4666 15 16.5191 14.995 16.5716 14.995C16.6267 14.995 16.6842 15 16.7392 15.0075L18.7745 15.33C18.8295 15.34 18.887 15.3425 18.942 15.3425C19.3021 15.3425 19.6372 15.1625 19.8372 14.8624L19.9522 14.6924C20.1197 14.4424 20.1572 14.1223 20.0547 13.8398C19.9522 13.5572 19.7172 13.3372 19.4296 13.2497L18.0544 12.8446L17.4493 12.6671C17.2368 12.6046 17.0142 12.5721 16.7892 12.5721Z" fill="#424242"/>
<path d="M20.3073 14.2298C20.3248 14.2298 20.3423 14.2323 20.3598 14.2348C20.8949 14.3224 22.035 14.9575 21.805 15.155C21.745 15.2075 21.67 15.2325 21.5925 15.2325C21.565 15.2325 21.535 15.23 21.5075 15.2225L19.8522 14.7799C19.8172 14.7699 19.8022 14.7299 19.8222 14.6999L20.0347 14.3749C20.0972 14.2848 20.1997 14.2298 20.3073 14.2298ZM20.3073 13.4797C19.9447 13.4797 19.6071 13.6622 19.4096 13.9648L19.1971 14.2898C19.0571 14.5049 19.0271 14.7749 19.1196 15.015C19.2121 15.255 19.4146 15.4375 19.6622 15.5025L21.3174 15.9451C21.4074 15.9701 21.5025 15.9826 21.595 15.9826C21.8525 15.9826 22.1001 15.8901 22.2951 15.7226C22.5451 15.5075 22.6451 15.1775 22.5551 14.8574C22.3451 14.1073 20.9099 13.5622 20.4848 13.4922C20.4248 13.4847 20.3673 13.4797 20.3073 13.4797Z" fill="#424242"/>
</g>
<path fill-rule="evenodd" clip-rule="evenodd" d="M20.8449 17.2028L19.9422 16.5377C19.3771 16.1226 18.717 15.8551 18.0194 15.7626L16.7517 15.5926C16.2316 15.5225 15.7215 15.7676 15.449 16.2177C15.3514 16.3777 15.1714 16.4652 14.9839 16.4427L14.9314 16.4352C14.7138 16.4077 14.5438 16.2352 14.5188 16.0176L14.4563 15.445C14.4288 15.205 14.2263 15.0225 13.9862 15.0225C13.6587 15.0225 13.4311 14.6999 13.5387 14.3924L13.5937 14.2348C13.6687 14.0223 13.5187 13.7973 13.2936 13.7848L12.9085 13.7623C12.7635 13.7548 12.621 13.8048 12.5135 13.9023C12.2584 14.1348 11.8509 14.0698 11.6808 13.7698L11.6608 13.7373C11.5783 13.5922 11.5658 13.4172 11.6308 13.2622L11.8134 12.8196C11.9959 12.3795 12.3935 12.067 12.8635 11.997L13.4886 11.902C13.8437 11.8494 14.1838 12.062 14.2888 12.4045L14.2913 12.417C14.3938 12.7496 14.7188 12.9571 15.0639 12.9121C15.2414 12.8896 15.369 12.7321 15.359 12.5546L15.2964 11.5794C15.2914 11.4919 15.3189 11.4069 15.374 11.3419L15.3965 11.3144C16.4816 10.0066 17.8644 8.97897 19.4321 8.32137L20.3548 7.9338C20.9224 7.69626 21.1849 7.04116 20.9399 6.47606L19.7997 3.84563C19.6922 3.60059 19.3896 3.50807 19.1646 3.6531C18.942 3.79562 18.647 3.71061 18.5345 3.47057L18.0944 2.53041C17.9369 2.19536 17.5993 1.98032 17.2293 1.98032H17.1592C16.6667 1.98032 16.2541 2.35538 16.2066 2.84547L15.9891 5.08833C15.9691 5.29337 15.8115 5.46089 15.609 5.4934C15.464 5.5159 15.3189 5.4684 15.2164 5.36338L13.2636 3.38805C13.0386 3.16052 12.9761 2.81796 13.1011 2.52541C13.4061 1.8253 14.0412 1.32271 14.7914 1.19019L15.1264 1.13018C15.7165 1.02517 16.1291 0.490078 16.0816 -0.105019L15.9766 -1.39023C15.9315 -1.94282 15.424 -2.34039 14.8764 -2.24787L11.7559 -1.72279C10.5707 -1.52525 9.35546 -1.75779 8.3278 -2.37789L7.28512 -3.008C7.03008 -3.16302 6.72003 -3.17052 6.46249 -3.048C6.22995 -2.93548 5.9374 -2.94799 5.73737 -2.78296C4.34214 -1.61777 -0.7837 -1.47774 -1.05374 -1.46024C-1.18627 -1.45274 -1.30379 -1.36773 -1.35129 -1.24271L-1.52132 -0.795133C-1.59633 -0.5976 -1.47381 -0.380064 -1.26628 -0.340058C-1.01124 -0.29255 -0.90122 0.0125 -1.06875 0.212533L-1.52882 0.760123L-1.53132 0.762623C-1.62884 0.882643 -1.56883 1.06767 -1.42881 1.13018L0.383992 1.96282C1.00909 2.25037 1.69921 2.32788 2.38432 2.26287C2.74688 2.22786 3.11694 2.30538 3.44199 2.49791L3.60202 2.59292C4.36715 3.048 5.01475 3.6706 5.50233 4.41572L6.04492 5.24586C6.43749 5.84846 6.66502 6.54357 6.70003 7.26369L6.75254 8.32887C6.78004 8.90146 6.94757 9.45905 7.23762 9.95413L9.36297 13.5897C9.66552 14.1048 10.1356 14.5024 10.6957 14.7124L12.891 15.535C12.9511 15.5576 13.0061 15.5976 13.0436 15.6501L13.9412 16.8553C14.0087 16.9453 14.1062 17.0103 14.2163 17.0353L14.3288 17.0603C14.6488 17.1328 14.8014 17.5004 14.6238 17.7779L14.5663 17.8679C14.2913 18.3005 14.1963 18.8256 14.3038 19.3282L14.6363 20.8834C14.7464 21.396 15.0064 21.8611 15.3815 22.2236L15.7065 22.5362C16.1591 22.9713 16.3341 23.6189 16.1616 24.224L14.6038 29.7149C14.4763 30.1625 14.4888 30.6375 14.6363 31.0776L14.9314 31.9502C15.0764 32.3778 15.4465 32.6879 15.8915 32.7554L16.5817 32.8604C16.9342 32.9154 17.1743 32.5178 16.9642 32.2303L16.6992 31.8677C16.3216 31.3502 16.3666 30.6375 16.8092 30.175L20.5423 26.2593C20.8524 25.9343 21.0399 25.5142 21.0749 25.0666L21.0824 24.9566C21.1174 24.514 21.4375 24.144 21.87 24.0464L22.5826 23.8864C22.8627 23.8239 23.1002 23.6439 23.2377 23.3938L24.4504 21.1935C24.728 20.6909 24.5255 20.0583 24.0104 19.8108L22.2451 18.9606C21.85 18.7706 21.55 18.423 21.4174 18.0055C21.3174 17.6829 21.1174 17.4029 20.8449 17.2028Z" fill="url(#paint1_radial_380_33245)"/>
<path fill-rule="evenodd" clip-rule="evenodd" d="M16.4191 13.3672C16.0016 13.4672 15.3814 13.6197 15.0414 13.7047C14.9339 13.7323 14.8964 13.8648 14.9739 13.9423L15.0564 14.0273C15.2839 14.2623 15.6115 14.3724 15.9365 14.3223L16.3066 14.2673C16.4891 14.2398 16.6767 14.2398 16.8617 14.2698L18.897 14.5924C19.022 14.6124 19.1471 14.5574 19.2196 14.4524L19.3346 14.2823C19.4096 14.1673 19.3546 14.0148 19.2221 13.9748C18.757 13.8373 17.7893 13.5522 17.2418 13.3897C16.9742 13.3097 16.6917 13.3022 16.4191 13.3672Z" fill="url(#paint2_radial_380_33245)"/>
<path fill-rule="evenodd" clip-rule="evenodd" d="M20.0372 14.3774L19.8247 14.7024C19.8047 14.7324 19.8197 14.7724 19.8547 14.7824L21.51 15.225C21.615 15.2525 21.725 15.2275 21.805 15.1575C22.0376 14.9575 20.8949 14.3249 20.3598 14.2373C20.2348 14.2148 20.1072 14.2698 20.0372 14.3774Z" fill="url(#paint3_radial_380_33245)"/>
</g>
</g>
<defs>
<radialGradient id="paint0_radial_380_33245" cx="0" cy="0" r="1" gradientUnits="userSpaceOnUse" gradientTransform="translate(1496.08) scale(3005.77)">
<stop stop-color="#42A5F5"/>
<stop offset="0.3522" stop-color="#42A5F5"/>
<stop offset="0.6798" stop-color="#2B8BE2"/>
<stop offset="1" stop-color="#1976D2"/>
</radialGradient>
<radialGradient id="paint1_radial_380_33245" cx="0" cy="0" r="1" gradientUnits="userSpaceOnUse" gradientTransform="translate(1548.71 230.531) scale(3001.42 3001.42)">
<stop stop-color="#AEEA00"/>
<stop offset="0.2373" stop-color="#ADE903"/>
<stop offset="0.3915" stop-color="#A9E40B"/>
<stop offset="0.522" stop-color="#A2DC1A"/>
<stop offset="0.6386" stop-color="#98D12F"/>
<stop offset="0.7459" stop-color="#8BC34A"/>
<stop offset="1" stop-color="#8BC34A"/>
</radialGradient>
<radialGradient id="paint2_radial_380_33245" cx="0" cy="0" r="1" gradientUnits="userSpaceOnUse" gradientTransform="translate(-26.1526 -1310.69) scale(3001.41 3001.42)">
<stop stop-color="#AEEA00"/>
<stop offset="0.2373" stop-color="#ADE903"/>
<stop offset="0.3915" stop-color="#A9E40B"/>
<stop offset="0.522" stop-color="#A2DC1A"/>
<stop offset="0.6386" stop-color="#98D12F"/>
<stop offset="0.7459" stop-color="#8BC34A"/>
<stop offset="1" stop-color="#8BC34A"/>
</radialGradient>
<radialGradient id="paint3_radial_380_33245" cx="0" cy="0" r="1" gradientUnits="userSpaceOnUse" gradientTransform="translate(-285.374 -1400.67) scale(3001.42 3001.42)">
<stop stop-color="#AEEA00"/>
<stop offset="0.2373" stop-color="#ADE903"/>
<stop offset="0.3915" stop-color="#A9E40B"/>
<stop offset="0.522" stop-color="#A2DC1A"/>
<stop offset="0.6386" stop-color="#98D12F"/>
<stop offset="0.7459" stop-color="#8BC34A"/>
<stop offset="1" stop-color="#8BC34A"/>
</radialGradient>
<clipPath id="clip0_380_33245">
<rect width="30" height="30" fill="white"/>
</clipPath>
</defs>
</svg>
