<svg version="1.1" xmlns="http://www.w3.org/2000/svg" width="19" height="19" viewBox="0 0 149 149"><path d="M0 0 C1.051875 1.299375 1.051875 1.299375 2.125 2.625 C2.62515625 3.19863281 3.1253125 3.77226563 3.640625 4.36328125 C9.6726875 11.66910451 11.43470052 19.24678816 11.5234375 28.59375 C11.39195313 29.2640625 11.26046875 29.934375 11.125 30.625 C7.53957519 33.01528321 4.93161434 32.93124779 0.7890625 32.92578125 C0.07269623 32.93006638 -0.64367004 32.9343515 -1.38174438 32.93876648 C-2.8964126 32.94450519 -4.41110838 32.9450134 -5.92578125 32.94067383 C-8.23485807 32.93752068 -10.5426447 32.96095269 -12.8515625 32.98632812 C-14.32551922 32.98860198 -15.79947938 32.98930421 -17.2734375 32.98828125 C-18.30336319 33.00209587 -18.30336319 33.00209587 -19.35409546 33.01618958 C-23.72075418 32.9743851 -26.35297151 32.19367042 -29.875 29.625 C-30.54144531 29.14160156 -31.20789063 28.65820312 -31.89453125 28.16015625 C-32.48621094 27.67417969 -33.07789062 27.18820313 -33.6875 26.6875 C-34.29207031 26.20410156 -34.89664063 25.72070312 -35.51953125 25.22265625 C-36.875 23.625 -36.875 23.625 -36.875 19.625 C-26.645 19.625 -16.415 19.625 -5.875 19.625 C-9.20775527 11.66642831 -9.20775527 11.66642831 -16.10546875 7.6484375 C-22.18238285 5.48147588 -26.85670418 5.19088407 -32.875 7.625 C-37.24667984 9.74717468 -39.93355788 11.995196 -41.75 16.5625 C-42.15191731 17.90892298 -42.52912167 19.26310406 -42.875 20.625 C-43.308125 22.0790625 -43.308125 22.0790625 -43.75 23.5625 C-43.99580294 29.58467197 -41.85060133 34.765992 -38.1875 39.5 C-34.89987231 42.92295377 -31.62560456 45.02672296 -26.875 45.625 C-24.17621424 45.41549263 -21.50193669 45.16531079 -18.8125 44.875 C-11.8144045 44.14551228 -11.8144045 44.14551228 -8.25 45.96484375 C-6.32325098 47.80224755 -4.95875333 49.19019993 -3.875 51.625 C-3.9140625 53.7265625 -3.9140625 53.7265625 -4.875 55.625 C-13.45988853 60.53287638 -23.84491052 61.66647333 -33.36328125 59.41015625 C-42.25207273 56.63154492 -49.55550136 52.2121042 -54.37890625 44.09375 C-59.06321523 35.01873546 -60.56117729 25.96901313 -58.2265625 15.80078125 C-54.73098912 6.28505372 -48.82460011 -0.70724142 -39.875 -5.375 C-38.885 -5.9525 -37.895 -6.53 -36.875 -7.125 C-24.15698909 -12.42417121 -10.29345778 -8.50329121 0 0 Z " fill="#FDFDFC" transform="translate(98.875,48.375)" /><path d="M0 0 C4.91762088 0.14901881 7.35873958 2.816214 10.7421875 6.015625 C12 8 12 8 11.84765625 10.46875 C10.99961249 13.00115719 9.97352045 14.98901767 8.5625 17.25 C2.96702203 27.0663443 2.77182189 38.14642899 5.0625 49.0625 C8.25397477 60.41821254 15.45856825 69.55452444 25.59765625 75.53125 C36.17402676 80.76617296 47.45464095 82.46658107 58.85546875 79.17578125 C63.03957359 77.74720025 66.84561039 76.29320329 70.4375 73.6875 C73 72 73 72 74.92578125 72.140625 C77.64118469 73.26565091 78.88754969 74.80606982 80.75 77.0625 C81.36359375 77.79597656 81.9771875 78.52945313 82.609375 79.28515625 C83.06828125 79.85105469 83.5271875 80.41695313 84 81 C81.48525713 87.27333704 75.07540225 89.64030333 69.19921875 92.23828125 C53.63712212 98.02931856 36.29240139 97.12442937 21 91 C6.71846109 83.81143423 -4.73021688 71.06103522 -10.13671875 55.9609375 C-15.4567535 37.71394047 -13.37902321 23.15789496 -4.4296875 6.34765625 C-3.07098709 4.11656623 -1.61112287 2.05441999 0 0 Z " fill="#FDFDFC" transform="translate(28,37)" /><path d="M0 0 C0.92425781 0.42410156 1.84851563 0.84820313 2.80078125 1.28515625 C16.25346491 7.96498119 26.82756206 19.45632283 31.9375 33.6875 C32.3281584 35.11551481 32.68155711 36.55416654 33 38 C33.20109375 38.85980469 33.4021875 39.71960937 33.609375 40.60546875 C36.88824949 56.31304991 34.7876159 71.67567425 26.48046875 85.53515625 C23.70816719 89.51463723 23.70816719 89.51463723 22 91 C18 91 18 91 15.375 88.6875 C13 86 13 86 11 83 C11.34461021 79.28788299 12.62524431 76.59081277 14.4375 73.375 C19.68017539 63.08719931 20.05531422 52.14671179 17.24609375 41.01171875 C13.50091985 29.68217596 5.5209106 20.19553462 -5.125 14.625 C-16.68218537 9.4708132 -28.0342984 8.80384938 -40 13 C-42.7266919 14.49504331 -45.25767033 16.07572181 -47.78125 17.890625 C-50 19 -50 19 -52.61328125 18.8125 C-56.03878513 17.64637102 -57.69160865 15.74511404 -60 13 C-60.70681563 11.34995943 -61.38088121 9.68490776 -62 8 C-44.43527898 -4.09485625 -20.12842732 -10.01740336 0 0 Z " fill="#FDFDFC" transform="translate(99,20)" /><path d="" fill="#FFFFFF" transform="translate(0,0)" /><path d="" fill="#FFFFFF" transform="translate(0,0)" /><path d="" fill="#FFFFFF" transform="translate(0,0)" /><path d="" fill="#FFFFFF" transform="translate(0,0)" /><path d="" fill="#FFFFFF" transform="translate(0,0)" /><path d="" fill="#FFFFFF" transform="translate(0,0)" /><path d="" fill="#FFFFFF" transform="translate(0,0)" /><path d="" fill="#FFFFFF" transform="translate(0,0)" /><path d="" fill="#FFFFFF" transform="translate(0,0)" /><path d="" fill="#FFFFFF" transform="translate(0,0)" /><path d="" fill="#FFFFFF" transform="translate(0,0)" /><path d="" fill="#FFFFFF" transform="translate(0,0)" /><path d="" fill="#FFFFFF" transform="translate(0,0)" /><path d="" fill="#FFFFFF" transform="translate(0,0)" /><path d="" fill="#FFFFFF" transform="translate(0,0)" /><path d="" fill="#FFFFFF" transform="translate(0,0)" /><path d="" fill="#FFFFFF" transform="translate(0,0)" /><path d="" fill="#FFFFFF" transform="translate(0,0)" /><path d="" fill="#FFFFFF" transform="translate(0,0)" /><path d="" fill="#FFFFFF" transform="translate(0,0)" /><path d="" fill="#FFFFFF" transform="translate(0,0)" /><path d="" fill="#FFFFFF" transform="translate(0,0)" /><path d="" fill="#FFFFFF" transform="translate(0,0)" /><path d="" fill="#FFFFFF" transform="translate(0,0)" /><path d="" fill="#FFFFFF" transform="translate(0,0)" /><path d="" fill="#FFFFFF" transform="translate(0,0)" /><path d="" fill="#FFFFFF" transform="translate(0,0)" /><path d="" fill="#FFFFFF" transform="translate(0,0)" /><path d="" fill="#FFFFFF" transform="translate(0,0)" /><path d="" fill="#FFFFFF" transform="translate(0,0)" /><path d="" fill="#FFFFFF" transform="translate(0,0)" /><path d="" fill="#FFFFFF" transform="translate(0,0)" /><path d="" fill="#FFFFFF" transform="translate(0,0)" /><path d="" fill="#FFFFFF" transform="translate(0,0)" /><path d="" fill="#FFFFFF" transform="translate(0,0)" /><path d="" fill="#FFFFFF" transform="translate(0,0)" /><path d="" fill="#FFFFFF" transform="translate(0,0)" /><path d="" fill="#FFFFFF" transform="translate(0,0)" /><path d="" fill="#FFFFFF" transform="translate(0,0)" /><path d="" fill="#FFFFFF" transform="translate(0,0)" /><path d="" fill="#FFFFFF" transform="translate(0,0)" /><path d="" fill="#FFFFFF" transform="translate(0,0)" /><path d="" fill="#FFFFFF" transform="translate(0,0)" /><path d="" fill="#FFFFFF" transform="translate(0,0)" /><path d="" fill="#FFFFFF" transform="translate(0,0)" /><path d="" fill="#FFFFFF" transform="translate(0,0)" /><path d="" fill="#FFFFFF" transform="translate(0,0)" /><path d="" fill="#FFFFFF" transform="translate(0,0)" /><path d="" fill="#FFFFFF" transform="translate(0,0)" /><path d="" fill="#FFFFFF" transform="translate(0,0)" /><path d="" fill="#FFFFFF" transform="translate(0,0)" /><path d="" fill="#FFFFFF" transform="translate(0,0)" /><path d="" fill="#FFFFFF" transform="translate(0,0)" /><path d="" fill="#FFFFFF" transform="translate(0,0)" /><path d="" fill="#FFFFFF" transform="translate(0,0)" /><path d="" fill="#FFFFFF" transform="translate(0,0)" /><path d="" fill="#FFFFFF" transform="translate(0,0)" /><path d="" fill="#FFFFFF" transform="translate(0,0)" /><path d="" fill="#FFFFFF" transform="translate(0,0)" /></svg>