<svg width="19" height="19" viewBox="0 0 19 19" fill="none" xmlns="http://www.w3.org/2000/svg">
<g clip-path="url(#clip0_29309_208)">
<path d="M16.1474 5.29351H16.1892C16.3098 5.29351 16.4164 5.34917 16.4876 5.43421C18.2518 7.24948 19.178 11.1908 18.9724 13.8287C18.9151 14.56 18.7713 15.2033 18.5348 15.6888C18.2657 16.2423 17.8776 16.6057 17.3581 16.7015C16.6963 16.8237 15.8691 16.4743 14.8749 15.4615C14.7465 15.3316 14.6135 15.2002 14.4775 15.0656C14.0136 14.6095 13.525 14.1286 13.1122 13.5488H5.88821C5.47382 14.1333 4.98521 14.6141 4.5198 15.0703C4.38528 15.2033 4.2523 15.3331 4.12551 15.4615C3.13129 16.4743 2.30406 16.8237 1.64228 16.7015C1.12274 16.6057 0.733096 16.2423 0.4656 15.6888C0.229027 15.2017 0.0852285 14.56 0.0280182 13.8287C-0.17763 11.1784 0.757836 7.21392 2.53599 5.40947C2.61176 5.33216 2.71072 5.29351 2.81122 5.29351V5.29196H2.85452C3.07253 4.99199 3.34312 4.75078 3.64773 4.56833C4.11005 4.29155 4.64814 4.15394 5.18313 4.15394C5.71967 4.15394 6.25775 4.29155 6.71853 4.56833C7.02159 4.74924 7.29218 4.99045 7.5071 5.29042H8.73017C8.63585 2.98345 9.27753 2.40207 10.2254 2.33713C10.5686 2.31393 10.932 2.37424 11.3124 2.43763C12.0314 2.55669 12.8261 2.68812 13.3905 2.12375C13.542 1.97222 13.7863 1.97222 13.9378 2.12375C14.0894 2.27528 14.0894 2.51958 13.9378 2.67111C13.0936 3.5169 12.0932 3.35145 11.1887 3.20147C10.8531 3.1458 10.5346 3.09323 10.2764 3.10869C9.76459 3.14271 9.42442 3.56947 9.50482 5.29196H11.4948C11.7113 4.99199 11.9834 4.74924 12.2865 4.56833C12.7488 4.29155 13.2869 4.15394 13.8203 4.15394C14.3538 4.15394 14.8919 4.2931 15.3542 4.56833C15.6588 4.75078 15.9309 4.99199 16.1474 5.29351Z" fill="#262626"/>
<path d="M14.4419 6.50575C14.6924 6.75624 14.8176 7.08249 14.8176 7.41029C14.8176 7.73654 14.6924 8.06279 14.4419 8.31328L14.4403 8.31483C14.1899 8.56532 13.8636 8.69056 13.5374 8.69056C13.2111 8.69056 12.8848 8.56532 12.6344 8.31483L12.6328 8.31328C12.3823 8.06279 12.2571 7.73654 12.2571 7.41029C12.2571 7.08249 12.3823 6.75624 12.6328 6.50575C12.8818 6.25681 13.2096 6.13156 13.5374 6.13156C13.8636 6.13156 14.1899 6.25681 14.4403 6.50575H14.4419Z" fill="black"/>
<path d="M14.1127 6.83508C14.4312 7.15361 14.4312 7.66695 14.1127 7.98547C13.7941 8.304 13.2808 8.304 12.9623 7.98547C12.6438 7.66695 12.6438 7.15361 12.9623 6.83508C13.2793 6.51965 13.7941 6.51965 14.1127 6.83508Z" fill="#FFD54F"/>
<path d="M12.489 8.20195C12.4998 8.21277 12.5091 8.22359 12.5184 8.23442C12.7488 8.48027 12.8647 8.79415 12.8647 9.10649C12.8647 9.43274 12.7395 9.75899 12.489 10.0095L12.4875 10.011L12.489 10.0126C12.2385 10.2631 11.9123 10.3883 11.5845 10.3883C11.2567 10.3883 10.9304 10.2631 10.6799 10.0126C10.4294 9.76209 10.3042 9.43583 10.3042 9.10803C10.3042 8.78023 10.4294 8.45398 10.6799 8.20349L10.6815 8.20195C10.6923 8.19112 10.7031 8.18184 10.7139 8.17102C10.9598 7.94218 11.2721 7.82776 11.5845 7.82776C11.9107 7.82776 12.237 7.953 12.4875 8.20195H12.489Z" fill="black"/>
<path d="M12.1598 8.53131C12.4783 8.84983 12.4783 9.36318 12.1598 9.6817C11.8413 10.0002 11.3279 10.0002 11.0094 9.6817C10.6909 9.36318 10.6909 8.84983 11.0094 8.53131C11.3279 8.21434 11.8428 8.21434 12.1598 8.53131Z" fill="#2196F3"/>
<path d="M16.3931 8.20197C16.6436 8.45245 16.7689 8.77871 16.7689 9.10651C16.7689 9.43431 16.6436 9.76056 16.3931 10.011C16.1427 10.2615 15.8164 10.3868 15.4886 10.3868C15.1624 10.3868 14.8361 10.2615 14.5856 10.011L14.5841 10.0095L14.5825 10.011C14.332 9.76056 14.2068 9.43431 14.2068 9.10651C14.2068 8.77871 14.332 8.45245 14.5825 8.20197C14.833 7.95148 15.1593 7.82623 15.4871 7.82623C15.8149 7.82623 16.1427 7.95302 16.3931 8.20197Z" fill="black"/>
<path d="M16.0638 8.53131C16.3824 8.84983 16.3824 9.36318 16.0638 9.6817C15.7453 10.0002 15.232 10.0002 14.9135 9.6817C14.5949 9.36318 14.5949 8.84983 14.9135 8.53131C15.232 8.21434 15.7453 8.21434 16.0638 8.53131Z" fill="#F44336"/>
<path d="M14.4419 10.0528C14.6924 10.3033 14.8176 10.6295 14.8176 10.9573C14.8176 11.2836 14.6924 11.6098 14.4419 11.8603L14.4403 11.8619L14.4419 11.8634C14.1914 12.1139 13.8652 12.2391 13.5374 12.2391C13.2096 12.2391 12.8833 12.1139 12.6328 11.8634C12.622 11.8526 12.6127 11.8418 12.6034 11.8309C12.373 11.5851 12.2571 11.2712 12.2571 10.9589C12.2571 10.6311 12.3823 10.3048 12.6328 10.0543C12.6436 10.0435 12.6529 10.0342 12.6653 10.025C12.9111 9.79457 13.2235 9.68015 13.5374 9.68015C13.8636 9.68015 14.1899 9.80539 14.4403 10.0543H14.4419V10.0528Z" fill="black"/>
<path d="M14.1127 10.3821C14.4312 10.7007 14.4312 11.214 14.1127 11.5325C13.7941 11.8511 13.2808 11.8511 12.9623 11.5325C12.6438 11.214 12.6438 10.7007 12.9623 10.3821C13.2793 10.0667 13.7941 10.0667 14.1127 10.3821Z" fill="#4CAF50"/>
<path fill-rule="evenodd" clip-rule="evenodd" d="M5.17847 6.85211C5.66398 6.85211 6.05981 7.24949 6.05981 7.73346V8.76324H7.0896C7.57511 8.76324 7.97095 9.16062 7.97095 9.64459C7.97095 10.1301 7.57357 10.5259 7.0896 10.5259H6.05981V11.5557C6.05981 12.0412 5.66244 12.4371 5.17847 12.4371C4.69295 12.4371 4.29712 12.0397 4.29712 11.5557V10.5259H3.26733C2.78182 10.5259 2.38599 10.1286 2.38599 9.64459C2.38599 9.15908 2.78337 8.76324 3.26733 8.76324H4.29712V7.73346C4.29712 7.24949 4.69295 6.85211 5.17847 6.85211Z" fill="white"/>
<path fill-rule="evenodd" clip-rule="evenodd" d="M7.57056 9.67704L7.00928 10.2383V9.11576L7.57056 9.67704ZM5.20638 7.31287L5.76766 7.87415H4.6451L5.20638 7.31287ZM2.84375 9.67704L3.40503 10.2383V9.11576L2.84375 9.67704ZM5.20638 12.0397L5.76766 11.4784H4.6451L5.20638 12.0397Z" fill="#262626"/>
</g>
<defs>
<clipPath id="clip0_29309_208">
<rect width="19" height="19" fill="white"/>
</clipPath>
</defs>
</svg>
