<svg width="19" height="19" viewBox="0 0 19 19" fill="none" xmlns="http://www.w3.org/2000/svg">
<g clip-path="url(#clip0_29307_176)">
<path d="M15.2696 15.2696C13.0529 17.4863 10.0287 18.4363 7.3529 18.6389C4.67706 18.8416 2.3179 18.2969 1.51039 17.4894C0.702895 16.6819 0.155062 14.3449 0.360895 11.6596C0.566728 8.97427 1.52623 5.93427 3.73023 3.74294C5.93423 1.5516 8.97106 0.576271 11.6469 0.373605C14.3227 0.170938 16.6819 0.702938 17.4894 1.51044C18.2969 2.31794 18.8447 4.65494 18.6389 7.34027C18.4331 10.0256 17.4736 13.0624 15.2696 15.2696Z" fill="#91562D"/>
<path d="M9.43968 2.88797C9.08862 3.0685 8.74721 3.26721 8.41685 3.4833L7.93235 3.00514C7.77226 2.84505 7.53894 2.78253 7.32026 2.84113C7.10158 2.89972 6.93077 3.07053 6.87217 3.28921C6.81358 3.50789 6.8761 3.74122 7.03618 3.9013L7.35285 4.21797C6.96968 4.51247 6.55802 4.8513 6.13685 5.24397L5.69985 4.79747C5.45063 4.54825 5.04657 4.54825 4.79735 4.79747C4.54813 5.04669 4.54813 5.45075 4.79735 5.69997L5.25652 6.15597C4.86702 6.57714 4.52502 6.9888 4.23052 7.37197L3.91385 7.0553C3.75376 6.89522 3.52044 6.8327 3.30176 6.89129C3.08308 6.94989 2.91227 7.1207 2.85367 7.33938C2.79508 7.55806 2.8576 7.79138 3.01768 7.95147L3.48318 8.41697C3.26493 8.74719 3.0641 9.0886 2.88152 9.4398C2.78026 9.64344 2.79534 9.88564 2.92107 10.0751C3.0468 10.2647 3.26408 10.3727 3.49107 10.3586C3.71806 10.3444 3.92026 10.2103 4.02152 10.0066C4.02152 10.0066 4.15452 9.7438 4.40785 9.3353L4.79735 9.7248C5.04482 9.97402 5.44746 9.97544 5.69668 9.72797C5.9459 9.4805 5.94732 9.07785 5.69985 8.82864L5.14252 8.2713C5.46015 7.84668 5.79943 7.4387 6.15902 7.04897L6.59602 7.48597C6.7561 7.64605 6.98943 7.70857 7.20811 7.64998C7.42679 7.59138 7.5976 7.42058 7.65619 7.2019C7.71479 6.98322 7.65227 6.74989 7.49218 6.5898L7.05518 6.1528C7.44491 5.79322 7.8529 5.45393 8.27752 5.1363L8.82852 5.69997C9.07599 5.94744 9.47721 5.94744 9.72468 5.69997C9.97215 5.4525 9.97215 5.05127 9.72468 4.8038L9.33518 4.4143C9.74368 4.16097 10.0002 4.03114 10.0065 4.02797C10.0675 3.99702 10.1232 3.95638 10.1712 3.90764C10.3896 3.6877 10.4168 3.34196 10.2354 3.09061C10.0539 2.83927 9.71721 2.75619 9.43968 2.8943V2.88797Z" fill="#F5F5F5"/>
<path d="M9.07879 18.4015C8.00112 18.6162 6.90296 18.7107 5.80446 18.6833L0.316623 13.1955C0.287166 12.0972 0.379564 10.9991 0.592123 9.92114L9.07879 18.4015Z" fill="#F5F5F5"/>
<path d="M18.4015 9.07879L9.92114 0.598457C10.9988 0.383774 12.097 0.289252 13.1955 0.316624L18.6833 5.80446C18.7107 6.90296 18.6162 8.00112 18.4015 9.07879Z" fill="#F5F5F5"/>
<path d="M17.7144 1.28565C16.0234 -0.402185 8.07821 -1.06402 3.50554 3.50231C-1.06712 8.06865 -0.402123 16.0201 1.28888 17.7111C2.02354 18.4458 3.94254 18.9778 6.25421 18.9778C9.25304 18.9778 12.9042 18.0658 15.4977 15.4945C20.064 10.9218 19.4022 2.97665 17.7144 1.28565ZM16.9544 3.63531L14.0062 0.687148C15.4724 0.816981 16.6345 1.18431 17.1729 1.66565C17.1951 2.32929 17.1215 2.99267 16.9544 3.63531ZM17.7872 2.58715C18.0789 3.35943 18.256 4.17024 18.3129 4.99381L17.4737 4.15465C17.6151 3.6402 17.7199 3.11639 17.7872 2.58715ZM18.3667 5.93748C18.3787 6.76847 18.3205 7.59898 18.1925 8.42015L16.5459 6.77665C16.8248 6.14766 17.069 5.50386 17.2774 4.84815L18.3667 5.93748ZM12.8314 0.633315H13.0625L16.7834 4.34465C16.591 5.01113 16.3595 5.66566 16.0899 6.30481L10.5767 0.810648C11.3226 0.693972 12.0764 0.634687 12.8314 0.633315ZM3.96471 3.95198C5.58414 2.40662 7.61685 1.36387 9.81671 0.949981L15.7985 6.92548C14.9001 8.86906 13.6687 10.6406 12.16 12.16C10.6401 13.6687 8.8674 14.8991 6.92238 15.7953L0.950044 9.81665C1.36309 7.61305 2.40707 5.57679 3.95521 3.95515L3.96471 3.95198ZM0.81071 10.5798L6.30488 16.0708C5.66665 16.3481 5.01204 16.5861 4.34471 16.7833L0.633377 13.0625C0.622391 12.2314 0.681714 11.4009 0.81071 10.5798ZM0.68721 14.0061L3.63538 16.9543C2.99308 17.1242 2.3299 17.2021 1.66571 17.1855C1.18438 16.6376 0.817044 15.4723 0.68721 14.0061ZM4.17054 17.4895L5.00971 18.3286C4.18267 18.2723 3.3685 18.0941 2.59354 17.7998C3.12088 17.7275 3.64254 17.6185 4.15471 17.4736L4.17054 17.4895ZM5.93754 18.3666L4.84821 17.2741C5.50285 17.0668 6.14559 16.8237 6.77354 16.5458L8.42021 18.1925C7.59903 18.3203 6.76853 18.3786 5.93754 18.3666ZM15.0449 15.0448C13.4232 16.593 11.387 17.6369 9.18338 18.05L7.39421 16.2608C9.32367 15.3423 11.0864 14.1083 12.6097 12.6096C14.1089 11.0844 15.343 9.31952 16.2609 7.38781L18.05 9.18331C17.637 11.3869 16.593 13.4232 15.0449 15.0448Z" fill="black"/>
<path d="M2.78347 8.15732L3.10013 8.47398C2.78347 8.98382 2.6188 9.30998 2.61563 9.31315C2.50327 9.53859 2.48505 9.79944 2.56497 10.0383C2.69457 10.4265 3.05821 10.6881 3.46747 10.6875C3.56959 10.6872 3.67106 10.6712 3.7683 10.64C4.0076 10.55 4.20052 10.3673 4.30347 10.1333C4.30347 10.1333 4.36047 10.0225 4.4713 9.83248L4.57263 9.93382C4.9434 10.3055 5.54524 10.3062 5.91688 9.9354C6.28852 9.56463 6.28923 8.96279 5.91847 8.59115L5.55747 8.23332C5.75063 7.98315 5.9533 7.73615 6.16547 7.49865L6.36497 7.69815C6.74 8.05846 7.3326 8.05846 7.70763 7.69815C8.07807 7.32725 8.07807 6.72638 7.70763 6.35548L7.50813 6.15598C7.74563 5.94382 7.99263 5.74115 8.2428 5.54798L8.6038 5.90898C8.97544 6.27975 9.57728 6.27904 9.94805 5.9074C10.3188 5.53576 10.3181 4.93392 9.94647 4.56315L9.84513 4.46182C10.0383 4.35098 10.146 4.29398 10.1618 4.29398C10.2535 4.24921 10.337 4.18926 10.4088 4.11665C10.7402 3.78771 10.7834 3.2667 10.5108 2.88765C10.2381 2.5086 9.73039 2.38389 9.31313 2.59348C9.2973 2.59348 8.9743 2.76448 8.47397 3.07798L8.1573 2.76132C7.7812 2.40061 7.18757 2.40061 6.81147 2.76132C6.44103 3.13222 6.44103 3.73308 6.81147 4.10398L6.89063 4.17998C6.64363 4.37632 6.3998 4.58215 6.1623 4.79432L5.91847 4.55048C5.67806 4.31007 5.32765 4.21618 4.99925 4.30418C4.67084 4.39217 4.41433 4.64869 4.32633 4.97709C4.23833 5.3055 4.33222 5.65591 4.57263 5.89632L4.81647 6.14015C4.6043 6.37765 4.39847 6.62148 4.20213 6.86848L4.11663 6.81148C3.7403 6.4544 3.1503 6.4544 2.77397 6.81148C2.59635 6.991 2.49751 7.23384 2.49929 7.48637C2.50107 7.7389 2.60333 7.98033 2.78347 8.15732ZM3.22997 7.26115C3.28973 7.20187 3.37063 7.16883 3.4548 7.16932C3.53897 7.16883 3.61987 7.20187 3.67963 7.26115L3.9963 7.57782C4.06064 7.642 4.14944 7.67544 4.24013 7.66965C4.33141 7.6638 4.4157 7.61877 4.4713 7.54615C4.78797 7.14082 5.10463 6.73865 5.47513 6.35232C5.59175 6.22999 5.59175 6.03764 5.47513 5.91532L5.01913 5.45615C4.92876 5.37876 4.8894 5.25725 4.91723 5.14157C4.94505 5.02589 5.03537 4.93557 5.15105 4.90774C5.26673 4.87992 5.38824 4.91928 5.46563 5.00965L5.9248 5.46565C6.04713 5.58226 6.23947 5.58226 6.3618 5.46565C6.74813 5.11098 7.1503 4.77215 7.55563 4.46182C7.62825 4.40621 7.67328 4.32192 7.67913 4.23065C7.68493 4.13996 7.65148 4.05115 7.5873 3.98682L7.27063 3.65432C7.21213 3.59533 7.17915 3.51572 7.1788 3.43265C7.17831 3.34848 7.21136 3.26758 7.27063 3.20782C7.39415 3.08504 7.59362 3.08504 7.71713 3.20782L8.20163 3.69232C8.3074 3.79759 8.4723 3.81474 8.59747 3.73348C9.1833 3.37248 9.56647 3.16665 9.5823 3.16665C9.65754 3.13668 9.7414 3.13668 9.81663 3.16665C9.89644 3.19297 9.96251 3.24993 10.0003 3.32498C10.0612 3.44606 10.0383 3.59246 9.9433 3.68915C9.92001 3.71212 9.89331 3.73135 9.86413 3.74615C9.86413 3.74615 9.6013 3.87915 9.16113 4.15465C9.08012 4.20571 9.02657 4.2907 9.01547 4.38582C9.00404 4.48135 9.03667 4.57689 9.10413 4.64548L9.49997 5.02232C9.62275 5.14583 9.62275 5.3453 9.49997 5.46882C9.37645 5.59159 9.17698 5.59159 9.05347 5.46882L8.49613 4.91465C8.3856 4.80379 8.21065 4.79033 8.08447 4.88298C7.64456 5.20593 7.22177 5.55157 6.8178 5.91848C6.75588 5.97817 6.72089 6.06048 6.72089 6.14648C6.72089 6.23249 6.75588 6.3148 6.8178 6.37448L7.2548 6.81465C7.3133 6.87363 7.34628 6.95324 7.34663 7.03632C7.34712 7.12049 7.31408 7.20139 7.2548 7.26115C7.19534 7.3211 7.1144 7.35482 7.02997 7.35482C6.94553 7.35482 6.86459 7.3211 6.80513 7.26115L6.36813 6.82415C6.3076 6.76409 6.2254 6.73098 6.14013 6.73232C6.05347 6.73347 5.97106 6.77009 5.91213 6.83365C5.54797 7.23265 5.19963 7.65065 4.87663 8.08132C4.78213 8.2081 4.79565 8.38517 4.9083 8.49615L5.46247 9.05348C5.55795 9.17888 5.54669 9.3554 5.43604 9.46764C5.32539 9.57988 5.14904 9.59367 5.0223 9.49998L4.6328 9.11048C4.56442 9.04173 4.46831 9.0081 4.37198 9.01921C4.27565 9.03033 4.18973 9.08497 4.1388 9.16748C3.88863 9.56965 3.7493 9.84198 3.73663 9.86415C3.65875 10.0206 3.46883 10.0844 3.3123 10.0066C3.23661 9.96981 3.17869 9.90435 3.15136 9.82473C3.12403 9.74511 3.12952 9.65788 3.16663 9.58232C3.34231 9.24035 3.53683 8.90839 3.7493 8.58798C3.83056 8.46282 3.81341 8.29791 3.70813 8.19215L3.22997 7.70765C3.10719 7.58414 3.10719 7.38466 3.22997 7.26115Z" fill="black"/>
</g>
<defs>
<clipPath id="clip0_29307_176">
<rect width="19" height="19" fill="white"/>
</clipPath>
</defs>
</svg>
