<svg width="19" height="19" viewBox="0 0 19 19" fill="none" xmlns="http://www.w3.org/2000/svg">
<path fill-rule="evenodd" clip-rule="evenodd" d="M18.2791 12.313L16.4802 12.8703L15.3844 11.2037L14.2037 9.59622L15.3844 7.80706L16.8284 6.33728L18.2791 6.69776C18.8608 8.51822 18.8608 10.4926 18.2791 12.313Z" fill="#FA6E85"/>
<path fill-rule="evenodd" clip-rule="evenodd" d="M8.60815 9.38439L9.50122 7.80716L10.2606 6.11032L12.4428 6.10883L14.3071 6.03467L15.3844 7.80716V11.2038L14.4282 12.8855L12.4428 12.9021L9.64 13.2033L9.50122 11.2038L8.60815 9.38439Z" fill="#FA6E85"/>
<path fill-rule="evenodd" clip-rule="evenodd" d="M12.9804 0.97168L11.2157 1.27642L11.9958 2.16033L11.3875 4.00691L12.4428 6.10884L15.3844 7.80718L18.279 6.69787C17.4472 4.09553 15.4905 1.9961 12.9804 0.97168Z" fill="#FFBF31"/>
<path fill-rule="evenodd" clip-rule="evenodd" d="M9.50111 9.50549V7.80715L8.71144 6.3222L6.55947 6.10882L4.49837 5.97412L3.61788 7.80715L2.31616 9.38438L3.61788 11.2038L4.16537 13.173L6.55947 12.9021L8.51467 12.9157L9.50111 11.2038V9.50549Z" fill="#FA6E85"/>
<path fill-rule="evenodd" clip-rule="evenodd" d="M9.50117 7.80719L6.55954 6.10885L5.22217 3.83692L7.03682 2.14838L9.91735 1.02136L12.043 2.13647L12.2242 4.01645L12.4597 6.09689L9.50117 7.80719Z" fill="#FA6E85"/>
<path fill-rule="evenodd" clip-rule="evenodd" d="M9.50108 2.16034H7.00644L5.51648 2.37355L6.02181 0.971683C8.24508 0.0642893 10.7571 0.0642893 12.9804 0.971683L11.9957 2.16038L9.50108 2.16034Z" fill="#FA6E85"/>
<path fill-rule="evenodd" clip-rule="evenodd" d="M0.723231 6.69787L2.83998 6.27686L3.61796 7.80717V11.2038L2.06803 12.7342L0.723231 12.3131C0.14141 10.4927 0.14141 8.51828 0.723231 6.69787Z" fill="#FA6E85"/>
<path fill-rule="evenodd" clip-rule="evenodd" d="M6.0219 0.97168L7.00653 2.16033L6.55954 6.10884L3.61795 7.80718L0.723267 6.69787C1.55514 4.09553 3.51183 1.9961 6.0219 0.97168Z" fill="#FFBF31"/>
<path fill-rule="evenodd" clip-rule="evenodd" d="M12.9804 18.0393L11.3229 17.7998L11.9957 16.8506L10.7466 14.5364L12.4427 12.9021L15.3843 11.2037L18.2789 12.313C17.4472 14.9154 15.4905 17.0148 12.9804 18.0393Z" fill="#FFBF31"/>
<path fill-rule="evenodd" clip-rule="evenodd" d="M9.50111 11.2039L6.55948 12.9021L5.44446 14.5816L7.00647 16.8507L9.50111 17.7851L11.9957 16.8507L12.4427 12.9021L9.50111 11.2039Z" fill="#FA6E85"/>
<path fill-rule="evenodd" clip-rule="evenodd" d="M9.50116 16.8507H7.00652L5.75012 16.6664L6.02189 18.0393C8.24516 18.9467 10.7572 18.9467 12.9804 18.0393L11.9958 16.8506H9.50116V16.8507Z" fill="#FA6E85"/>
<path fill-rule="evenodd" clip-rule="evenodd" d="M6.0219 18.0394L7.00653 16.8507L6.55954 12.9022L3.61795 11.2039L0.723267 12.3132C1.55514 14.9155 3.51183 17.0149 6.0219 18.0394Z" fill="#FFBF31"/>
<path fill-rule="evenodd" clip-rule="evenodd" d="M1.61963 6.51956C2.11902 4.45367 3.34487 2.67128 5.01164 1.45801C2.99103 2.58767 1.43983 4.45617 0.723267 6.69787L1.51729 7.00212C1.547 6.83968 1.58116 6.67879 1.61963 6.51956Z" fill="#D1991F"/>
<path fill-rule="evenodd" clip-rule="evenodd" d="M1.51725 7.00213L0.723231 6.69788C0.14141 8.51829 0.14141 10.4927 0.723231 12.3131L1.98169 11.8308C1.38541 10.3137 1.21876 8.63347 1.51725 7.00213Z" fill="#D9435C"/>
<path fill-rule="evenodd" clip-rule="evenodd" d="M1.98173 11.8308L0.723267 12.3131C1.55514 14.9154 3.51183 17.0149 6.0219 18.0393L7.00653 16.8506L7.00477 16.835C4.70523 15.9421 2.87875 14.1126 1.98173 11.8308Z" fill="#D1991F"/>
<path fill-rule="evenodd" clip-rule="evenodd" d="M7.00648 16.8506L6.02185 18.0393C8.24512 18.9467 10.7571 18.9467 12.9804 18.0393L12.2748 17.1875C11.5988 17.3501 10.9047 17.432 10.2029 17.432C9.09022 17.432 8.02567 17.2262 7.04517 16.8506H7.00648V16.8506Z" fill="#D9435C"/>
<path fill-rule="evenodd" clip-rule="evenodd" d="M18.2073 12.3353C17.084 14.7396 14.9094 16.5541 12.2749 17.1875L12.9805 18.0393C15.4905 17.0149 17.4473 14.9154 18.2791 12.3131L18.2269 12.2931C18.2204 12.3072 18.2139 12.3213 18.2073 12.3353Z" fill="#D1991F"/>
<path fill-rule="evenodd" clip-rule="evenodd" d="M13.064 17.6897L12.2944 16.7602L12.7113 13.0779L15.4079 11.5207L17.9173 12.4822C17.0909 14.819 15.341 16.698 13.064 17.6897ZM6.49861 17.9124C8.42642 18.5988 10.5732 18.5988 12.501 17.9126L11.859 17.1376H7.14061L6.49861 17.9124ZM1.08273 12.4823L3.59153 11.5208L6.2883 13.078L6.70522 16.7603L5.93503 17.6897C3.65835 16.698 1.90845 14.819 1.08273 12.4823ZM5.93499 1.31895L6.70518 2.24859L6.28825 5.93091L3.59148 7.48809L1.08269 6.5268C1.90845 4.1898 3.65835 2.31083 5.93499 1.31895ZM12.501 1.09624C10.5732 0.41006 8.42642 0.41028 6.49861 1.09646L7.14057 1.87127H11.859L12.501 1.09624ZM17.9173 6.5268L15.4079 7.48809L12.7304 5.9412L12.5094 3.9853L12.3369 2.19702L13.0639 1.31934C15.341 2.31105 17.0909 4.1898 17.9173 6.5268ZM15.671 8.00415V11.0049L18.0912 11.932C18.5333 10.3552 18.5333 8.65367 18.0912 7.07701L15.671 8.00415ZM7.26234 2.44725H11.7821L11.9361 4.04298C11.9361 4.04465 11.9366 4.04614 11.9366 4.04781L12.1511 5.94085L9.49981 7.47372L6.86528 5.95281L7.26234 2.44725ZM3.90453 7.97232V11.0368L6.55813 12.5686L9.21173 11.0368V7.97232L6.55813 6.44029L3.90453 7.97232ZM0.908822 7.07701C0.465039 8.65367 0.465039 10.3552 0.908822 11.932L3.3286 11.0049V8.00415L0.908822 7.07701ZM7.26234 16.5616L6.86528 13.0562L9.49981 11.5355L12.1339 13.0562L11.7373 16.5616H7.26234ZM12.4415 12.5685L15.0951 11.0367V7.97232L12.4406 6.43884L9.78771 7.97232V11.0368L12.4415 12.5685ZM18.5522 6.60936C18.131 5.29502 17.4123 4.06307 16.4687 3.04625C13.7805 0.14801 9.57867 -0.793058 5.91156 0.704026C3.31602 1.76361 1.30113 3.93879 0.447674 6.60936C-0.149225 8.47642 -0.149225 10.5326 0.447674 12.3997C1.3013 15.0705 3.31567 17.245 5.91156 18.3049C5.91156 18.3051 5.91195 18.3051 5.91195 18.3051C7.053 18.7708 8.26007 19.007 9.49981 19.007C13.6337 19.007 17.2946 16.3277 18.5522 12.3997C19.1493 10.5326 19.1493 8.47642 18.5522 6.60936Z" fill="#1E2F3F"/>
</svg>
