<svg width="19" height="19" viewBox="0 0 19 19" fill="none" xmlns="http://www.w3.org/2000/svg">
<path d="M18.679 7.46065C18.679 8.22065 18.0204 8.92576 16.9015 9.49576C15.2295 10.3487 12.5399 10.9018 9.49991 10.9018C6.46413 10.9018 3.77036 10.3487 2.09836 9.49576C0.979467 8.92576 0.320801 8.22065 0.320801 7.46065C0.320801 5.55643 4.42902 4.01532 9.49991 4.01532C14.5666 4.01954 18.679 5.56065 18.679 7.46065Z" fill="#655E67"/>
<path d="M18.679 7.46069V11.5351C18.679 13.4351 14.5708 14.9805 9.49991 14.9805C4.42902 14.9805 0.320801 13.4394 0.320801 11.5351V7.46069C0.320801 8.22069 0.979467 8.9258 2.09836 9.4958C3.77036 10.3487 6.45991 10.9018 9.49991 10.9018C12.5357 10.9018 15.2295 10.3487 16.9015 9.4958C18.0161 8.93003 18.679 8.22492 18.679 7.46069Z" fill="#655E67"/>
<path d="M9.50005 4.01959C9.08205 4.01959 8.66827 4.03226 8.26294 4.04915C12.7469 4.27715 16.2049 5.71693 16.2049 7.4607C16.2049 8.2207 15.5463 8.92581 14.4274 9.49581C12.9876 10.2305 10.7878 10.7456 8.26294 10.8723C8.66827 10.8934 9.08205 10.9018 9.50005 10.9018C12.5358 10.9018 15.2296 10.3487 16.9016 9.49581C18.0205 8.92581 18.6792 8.2207 18.6792 7.4607C18.6792 5.5607 14.5667 4.01959 9.50005 4.01959Z" fill="#544F56"/>
<path d="M16.9016 9.50004C16.6863 9.60981 16.454 9.71537 16.2049 9.81248V11.5351C16.2049 13.2789 12.7469 14.7229 8.26294 14.9467C8.66827 14.9678 9.08205 14.9763 9.50005 14.9763C14.5667 14.9763 18.6792 13.4351 18.6792 11.5309V7.45648C18.6792 8.22493 18.0163 8.93004 16.9016 9.50004Z" fill="#544F56"/>
<path d="M16.1036 4.72468C14.3344 4.06179 11.9911 3.69446 9.5 3.69446C7.00889 3.69446 4.66556 4.06179 2.89644 4.72468C1.03022 5.42557 0 6.39668 0 7.46068V11.5351C0 12.5991 1.03022 13.5702 2.89644 14.2711C4.66556 14.934 7.00889 15.3013 9.5 15.3013C11.9869 15.3013 14.3344 14.934 16.1036 14.2711C17.9698 13.5702 19 12.5991 19 11.5351V7.46068C19 6.39668 17.9698 5.42557 16.1036 4.72468ZM3.12444 5.32846C4.82178 4.6909 7.08489 4.34046 9.5 4.34046C11.9151 4.34046 14.1782 4.6909 15.8756 5.32846C17.4504 5.91957 18.354 6.69646 18.354 7.46068C18.354 8.06024 17.784 8.68513 16.7538 9.20868C15.0733 10.0658 12.3627 10.5809 9.5 10.5809C6.63733 10.5809 3.92667 10.07 2.24622 9.20868C1.21178 8.6809 0.646 8.06024 0.646 7.46068C0.646 6.69646 1.54956 5.91957 3.12444 5.32846ZM18.354 11.5393C18.354 12.3036 17.4504 13.0805 15.8756 13.6716C14.1782 14.3091 11.9151 14.6596 9.5 14.6596C7.08489 14.6596 4.82178 14.3091 3.12444 13.6716C1.54956 13.0805 0.646 12.3036 0.646 11.5393V8.86668C0.966889 9.19601 1.406 9.50424 1.95489 9.78712C3.74933 10.7033 6.498 11.2311 9.5 11.2311C12.502 11.2311 15.2507 10.7076 17.0451 9.78712C17.594 9.50846 18.0331 9.19601 18.354 8.86668V11.5393Z" fill="black"/>
</svg>
