<svg width="100" height="100" viewBox="0 0 100 100" fill="none" xmlns="http://www.w3.org/2000/svg">
<path d="M100 53.0209C92.6331 68.557 84.391 82.0508 73.6689 95.1799C58.7163 97.514 44.2013 97.1492 28.1546 95.6175L38.6579 78.8414C47.0459 79.2791 55.434 79.352 63.822 78.6226C69.876 70.5993 74.9818 61.9195 79.577 52.9479C76.0759 45.9457 72.1371 39.5271 67.3961 32.7437L77.8264 16.0406C86.4333 27.4191 94.3107 39.6 100 53.0209Z" fill="#CAFA00"/>
<path d="M32.6039 66.9523L22.1736 83.6555C13.1291 71.6934 5.83516 60.096 0 46.7481C6.63749 32.0872 16.1196 16.77 26.3311 4.51614C42.3049 2.69265 56.7469 2.47383 71.8454 4.0785L61.3421 20.8546C52.9541 20.4169 44.566 20.344 36.178 21.0734C30.0511 29.0238 25.0182 37.7765 20.423 46.7481C23.9241 53.6773 27.8629 59.9501 32.6039 66.9523Z" fill="#CAFA00"/>
<path d="M49.9635 63.3783C57.4562 63.3783 63.5303 57.3042 63.5303 49.8115C63.5303 42.3188 57.4562 36.2448 49.9635 36.2448C42.4708 36.2448 36.3968 42.3188 36.3968 49.8115C36.3968 57.3042 42.4708 63.3783 49.9635 63.3783Z" fill="white"/>
</svg>
