<?xml version="1.0" encoding="UTF-8"?>
<svg xmlns="http://www.w3.org/2000/svg" xmlns:xlink="http://www.w3.org/1999/xlink" width="19px" height="19px" viewBox="0 0 19 19" version="1.1">
<g id="surface1">
<path style=" stroke:none;fill-rule:nonzero;fill:rgb(79.215688%,98.039216%,0%);fill-opacity:1;" d="M 19 10.074219 C 17.601562 13.027344 16.035156 15.589844 13.996094 18.085938 C 11.15625 18.527344 8.398438 18.457031 5.347656 18.167969 L 7.34375 14.980469 C 8.9375 15.0625 10.53125 15.078125 12.125 14.9375 C 13.277344 13.414062 14.246094 11.765625 15.121094 10.058594 C 14.453125 8.730469 13.707031 7.511719 12.804688 6.222656 L 14.785156 3.046875 C 16.421875 5.210938 17.917969 7.523438 19 10.074219 Z M 19 10.074219 "/>
<path style=" stroke:none;fill-rule:nonzero;fill:rgb(79.215688%,98.039216%,0%);fill-opacity:1;" d="M 6.195312 12.722656 L 4.214844 15.894531 C 2.496094 13.621094 1.109375 11.417969 0 8.882812 C 1.261719 6.097656 3.0625 3.1875 5.003906 0.859375 C 8.039062 0.511719 10.78125 0.46875 13.652344 0.773438 L 11.65625 3.960938 C 10.0625 3.878906 8.46875 3.867188 6.875 4.003906 C 5.710938 5.515625 4.753906 7.175781 3.878906 8.882812 C 4.546875 10.199219 5.292969 11.390625 6.195312 12.722656 Z M 6.195312 12.722656 "/>
<path style=" stroke:none;fill-rule:nonzero;fill:rgb(100%,100%,100%);fill-opacity:1;" d="M 9.492188 12.042969 C 10.917969 12.042969 12.070312 10.886719 12.070312 9.464844 C 12.070312 8.039062 10.917969 6.886719 9.492188 6.886719 C 8.070312 6.886719 6.914062 8.039062 6.914062 9.464844 C 6.914062 10.886719 8.070312 12.042969 9.492188 12.042969 Z M 9.492188 12.042969 "/>
</g>
</svg>
