<?xml version="1.0" encoding="UTF-8"?>
<svg version="1.1" xmlns="http://www.w3.org/2000/svg" width="1014" height="1024">
<path d="M0 0 C1.60546875 1.1328125 1.60546875 1.1328125 3.3125 2.5625 C4.00988281 3.13742188 4.70726562 3.71234375 5.42578125 4.3046875 C16.07625257 13.54323054 26.27589654 23.74344723 35.3125 34.5625 C36.08078125 35.44164062 36.8490625 36.32078125 37.640625 37.2265625 C49.18694751 50.50169991 59.91577183 64.68730201 69.3125 79.5625 C69.77301758 80.28421387 70.23353516 81.00592773 70.70800781 81.74951172 C122.82682598 163.60594164 146.34161553 260.51841083 127.5625 384.0625 C119.77826239 418.40574979 107.63009994 451.27156303 91.38574219 482.49902344 C90.65685141 483.90043037 89.93373488 485.30485265 89.21582031 486.71191406 C74.62352525 515.16253538 55.50870613 541.68756452 34.3125 565.5625 C33.32745483 566.6767334 33.32745483 566.6767334 32.32250977 567.81347656 C26.63656836 574.19500169 20.76059986 580.36161484 14.75 586.4375 C13.40905273 587.82195312 13.40905273 587.82195312 12.04101562 589.234375 C5.41072804 595.9277158 -0.66391452 601.02729424 -10.40625 601.64453125 C-19.85701429 601.30469212 -25.16815641 595.84594629 -31.6875 589.5625 C-33.053661 588.40614229 -34.42748225 587.25870404 -35.8125 586.125 C-36.76125 585.279375 -37.71 584.43375 -38.6875 583.5625 C-38.6875 582.9025 -38.6875 582.2425 -38.6875 581.5625 C-39.6775 581.2325 -40.6675 580.9025 -41.6875 580.5625 C-41.6875 579.9025 -41.6875 579.2425 -41.6875 578.5625 C-42.3475 578.5625 -43.0075 578.5625 -43.6875 578.5625 C-48.34000841 573.08983786 -50.94693078 566.46657862 -50.56640625 559.2734375 C-49.07875755 550.34754529 -43.45073765 545.08351033 -36.6875 539.5625 C-34.96390952 537.67718992 -33.31860553 535.73515496 -31.6640625 533.7890625 C-29.47936028 531.32803431 -27.16830809 529.0474599 -24.8125 526.75 C-19.67614258 521.66005545 -15.18153791 516.21841112 -10.6875 510.5625 C-9.7531345 509.42817561 -8.8168454 508.29543373 -7.87890625 507.1640625 C-0.11463572 497.73592857 6.75433071 487.86109701 13.3125 477.5625 C13.70501953 476.95003418 14.09753906 476.33756836 14.50195312 475.70654297 C40.44859089 434.89893411 57.53649725 387.61228581 63.3125 339.5625 C63.41546387 338.70672363 63.51842773 337.85094727 63.62451172 336.96923828 C73.35268224 251.50580029 48.73072177 164.02137232 -4.25 96.25 C-11.93034487 86.60514353 -19.83355251 77.17442018 -28.67578125 68.5703125 C-31.2184726 66.03255842 -33.52989842 63.33379905 -35.859375 60.6015625 C-37.95258248 58.26683108 -40.18080869 56.11411516 -42.4375 53.9375 C-47.64174759 48.71552073 -49.80777893 45.14219511 -50.125 37.6875 C-49.81371329 27.97774906 -45.7911469 23.1954241 -38.90625 16.640625 C-38.1740625 15.95484375 -37.441875 15.2690625 -36.6875 14.5625 C-35.9759375 13.81484375 -35.264375 13.0671875 -34.53125 12.296875 C-32.6875 10.5625 -32.6875 10.5625 -30.6875 10.5625 C-30.0275 9.2425 -29.3675 7.9225 -28.6875 6.5625 C-28.0275 6.5625 -27.3675 6.5625 -26.6875 6.5625 C-26.6875 5.9025 -26.6875 5.2425 -26.6875 4.5625 C-18.88719419 -2.23415473 -9.61747484 -3.74918511 0 0 Z " fill="#FEFEFE" transform="translate(758.6875,212.4375)"/>
<path d="M0 0 C4.74035391 3.54202633 8.86353984 7.72978268 13.04467773 11.90209961 C13.97666992 12.79735352 14.90866211 13.69260742 15.86889648 14.61499023 C21.82688623 20.53451376 26.93709605 26.45257459 27.43530273 35.17724609 C27.13497053 43.48987842 22.06836776 49.222553 16.29467773 54.71459961 C15.28456576 55.89351014 14.28505118 57.08155928 13.29467773 58.27709961 C11.5447641 60.35206082 9.99800462 61.9504167 7.85717773 63.65209961 C4.96816146 65.97740539 2.74632334 68.53648417 0.34936523 71.35522461 C-1.08638299 73.00387847 -2.56441881 74.61622568 -4.07250977 76.19897461 C-35.42728384 109.13544352 -58.75704222 151.70102577 -72.70532227 194.71459961 C-73.02194824 195.67865723 -73.33857422 196.64271484 -73.66479492 197.63598633 C-98.969727 275.77074529 -92.10816629 360.20936997 -58.70532227 434.71459961 C-58.35244141 435.51220703 -57.99956055 436.30981445 -57.63598633 437.1315918 C-43.54990705 468.80886049 -23.42234292 496.72894289 -0.70532227 522.71459961 C0.07327148 523.60663086 0.85186523 524.49866211 1.65405273 525.41772461 C5.91940654 530.26034434 10.30334614 534.87579554 15.04858398 539.25756836 C21.59406937 545.42070272 26.72795662 550.9139462 27.50561523 560.24584961 C27.11272726 571.81818638 18.22234528 579.29164382 10.29467773 586.71459961 C9.58827148 587.3784668 8.88186523 588.04233398 8.15405273 588.72631836 C2.04656683 594.26874159 -3.88139142 599.37091901 -12.42016602 599.83959961 C-25.34710563 599.13248496 -34.32581052 588.40458375 -42.83032227 579.77709961 C-43.6849707 578.92180664 -44.53961914 578.06651367 -45.42016602 577.18530273 C-50.3837767 572.18738138 -55.13228988 567.07055506 -59.70532227 561.71459961 C-60.56254883 560.7387793 -61.41977539 559.76295898 -62.30297852 558.75756836 C-108.72780968 504.97539469 -140.48760716 437.74871434 -153.39282227 367.96459961 C-153.58352295 366.94366211 -153.77422363 365.92272461 -153.97070312 364.87084961 C-157.84019325 342.69185859 -159.25701522 320.57946389 -159.14282227 298.08959961 C-159.14011322 296.82833252 -159.13740417 295.56706543 -159.13461304 294.26757812 C-159.07022965 274.43561409 -158.11341248 255.26141117 -154.70532227 235.71459961 C-154.52340332 234.59504883 -154.34148437 233.47549805 -154.15405273 232.32202148 C-148.61656236 198.45376046 -138.08297268 165.45085174 -123.86352539 134.25708008 C-122.8117869 131.94831013 -121.77980954 129.63182994 -120.75219727 127.31225586 C-107.04844896 96.83031559 -88.26088242 68.19635107 -66.70532227 42.71459961 C-65.46782227 41.21799805 -65.46782227 41.21799805 -64.20532227 39.69116211 C-57.03499877 31.05349114 -49.45699027 22.83163573 -41.70532227 14.71459961 C-41.19404785 14.17464355 -40.68277344 13.6346875 -40.15600586 13.07836914 C-29.11487909 1.45786741 -15.88297026 -10.35201177 0 0 Z " fill="#FEFEFE" transform="translate(268.705322265625,214.285400390625)"/>
<path d="M0 0 C4.15625614 3.23540023 7.90488414 6.79001588 11.59765625 10.5390625 C12.25088867 11.1990625 12.90412109 11.8590625 13.57714844 12.5390625 C18.80297246 17.87629477 23.63826412 23.40127484 28.16015625 29.3515625 C28.78519043 30.16197998 28.78519043 30.16197998 29.42285156 30.98876953 C45.88362197 52.40217874 58.83755421 76.02100003 68.16015625 101.3515625 C68.40604492 102.01607422 68.65193359 102.68058594 68.90527344 103.36523438 C90.85562748 163.54865872 86.52277654 231.03075831 59.62890625 288.87890625 C48.8090261 311.47434709 35.1041422 332.40323609 17.80078125 350.5546875 C15.61824477 352.86636815 13.55549622 355.2121936 11.53515625 357.6640625 C10.75140625 358.5509375 9.96765625 359.4378125 9.16015625 360.3515625 C8.50015625 360.3515625 7.84015625 360.3515625 7.16015625 360.3515625 C7.16015625 361.0115625 7.16015625 361.6715625 7.16015625 362.3515625 C5.44496548 363.7755494 3.66136505 365.1178841 1.84765625 366.4140625 C0.86152344 367.12691406 -0.12460937 367.83976562 -1.140625 368.57421875 C-6.67334089 372.217324 -12.41679173 371.91685662 -18.83984375 371.3515625 C-25.56895494 369.5174124 -31.16718766 364.34870859 -35.83984375 359.3515625 C-35.83984375 358.6915625 -35.83984375 358.0315625 -35.83984375 357.3515625 C-36.45859375 357.1040625 -37.07734375 356.8565625 -37.71484375 356.6015625 C-40.24343002 355.11415881 -40.55823379 353.91478241 -41.83984375 351.3515625 C-42.43796875 351.0834375 -43.03609375 350.8153125 -43.65234375 350.5390625 C-48.13923011 348.10332419 -50.34343914 343.57001018 -52.21484375 338.9765625 C-53.36739955 332.29173884 -52.82230439 327.40029295 -49.15234375 321.6015625 C-46.45566275 317.88399512 -43.43843634 315.21574844 -39.83984375 312.3515625 C-37.35940337 309.80702805 -35.1061149 307.08700623 -32.83984375 304.3515625 C-32.16961182 303.54984619 -32.16961182 303.54984619 -31.48583984 302.73193359 C-24.50062995 294.34368187 -18.22288941 285.8813039 -12.83984375 276.3515625 C-12.48857422 275.74715332 -12.13730469 275.14274414 -11.77539062 274.52001953 C4.09847043 247.07671741 12.64003015 215.90837739 12.47265625 184.2265625 C12.46992203 183.14589508 12.46992203 183.14589508 12.46713257 182.043396 C12.41716533 170.26773041 11.70836395 158.87367487 9.16015625 147.3515625 C8.99386719 146.57780273 8.82757812 145.80404297 8.65625 145.00683594 C0.95204874 110.20952692 -17.29262834 78.29501084 -42.77734375 53.4765625 C-48.29671592 48.03592603 -52.26712709 43.37213799 -52.8671875 35.38671875 C-52.71780358 24.26828676 -45.20004438 17.4965264 -37.79296875 10.0390625 C-35.83984375 8.3515625 -35.83984375 8.3515625 -33.83984375 8.3515625 C-33.58203125 7.75472656 -33.32421875 7.15789062 -33.05859375 6.54296875 C-30.14261336 1.29981171 -24.47204748 -1.69398823 -18.96484375 -3.6484375 C-11.77207842 -5.49075623 -5.96728521 -4.33005694 0 0 Z " fill="#FEFEFE" transform="translate(657.83984375,327.6484375)"/>
<path d="M0 0 C1.64076833 1.4170272 3.23738366 2.88533718 4.8125 4.375 C5.43415039 4.95717285 6.05580078 5.5393457 6.69628906 6.13916016 C8.85797392 8.17828566 10.99511799 10.24019528 13.125 12.3125 C13.81940186 12.98039551 14.51380371 13.64829102 15.22924805 14.33642578 C21.25911848 20.34944277 25.36950071 26.4934833 25.88671875 35.16796875 C25.54242159 45.40627892 16.99459975 52.34446687 10.10131836 59.03613281 C5.94150301 63.09365294 2.32251134 67.32501802 -1.125 72 C-1.64223633 72.69802734 -2.15947266 73.39605469 -2.69238281 74.11523438 C-10.81460516 85.20431703 -17.32838318 96.96506508 -23.1875 109.375 C-23.72375 110.50550781 -24.26 111.63601563 -24.8125 112.80078125 C-43.83760346 154.96318502 -43.98281186 203.43408227 -28.3359375 246.61328125 C-18.47788588 272.65923894 -3.64283859 296.09337085 16.75366211 315.15527344 C22.09672809 320.2675394 25.39153122 325.6627899 25.91015625 333.11328125 C25.58743614 340.58747907 21.13382153 346.68934984 16.28125 352.07421875 C14.8125 353.375 14.8125 353.375 12.8125 353.375 C12.4825 354.365 12.1525 355.355 11.8125 356.375 C11.1525 356.375 10.4925 356.375 9.8125 356.375 C9.8125 357.035 9.8125 357.695 9.8125 358.375 C3.21518468 365.17794593 -4.15094162 371.4509352 -13.875 371.6875 C-27.34961436 371.4457306 -35.48342348 361.27683351 -44.33984375 352.15625 C-88.37824594 305.92331316 -110.2981365 242.29013511 -109.4375 179.0234375 C-108.53033825 142.98190109 -99.2516621 106.6684235 -83.1875 74.375 C-82.88166992 73.75238281 -82.57583984 73.12976563 -82.26074219 72.48828125 C-72.48836277 52.79905218 -60.11762626 34.75737593 -45.23046875 18.60546875 C-43.34711002 16.54925874 -41.54667369 14.44421774 -39.75 12.3125 C-29.50027322 0.58490563 -15.2678741 -11.19448734 0 0 Z " fill="#FEFEFE" transform="translate(373.1875,327.625)"/>
<path d="M0 0 C15.04526537 13.17032349 26.77004962 32.95145069 28.30200195 53.14575195 C28.95674945 78.84263473 22.77835036 100.43640466 4.75 119.5625 C-11.06756535 134.49143808 -30.9305131 141.49826597 -52.41455078 141.28759766 C-74.05634664 140.52948559 -95.00403975 131.49095395 -109.9296875 115.62890625 C-125.56487627 96.26945577 -132.2409339 74.5932148 -129.65673828 49.7109375 C-126.62777507 29.01390944 -115.09018096 10.13308751 -98.5625 -2.5 C-67.69526247 -23.55977482 -29.65063953 -22.60703099 0 0 Z " fill="#FEFEFE" transform="translate(552.875,450.1875)"/>
<path d="" fill="#FFFFFF" transform="translate(0,0)"/>
<path d="" fill="#FFFFFF" transform="translate(0,0)"/>
<path d="" fill="#FFFFFF" transform="translate(0,0)"/>
<path d="" fill="#FFFFFF" transform="translate(0,0)"/>
<path d="" fill="#FFFFFF" transform="translate(0,0)"/>
<path d="" fill="#FFFFFF" transform="translate(0,0)"/>
<path d="" fill="#FFFFFF" transform="translate(0,0)"/>
<path d="" fill="#FFFFFF" transform="translate(0,0)"/>
<path d="" fill="#FFFFFF" transform="translate(0,0)"/>
<path d="" fill="#FFFFFF" transform="translate(0,0)"/>
<path d="" fill="#FFFFFF" transform="translate(0,0)"/>
<path d="" fill="#FFFFFF" transform="translate(0,0)"/>
<path d="" fill="#FFFFFF" transform="translate(0,0)"/>
<path d="" fill="#FFFFFF" transform="translate(0,0)"/>
<path d="" fill="#FFFFFF" transform="translate(0,0)"/>
<path d="" fill="#FFFFFF" transform="translate(0,0)"/>
<path d="" fill="#FFFFFF" transform="translate(0,0)"/>
<path d="" fill="#FFFFFF" transform="translate(0,0)"/>
<path d="" fill="#FFFFFF" transform="translate(0,0)"/>
<path d="" fill="#FFFFFF" transform="translate(0,0)"/>
<path d="" fill="#FFFFFF" transform="translate(0,0)"/>
<path d="" fill="#FFFFFF" transform="translate(0,0)"/>
<path d="" fill="#FFFFFF" transform="translate(0,0)"/>
<path d="" fill="#FFFFFF" transform="translate(0,0)"/>
<path d="" fill="#FFFFFF" transform="translate(0,0)"/>
<path d="" fill="#FFFFFF" transform="translate(0,0)"/>
<path d="" fill="#FFFFFF" transform="translate(0,0)"/>
<path d="" fill="#FFFFFF" transform="translate(0,0)"/>
<path d="" fill="#FFFFFF" transform="translate(0,0)"/>
</svg>
