<?xml version="1.0" encoding="UTF-8"?>
<svg version="1.1" xmlns="http://www.w3.org/2000/svg" width="19" height="19">
<path d="M0 0 C6.58691335 -0.34667965 11.190158 0.23322379 16.68359375 4.22265625 C18.61942377 6.83631399 18.32724264 8.91943056 18.25 12.125 C18.23453125 13.20007813 18.2190625 14.27515625 18.203125 15.3828125 C18 18 18 18 17 19 C14.13732433 19.07325168 11.299281 19.09238205 8.4375 19.0625 C7.63119141 19.05798828 6.82488281 19.05347656 5.99414062 19.04882812 C3.99606244 19.03700518 1.99802217 19.01906914 0 19 C-0.76443715 16.0932325 -1.16170668 13.51265926 -1.1875 10.5 C-1.20167969 9.7471875 -1.21585937 8.994375 -1.23046875 8.21875 C-0.97437149 5.75327128 -0.10108717 4.19288246 1 2 C0.67 1.34 0.34 0.68 0 0 Z " fill="#F3C867" transform="translate(1,0)"/>
<path d="M0 0 C6.43014706 0.48529412 6.43014706 0.48529412 8.9375 2.75 C10.20204569 5.42786146 10.37562827 7.07009953 10 10 C9.01 11.485 9.01 11.485 8 13 C6.0546875 13.29296875 6.0546875 13.29296875 3.875 13.1875 C1.956875 13.0946875 1.956875 13.0946875 0 13 C0 8.71 0 4.42 0 0 Z " fill="#265466" transform="translate(8,3)"/>
<path d="M0 0 C0.66 0.33 1.32 0.66 2 1 C2.60613909 4.98565046 2.74564735 8.97274969 3 13 C6.96 13.33 10.92 13.66 15 14 C15 14.33 15 14.66 15 15 C9.39 15 3.78 15 -2 15 C-3.02394505 8.85632972 -3.49678667 5.45498721 0 0 Z " fill="#8B7D4B" transform="translate(3,4)"/>
<path d="M0 0 C1.65 0 3.3 0 5 0 C5 5.61 5 11.22 5 17 C4.67 17 4.34 17 4 17 C3.67 13.04 3.34 9.08 3 5 C1.68 6.65 0.36 8.3 -1 10 C-0.835 9.071875 -0.67 8.14375 -0.5 7.1875 C0.07748388 4.04378647 0.07748388 4.04378647 0 1 C0 0.67 0 0.34 0 0 Z " fill="#C9A554" transform="translate(1,0)"/>
<path d="M0 0 C3.375 0.25 3.375 0.25 7 1 C7.66 2.32 8.32 3.64 9 5 C6.03 5 3.06 5 0 5 C0 3.35 0 1.7 0 0 Z " fill="#61808B" transform="translate(8,3)"/>
<path d="M0 0 C0.33 0 0.66 0 1 0 C1 2.64 1 5.28 1 8 C-3.29 8 -7.58 8 -12 8 C-10 6 -10 6 -8.0546875 5.8046875 C-6.03645833 5.86979167 -4.01822917 5.93489583 -2 6 C-1.34 4.02 -0.68 2.04 0 0 Z " fill="#CDAA57" transform="translate(18,10)"/>
<path d="M0 0 C2.64 0 5.28 0 8 0 C7.67 1.32 7.34 2.64 7 4 C4.69 4 2.38 4 0 4 C0 2.68 0 1.36 0 0 Z " fill="#173C4E" transform="translate(9,12)"/>
</svg>
