<?xml version="1.0" encoding="UTF-8"?>
<svg xmlns="http://www.w3.org/2000/svg" xmlns:xlink="http://www.w3.org/1999/xlink" width="24px" height="24px" viewBox="0 0 24 24" version="1.1">
<g id="surface1">
<path style=" stroke:none;fill-rule:nonzero;fill:rgb(2.745098%,2.745098%,2.745098%);fill-opacity:1;" d="M 12.238281 3.023438 C 12.4375 3.117188 12.601562 3.253906 12.769531 3.394531 C 12.984375 3.5625 13.160156 3.675781 13.441406 3.648438 C 13.625 3.605469 13.800781 3.554688 13.984375 3.5 C 14.199219 3.445312 14.386719 3.425781 14.601562 3.484375 C 14.730469 3.585938 14.796875 3.710938 14.878906 3.851562 C 14.976562 4.015625 15.074219 4.175781 15.179688 4.335938 C 15.265625 4.464844 15.265625 4.464844 15.265625 4.558594 C 15.492188 4.625 15.695312 4.660156 15.933594 4.675781 C 16.195312 4.691406 16.4375 4.742188 16.65625 4.894531 C 16.738281 5.035156 16.769531 5.152344 16.789062 5.308594 C 16.792969 5.351562 16.800781 5.394531 16.804688 5.4375 C 16.816406 5.523438 16.828125 5.613281 16.835938 5.699219 C 16.84375 5.742188 16.847656 5.78125 16.855469 5.824219 C 16.859375 5.863281 16.863281 5.902344 16.867188 5.941406 C 16.902344 6.066406 16.960938 6.140625 17.039062 6.238281 C 17.039062 6.273438 17.039062 6.304688 17.039062 6.335938 C 17.074219 6.347656 17.109375 6.363281 17.144531 6.378906 C 17.800781 6.644531 17.800781 6.644531 18 6.910156 C 18.09375 7.238281 18.007812 7.558594 17.902344 7.871094 C 17.882812 8.160156 17.882812 8.421875 18 8.6875 C 18.03125 8.6875 18.0625 8.6875 18.097656 8.6875 C 18.320312 8.933594 18.535156 9.199219 18.546875 9.542969 C 18.511719 9.746094 18.402344 9.910156 18.289062 10.078125 C 18.257812 10.128906 18.226562 10.175781 18.191406 10.222656 C 18.160156 10.222656 18.128906 10.222656 18.097656 10.222656 C 18.097656 10.253906 18.097656 10.289062 18.097656 10.320312 C 18.0625 10.320312 18.03125 10.320312 18 10.320312 C 17.871094 10.617188 17.847656 10.964844 17.953125 11.273438 C 18.007812 11.445312 18.019531 11.585938 18.019531 11.761719 C 18.023438 11.820312 18.023438 11.878906 18.027344 11.9375 C 17.992188 12.144531 17.925781 12.203125 17.761719 12.335938 C 17.621094 12.417969 17.476562 12.496094 17.332031 12.570312 C 17.117188 12.683594 17.003906 12.789062 16.894531 13.007812 C 16.851562 13.210938 16.835938 13.414062 16.816406 13.621094 C 16.789062 13.835938 16.773438 13.941406 16.632812 14.113281 C 16.449219 14.253906 16.355469 14.261719 16.128906 14.257812 C 16.140625 14.296875 16.15625 14.335938 16.167969 14.378906 C 16.1875 14.4375 16.207031 14.492188 16.226562 14.554688 C 16.238281 14.585938 16.25 14.617188 16.257812 14.648438 C 16.324219 14.84375 16.386719 15.035156 16.453125 15.230469 C 16.464844 15.273438 16.480469 15.320312 16.496094 15.363281 C 16.523438 15.449219 16.550781 15.535156 16.578125 15.621094 C 16.660156 15.863281 16.75 16.105469 16.847656 16.34375 C 16.929688 16.550781 17 16.761719 17.074219 16.972656 C 17.210938 17.367188 17.351562 17.761719 17.492188 18.15625 C 17.707031 18.742188 17.902344 19.332031 18.097656 19.925781 C 18.160156 20.117188 18.222656 20.304688 18.289062 20.496094 C 18.101562 20.457031 18.019531 20.390625 17.882812 20.257812 C 17.664062 20.054688 17.433594 19.871094 17.191406 19.691406 C 17.121094 19.644531 17.058594 19.589844 16.992188 19.535156 C 16.992188 19.503906 16.992188 19.472656 16.992188 19.441406 C 16.964844 19.429688 16.941406 19.417969 16.914062 19.40625 C 16.761719 19.324219 16.636719 19.210938 16.503906 19.09375 C 16.101562 18.726562 16.101562 18.726562 15.648438 18.433594 C 15.632812 18.472656 15.621094 18.515625 15.609375 18.558594 C 15.554688 18.710938 15.496094 18.851562 15.429688 18.992188 C 15.40625 19.046875 15.382812 19.097656 15.359375 19.148438 C 15.332031 19.203125 15.308594 19.257812 15.28125 19.3125 C 15.257812 19.371094 15.230469 19.425781 15.203125 19.484375 C 15.03125 19.851562 14.855469 20.21875 14.667969 20.578125 C 14.589844 20.742188 14.519531 20.90625 14.449219 21.070312 C 14.402344 21.054688 14.351562 21.039062 14.304688 21.023438 C 14.257812 20.910156 14.21875 20.804688 14.183594 20.691406 C 14.171875 20.65625 14.164062 20.621094 14.152344 20.585938 C 14.125 20.507812 14.101562 20.433594 14.078125 20.355469 C 14.015625 20.15625 13.953125 19.953125 13.886719 19.75 C 13.875 19.707031 13.863281 19.667969 13.847656 19.625 C 13.703125 19.160156 13.542969 18.703125 13.382812 18.246094 C 13.242188 17.84375 13.109375 17.441406 12.996094 17.03125 C 12.9375 16.816406 12.859375 16.621094 12.769531 16.414062 C 12.738281 16.332031 12.710938 16.25 12.6875 16.164062 C 12.675781 16.125 12.664062 16.085938 12.652344 16.042969 C 12.625 15.9375 12.625 15.9375 12.625 15.792969 C 12.578125 15.824219 12.527344 15.851562 12.480469 15.886719 C 12.292969 15.988281 12.117188 16.054688 11.902344 16.03125 C 11.734375 15.964844 11.578125 15.882812 11.425781 15.792969 C 11.414062 15.824219 11.40625 15.855469 11.398438 15.890625 C 11.324219 16.167969 11.238281 16.441406 11.136719 16.710938 C 11.085938 16.851562 11.042969 16.988281 11 17.128906 C 10.902344 17.460938 10.792969 17.785156 10.683594 18.109375 C 10.597656 18.359375 10.519531 18.605469 10.449219 18.855469 C 10.402344 19.007812 10.335938 19.148438 10.273438 19.296875 C 10.25 19.363281 10.230469 19.433594 10.210938 19.503906 C 10.117188 19.824219 10.007812 20.136719 9.902344 20.453125 C 9.882812 20.511719 9.863281 20.574219 9.84375 20.632812 C 9.792969 20.78125 9.746094 20.925781 9.695312 21.070312 C 9.664062 21.070312 9.632812 21.070312 9.601562 21.070312 C 9.496094 20.859375 9.394531 20.644531 9.289062 20.433594 C 9.277344 20.402344 9.261719 20.371094 9.246094 20.335938 C 9.039062 19.910156 8.832031 19.480469 8.632812 19.050781 C 8.53125 18.839844 8.421875 18.636719 8.304688 18.433594 C 8.257812 18.472656 8.210938 18.515625 8.160156 18.558594 C 8.097656 18.613281 8.035156 18.664062 7.972656 18.71875 C 7.941406 18.746094 7.910156 18.773438 7.878906 18.804688 C 7.847656 18.828125 7.820312 18.855469 7.789062 18.882812 C 7.746094 18.917969 7.746094 18.917969 7.703125 18.957031 C 7.632812 19.007812 7.632812 19.007812 7.535156 19.007812 C 7.535156 19.039062 7.535156 19.070312 7.535156 19.105469 C 7.503906 19.105469 7.472656 19.105469 7.441406 19.105469 C 7.441406 19.136719 7.441406 19.167969 7.441406 19.199219 C 7.347656 19.28125 7.347656 19.28125 7.230469 19.375 C 7.171875 19.417969 7.171875 19.417969 7.113281 19.464844 C 7.007812 19.535156 7.007812 19.535156 6.910156 19.535156 C 6.910156 19.566406 6.910156 19.597656 6.910156 19.632812 C 6.828125 19.710938 6.742188 19.78125 6.652344 19.855469 C 6.605469 19.894531 6.558594 19.933594 6.507812 19.972656 C 6.382812 20.0625 6.382812 20.0625 6.289062 20.0625 C 6.289062 20.09375 6.289062 20.128906 6.289062 20.160156 C 6.257812 20.160156 6.226562 20.160156 6.191406 20.160156 C 6.191406 20.191406 6.191406 20.222656 6.191406 20.257812 C 6.097656 20.328125 6.097656 20.328125 5.976562 20.40625 C 5.914062 20.445312 5.914062 20.445312 5.855469 20.484375 C 5.824219 20.503906 5.792969 20.523438 5.761719 20.542969 C 5.785156 20.3125 5.835938 20.109375 5.917969 19.890625 C 5.9375 19.832031 5.960938 19.773438 5.980469 19.714844 C 6.003906 19.65625 6.027344 19.597656 6.046875 19.535156 C 6.085938 19.429688 6.125 19.320312 6.164062 19.210938 C 6.183594 19.160156 6.203125 19.105469 6.222656 19.050781 C 6.40625 18.535156 6.589844 18.023438 6.757812 17.503906 C 6.769531 17.464844 6.78125 17.429688 6.792969 17.390625 C 6.804688 17.359375 6.8125 17.328125 6.824219 17.292969 C 6.859375 17.203125 6.894531 17.113281 6.933594 17.023438 C 7.003906 16.859375 7.0625 16.691406 7.117188 16.523438 C 7.132812 16.476562 7.132812 16.476562 7.148438 16.429688 C 7.191406 16.304688 7.230469 16.179688 7.273438 16.050781 C 7.398438 15.671875 7.527344 15.296875 7.671875 14.925781 C 7.757812 14.703125 7.839844 14.480469 7.921875 14.257812 C 7.871094 14.261719 7.820312 14.265625 7.765625 14.269531 C 7.554688 14.253906 7.488281 14.214844 7.34375 14.0625 C 7.261719 13.925781 7.230469 13.808594 7.214844 13.652344 C 7.207031 13.589844 7.207031 13.589844 7.199219 13.527344 C 7.191406 13.4375 7.179688 13.351562 7.171875 13.265625 C 7.144531 13.0625 7.125 12.941406 7 12.773438 C 6.820312 12.640625 6.632812 12.535156 6.4375 12.433594 C 6.246094 12.332031 6.113281 12.234375 6 12.046875 C 5.9375 11.726562 6.019531 11.417969 6.109375 11.113281 C 6.175781 10.875 6.171875 10.71875 6.070312 10.492188 C 5.957031 10.316406 5.824219 10.148438 5.691406 9.984375 C 5.527344 9.777344 5.492188 9.65625 5.496094 9.394531 C 5.535156 9.171875 5.65625 8.996094 5.808594 8.832031 C 5.839844 8.832031 5.871094 8.832031 5.902344 8.832031 C 5.917969 8.804688 5.929688 8.78125 5.941406 8.753906 C 5.984375 8.667969 6.03125 8.585938 6.078125 8.503906 C 6.191406 8.238281 6.152344 8.03125 6.070312 7.765625 C 5.976562 7.433594 5.917969 7.117188 6.082031 6.804688 C 6.269531 6.613281 6.691406 6.335938 6.960938 6.335938 C 6.960938 6.304688 6.960938 6.273438 6.960938 6.238281 C 6.992188 6.238281 7.023438 6.238281 7.054688 6.238281 C 7.144531 5.964844 7.179688 5.699219 7.207031 5.414062 C 7.226562 5.207031 7.265625 5.058594 7.390625 4.894531 C 7.421875 4.894531 7.457031 4.894531 7.488281 4.894531 C 7.488281 4.863281 7.488281 4.832031 7.488281 4.800781 C 7.765625 4.710938 8.027344 4.675781 8.3125 4.660156 C 8.488281 4.640625 8.585938 4.613281 8.722656 4.503906 C 8.863281 4.328125 8.964844 4.140625 9.070312 3.941406 C 9.191406 3.714844 9.324219 3.570312 9.550781 3.457031 C 9.796875 3.441406 9.984375 3.476562 10.21875 3.554688 C 10.605469 3.675781 10.605469 3.675781 10.992188 3.601562 C 11.214844 3.457031 11.414062 3.289062 11.617188 3.121094 C 11.820312 2.984375 11.996094 2.984375 12.238281 3.023438 Z M 11.089844 5.039062 C 10.992188 5.054688 10.894531 5.070312 10.800781 5.089844 C 10.113281 5.277344 9.566406 5.601562 9.023438 6.046875 C 8.964844 6.097656 8.964844 6.097656 8.90625 6.144531 C 8.734375 6.292969 8.578125 6.4375 8.449219 6.625 C 8.449219 6.65625 8.449219 6.6875 8.449219 6.71875 C 8.417969 6.71875 8.382812 6.71875 8.351562 6.71875 C 7.628906 7.726562 7.300781 8.925781 7.457031 10.15625 C 7.597656 11.019531 7.972656 11.863281 8.542969 12.527344 C 8.574219 12.527344 8.605469 12.527344 8.640625 12.527344 C 8.652344 12.558594 8.664062 12.589844 8.679688 12.621094 C 8.730469 12.734375 8.730469 12.734375 8.878906 12.769531 C 8.878906 12.800781 8.878906 12.832031 8.878906 12.863281 C 8.910156 12.863281 8.945312 12.863281 8.976562 12.863281 C 8.976562 12.894531 8.976562 12.925781 8.976562 12.960938 C 9.074219 13.039062 9.167969 13.113281 9.269531 13.183594 C 9.316406 13.21875 9.316406 13.21875 9.363281 13.25 C 9.664062 13.460938 9.980469 13.625 10.320312 13.777344 C 10.363281 13.796875 10.410156 13.816406 10.453125 13.835938 C 11.566406 14.285156 12.886719 14.101562 13.96875 13.679688 C 13.96875 13.648438 13.96875 13.617188 13.96875 13.585938 C 14.007812 13.578125 14.007812 13.578125 14.046875 13.570312 C 14.359375 13.480469 14.695312 13.28125 14.929688 13.054688 C 14.929688 13.023438 14.929688 12.992188 14.929688 12.960938 C 14.96875 12.941406 14.96875 12.941406 15.011719 12.921875 C 15.746094 12.519531 16.230469 11.480469 16.464844 10.703125 C 16.773438 9.460938 16.550781 8.25 15.945312 7.136719 C 15.761719 6.839844 15.550781 6.542969 15.3125 6.289062 C 15.28125 6.289062 15.25 6.289062 15.214844 6.289062 C 15.214844 6.257812 15.214844 6.226562 15.214844 6.191406 C 15.121094 6.105469 15.121094 6.105469 15.007812 6.019531 C 14.96875 5.988281 14.929688 5.957031 14.886719 5.925781 C 14.792969 5.847656 14.792969 5.847656 14.6875 5.855469 C 14.6875 5.824219 14.6875 5.792969 14.6875 5.761719 C 13.929688 5.179688 12.925781 4.925781 11.988281 4.933594 C 11.9375 4.929688 11.886719 4.929688 11.835938 4.929688 C 11.570312 4.929688 11.34375 4.953125 11.089844 5.039062 Z M 11.089844 5.039062 "/>
<path style=" stroke:none;fill-rule:nonzero;fill:rgb(1.960784%,1.960784%,1.960784%);fill-opacity:1;" d="M 11.84375 5.226562 C 13.136719 5.195312 14.160156 5.660156 15.109375 6.519531 C 15.21875 6.628906 15.316406 6.738281 15.40625 6.863281 C 15.40625 6.894531 15.40625 6.925781 15.40625 6.960938 C 15.441406 6.960938 15.472656 6.960938 15.503906 6.960938 C 15.550781 7.101562 15.550781 7.101562 15.601562 7.246094 C 15.632812 7.246094 15.664062 7.246094 15.695312 7.246094 C 16.0625 7.996094 16.28125 8.667969 16.277344 9.503906 C 16.277344 9.542969 16.277344 9.585938 16.277344 9.625 C 16.277344 10.054688 16.234375 10.4375 16.09375 10.84375 C 16.078125 10.882812 16.066406 10.917969 16.054688 10.957031 C 15.957031 11.238281 15.84375 11.503906 15.695312 11.761719 C 15.664062 11.761719 15.632812 11.761719 15.601562 11.761719 C 15.585938 11.796875 15.574219 11.828125 15.5625 11.867188 C 15.40625 12.222656 15.105469 12.503906 14.824219 12.769531 C 14.800781 12.789062 14.777344 12.8125 14.753906 12.835938 C 14.597656 12.976562 14.460938 13.050781 14.257812 13.105469 C 14.257812 13.136719 14.257812 13.167969 14.257812 13.199219 C 13.144531 13.753906 11.972656 13.964844 10.753906 13.632812 C 10.550781 13.566406 10.363281 13.484375 10.175781 13.390625 C 10.132812 13.371094 10.09375 13.351562 10.046875 13.332031 C 9.507812 13.0625 8.898438 12.628906 8.59375 12.097656 C 8.59375 12.0625 8.59375 12.03125 8.59375 12 C 8.558594 12 8.527344 12 8.496094 12 C 8.433594 11.894531 8.375 11.789062 8.3125 11.683594 C 8.296875 11.65625 8.277344 11.625 8.261719 11.597656 C 7.726562 10.667969 7.578125 9.476562 7.847656 8.4375 C 8.039062 7.75 8.34375 7.148438 8.832031 6.625 C 8.871094 6.582031 8.910156 6.539062 8.949219 6.496094 C 9.21875 6.210938 9.5 6 9.839844 5.808594 C 9.890625 5.777344 9.945312 5.75 9.996094 5.71875 C 10.585938 5.40625 11.175781 5.257812 11.84375 5.226562 Z M 12 7.871094 C 11.960938 7.972656 11.925781 8.070312 11.890625 8.171875 C 11.867188 8.226562 11.847656 8.285156 11.828125 8.339844 C 11.742188 8.597656 11.679688 8.859375 11.617188 9.121094 C 11.1875 9.121094 10.761719 9.121094 10.320312 9.121094 C 10.320312 9.152344 10.320312 9.183594 10.320312 9.214844 C 10.386719 9.261719 10.453125 9.308594 10.523438 9.351562 C 10.609375 9.410156 10.695312 9.46875 10.78125 9.53125 C 10.8125 9.554688 10.84375 9.574219 10.871094 9.59375 C 10.917969 9.628906 10.917969 9.628906 10.960938 9.660156 C 10.992188 9.683594 11.023438 9.703125 11.054688 9.726562 C 11.128906 9.78125 11.207031 9.835938 11.28125 9.886719 C 11.222656 10.21875 11.136719 10.535156 11.035156 10.855469 C 11 10.964844 10.96875 11.070312 10.945312 11.183594 C 10.96875 11.136719 10.96875 11.136719 10.992188 11.089844 C 11.027344 11.074219 11.0625 11.0625 11.097656 11.046875 C 11.261719 10.980469 11.386719 10.882812 11.53125 10.773438 C 11.558594 10.753906 11.582031 10.734375 11.609375 10.714844 C 11.738281 10.617188 11.738281 10.617188 11.855469 10.511719 C 12.039062 10.488281 12.125 10.5 12.285156 10.601562 C 12.332031 10.636719 12.378906 10.675781 12.429688 10.714844 C 12.632812 10.875 12.828125 11.015625 13.054688 11.136719 C 13.003906 10.804688 12.910156 10.492188 12.800781 10.175781 C 12.71875 9.945312 12.71875 9.945312 12.71875 9.839844 C 12.753906 9.828125 12.785156 9.816406 12.820312 9.808594 C 12.992188 9.730469 13.132812 9.625 13.277344 9.507812 C 13.320312 9.476562 13.320312 9.476562 13.359375 9.441406 C 13.492188 9.339844 13.609375 9.238281 13.726562 9.121094 C 13.300781 9.105469 12.871094 9.089844 12.433594 9.070312 C 12.296875 8.671875 12.164062 8.277344 12.046875 7.871094 C 12.03125 7.871094 12.015625 7.871094 12 7.871094 Z M 12 7.871094 "/>
<path style=" stroke:none;fill-rule:nonzero;fill:rgb(11.372549%,11.372549%,11.372549%);fill-opacity:1;" d="M 14.929688 8.640625 C 14.929688 8.671875 14.929688 8.703125 14.929688 8.734375 C 14.960938 8.734375 14.992188 8.734375 15.023438 8.734375 C 15.023438 8.769531 15.023438 8.800781 15.023438 8.832031 C 15.054688 8.847656 15.085938 8.863281 15.117188 8.878906 C 15.214844 8.929688 15.214844 8.929688 15.265625 8.976562 C 15.265625 9.050781 15.269531 9.121094 15.265625 9.195312 C 15.265625 9.234375 15.265625 9.273438 15.265625 9.316406 C 15.265625 9.347656 15.265625 9.375 15.265625 9.40625 C 15.214844 9.40625 15.167969 9.40625 15.121094 9.40625 C 15.121094 9.375 15.121094 9.34375 15.121094 9.3125 C 15.074219 9.335938 15.074219 9.335938 15.023438 9.359375 C 14.867188 9.375 14.765625 9.375 14.621094 9.304688 C 14.542969 9.214844 14.542969 9.214844 14.519531 9.078125 C 14.550781 8.898438 14.609375 8.820312 14.734375 8.6875 C 14.832031 8.640625 14.832031 8.640625 14.929688 8.640625 Z M 14.929688 8.640625 "/>
<path style=" stroke:none;fill-rule:nonzero;fill:rgb(12.941177%,12.941177%,12.941177%);fill-opacity:1;" d="M 7.296875 16.03125 C 7.3125 16.078125 7.328125 16.128906 7.34375 16.175781 C 7.390625 16.183594 7.433594 16.1875 7.480469 16.195312 C 7.632812 16.222656 7.632812 16.222656 7.726562 16.320312 C 7.742188 16.484375 7.742188 16.484375 7.726562 16.65625 C 7.660156 16.738281 7.660156 16.738281 7.585938 16.800781 C 7.550781 16.902344 7.550781 16.902344 7.535156 16.992188 C 7.488281 16.976562 7.441406 16.960938 7.390625 16.945312 C 7.390625 16.914062 7.390625 16.878906 7.390625 16.847656 C 7.34375 16.835938 7.300781 16.820312 7.25 16.804688 C 7.105469 16.753906 7.105469 16.753906 7.054688 16.65625 C 7.089844 16.546875 7.132812 16.441406 7.171875 16.339844 C 7.195312 16.28125 7.21875 16.222656 7.242188 16.164062 C 7.257812 16.121094 7.277344 16.078125 7.296875 16.03125 Z M 7.296875 16.03125 "/>
<path style=" stroke:none;fill-rule:nonzero;fill:rgb(8.235294%,8.235294%,8.235294%);fill-opacity:1;" d="M 9.839844 13.535156 C 10.078125 13.632812 10.320312 13.726562 10.558594 13.824219 C 10.222656 14.160156 10.222656 14.160156 10.058594 14.175781 C 9.886719 14.160156 9.886719 14.160156 9.796875 14.109375 C 9.714844 13.964844 9.730469 13.84375 9.742188 13.679688 C 9.777344 13.632812 9.808594 13.585938 9.839844 13.535156 Z M 9.839844 13.535156 "/>
<path style=" stroke:none;fill-rule:nonzero;fill:rgb(12.941177%,12.941177%,12.941177%);fill-opacity:1;" d="M 8.351562 15.070312 C 8.398438 15.070312 8.445312 15.070312 8.496094 15.070312 C 8.441406 15.191406 8.398438 15.265625 8.304688 15.359375 C 8.296875 15.484375 8.296875 15.484375 8.304688 15.601562 C 8.382812 15.617188 8.460938 15.632812 8.542969 15.648438 C 8.582031 15.507812 8.601562 15.433594 8.546875 15.296875 C 8.53125 15.269531 8.511719 15.242188 8.496094 15.214844 C 8.621094 15.234375 8.679688 15.253906 8.773438 15.34375 C 8.847656 15.484375 8.84375 15.585938 8.832031 15.742188 C 8.652344 15.785156 8.488281 15.8125 8.304688 15.792969 C 8.191406 15.714844 8.191406 15.714844 8.113281 15.601562 C 8.101562 15.445312 8.101562 15.445312 8.113281 15.3125 C 8.144531 15.3125 8.175781 15.3125 8.207031 15.3125 C 8.230469 15.265625 8.230469 15.265625 8.253906 15.21875 C 8.304688 15.121094 8.304688 15.121094 8.351562 15.070312 Z M 8.351562 15.070312 "/>
<path style=" stroke:none;fill-rule:nonzero;fill:rgb(12.54902%,12.54902%,12.54902%);fill-opacity:1;" d="M 14.207031 9.214844 C 14.355469 9.195312 14.457031 9.1875 14.578125 9.277344 C 14.652344 9.351562 14.722656 9.417969 14.785156 9.503906 C 14.785156 9.535156 14.785156 9.566406 14.785156 9.601562 C 14.667969 9.5625 14.667969 9.5625 14.542969 9.503906 C 14.527344 9.457031 14.511719 9.410156 14.496094 9.359375 C 14.417969 9.375 14.335938 9.390625 14.257812 9.40625 C 14.238281 9.546875 14.238281 9.546875 14.257812 9.695312 C 14.347656 9.777344 14.347656 9.777344 14.449219 9.839844 C 14.449219 9.886719 14.449219 9.933594 14.449219 9.984375 C 14.402344 9.984375 14.351562 9.984375 14.304688 9.984375 C 14.304688 9.953125 14.304688 9.921875 14.304688 9.886719 C 14.273438 9.886719 14.242188 9.886719 14.207031 9.886719 C 14.078125 9.761719 14.0625 9.699219 14.054688 9.515625 C 14.058594 9.464844 14.0625 9.414062 14.0625 9.359375 C 14.113281 9.34375 14.160156 9.328125 14.207031 9.3125 C 14.207031 9.28125 14.207031 9.25 14.207031 9.214844 Z M 14.207031 9.214844 "/>
<path style=" stroke:none;fill-rule:nonzero;fill:rgb(16.078432%,16.078432%,16.078432%);fill-opacity:1;" d="M 15.792969 7.535156 C 15.90625 7.648438 15.9375 7.746094 15.988281 7.894531 C 16.007812 7.941406 16.023438 7.988281 16.042969 8.039062 C 16.078125 8.160156 16.078125 8.160156 16.078125 8.257812 C 15.941406 8.242188 15.941406 8.242188 15.792969 8.207031 C 15.671875 8.03125 15.679688 7.9375 15.695312 7.726562 C 15.742188 7.609375 15.742188 7.609375 15.792969 7.535156 Z M 15.792969 7.535156 "/>
<path style=" stroke:none;fill-rule:nonzero;fill:rgb(19.607843%,19.607843%,19.607843%);fill-opacity:1;" d="M 16.65625 7.152344 C 16.65625 7.214844 16.65625 7.277344 16.65625 7.34375 C 16.511719 7.320312 16.511719 7.320312 16.367188 7.296875 C 16.351562 7.421875 16.335938 7.550781 16.320312 7.679688 C 16.460938 7.703125 16.460938 7.703125 16.609375 7.726562 C 16.609375 7.742188 16.609375 7.757812 16.609375 7.777344 C 16.527344 7.792969 16.449219 7.808594 16.367188 7.824219 C 16.367188 7.902344 16.367188 7.980469 16.367188 8.0625 C 16.253906 7.949219 16.222656 7.851562 16.171875 7.699219 C 16.152344 7.648438 16.136719 7.601562 16.117188 7.550781 C 16.105469 7.515625 16.09375 7.476562 16.078125 7.441406 C 16.113281 7.441406 16.144531 7.441406 16.175781 7.441406 C 16.191406 7.359375 16.207031 7.28125 16.222656 7.199219 C 16.378906 7.148438 16.496094 7.148438 16.65625 7.152344 Z M 16.65625 7.152344 "/>
<path style=" stroke:none;fill-rule:nonzero;fill:rgb(13.725491%,13.725491%,13.725491%);fill-opacity:1;" d="M 9.695312 14.0625 C 9.695312 14.09375 9.695312 14.128906 9.695312 14.160156 C 9.601562 14.191406 9.507812 14.222656 9.40625 14.257812 C 9.433594 14.359375 9.457031 14.449219 9.503906 14.542969 C 9.566406 14.542969 9.628906 14.542969 9.695312 14.542969 C 9.726562 14.449219 9.757812 14.355469 9.792969 14.257812 C 9.808594 14.257812 9.824219 14.257812 9.839844 14.257812 C 9.847656 14.394531 9.847656 14.394531 9.839844 14.542969 C 9.742188 14.640625 9.742188 14.640625 9.554688 14.65625 C 9.414062 14.652344 9.375 14.652344 9.261719 14.5625 C 9.199219 14.40625 9.210938 14.316406 9.265625 14.160156 C 9.402344 14.050781 9.527344 14.054688 9.695312 14.0625 Z M 9.695312 14.0625 "/>
<path style=" stroke:none;fill-rule:nonzero;fill:rgb(13.725491%,13.725491%,13.725491%);fill-opacity:1;" d="M 8.113281 15.695312 C 8.246094 15.8125 8.246094 15.8125 8.351562 15.9375 C 8.351562 15.96875 8.351562 16 8.351562 16.03125 C 8.304688 16.03125 8.257812 16.03125 8.207031 16.03125 C 8.1875 16 8.164062 15.96875 8.140625 15.9375 C 8.117188 15.90625 8.089844 15.871094 8.0625 15.839844 C 7.9375 15.824219 7.9375 15.824219 7.824219 15.839844 C 7.78125 15.949219 7.78125 15.949219 7.777344 16.078125 C 7.867188 16.1875 7.867188 16.1875 7.96875 16.273438 C 7.96875 16.304688 7.96875 16.335938 7.96875 16.367188 C 7.832031 16.304688 7.71875 16.253906 7.632812 16.128906 C 7.613281 15.933594 7.617188 15.863281 7.726562 15.695312 C 7.890625 15.640625 7.949219 15.640625 8.113281 15.695312 Z M 8.113281 15.695312 "/>
<path style=" stroke:none;fill-rule:nonzero;fill:rgb(9.019608%,9.019608%,9.019608%);fill-opacity:1;" d="M 9.695312 14.0625 C 9.726562 14.078125 9.757812 14.09375 9.792969 14.113281 C 9.792969 14.144531 9.792969 14.175781 9.792969 14.207031 C 9.824219 14.207031 9.855469 14.207031 9.886719 14.207031 C 9.886719 14.304688 9.886719 14.398438 9.886719 14.496094 C 9.855469 14.433594 9.824219 14.371094 9.792969 14.304688 C 9.761719 14.382812 9.730469 14.460938 9.695312 14.542969 C 9.554688 14.519531 9.554688 14.519531 9.40625 14.496094 C 9.378906 14.382812 9.378906 14.382812 9.359375 14.257812 C 9.457031 14.160156 9.457031 14.160156 9.582031 14.152344 C 9.621094 14.15625 9.65625 14.15625 9.695312 14.160156 C 9.695312 14.128906 9.695312 14.097656 9.695312 14.0625 Z M 9.695312 14.0625 "/>
<path style=" stroke:none;fill-rule:nonzero;fill:rgb(13.725491%,13.725491%,13.725491%);fill-opacity:1;" d="M 13.679688 9.742188 C 13.980469 9.722656 13.980469 9.722656 14.136719 9.820312 C 14.238281 9.984375 14.203125 10.089844 14.160156 10.273438 C 14.128906 10.273438 14.097656 10.273438 14.0625 10.273438 C 14.0625 10.304688 14.0625 10.335938 14.0625 10.367188 C 14.015625 10.367188 13.96875 10.367188 13.921875 10.367188 C 13.921875 10.320312 13.921875 10.273438 13.921875 10.222656 C 13.953125 10.222656 13.984375 10.222656 14.015625 10.222656 C 14.015625 10.097656 14.015625 9.96875 14.015625 9.839844 C 13.804688 9.902344 13.804688 9.902344 13.632812 10.03125 C 13.585938 10.015625 13.535156 10 13.488281 9.984375 C 13.503906 9.953125 13.519531 9.921875 13.535156 9.886719 C 13.566406 9.886719 13.597656 9.886719 13.632812 9.886719 C 13.648438 9.839844 13.664062 9.792969 13.679688 9.742188 Z M 13.679688 9.742188 "/>
<path style=" stroke:none;fill-rule:nonzero;fill:rgb(1.176471%,1.176471%,1.176471%);fill-opacity:1;" d="M 7.546875 16.3125 C 7.589844 16.339844 7.589844 16.339844 7.632812 16.367188 C 7.605469 16.550781 7.558594 16.660156 7.441406 16.800781 C 7.316406 16.691406 7.316406 16.691406 7.199219 16.558594 C 7.195312 16.453125 7.195312 16.453125 7.246094 16.367188 C 7.367188 16.277344 7.40625 16.257812 7.546875 16.3125 Z M 7.546875 16.3125 "/>
<path style=" stroke:none;fill-rule:nonzero;fill:rgb(13.333334%,13.333334%,13.333334%);fill-opacity:1;" d="M 14.734375 8.734375 C 14.769531 8.75 14.800781 8.769531 14.832031 8.785156 C 14.785156 8.855469 14.785156 8.855469 14.734375 8.929688 C 14.71875 9.023438 14.699219 9.121094 14.6875 9.214844 C 14.902344 9.191406 14.902344 9.191406 15.121094 9.167969 C 15.089844 9.230469 15.054688 9.292969 15.023438 9.359375 C 14.871094 9.371094 14.761719 9.371094 14.621094 9.304688 C 14.542969 9.214844 14.542969 9.214844 14.519531 9.074219 C 14.546875 8.898438 14.601562 8.847656 14.734375 8.734375 Z M 14.734375 8.734375 "/>
<path style=" stroke:none;fill-rule:nonzero;fill:rgb(1.176471%,1.176471%,1.176471%);fill-opacity:1;" d="M 14.785156 8.832031 C 14.925781 8.847656 14.96875 8.875 15.070312 8.976562 C 15.054688 9.101562 15.054688 9.101562 15.023438 9.214844 C 14.914062 9.214844 14.800781 9.214844 14.6875 9.214844 C 14.683594 9.078125 14.683594 9.078125 14.6875 8.929688 C 14.71875 8.894531 14.75 8.863281 14.785156 8.832031 Z M 14.785156 8.832031 "/>
<path style=" stroke:none;fill-rule:nonzero;fill:rgb(12.54902%,12.54902%,12.54902%);fill-opacity:1;" d="M 15.121094 8.304688 C 15.167969 8.304688 15.214844 8.304688 15.265625 8.304688 C 15.257812 8.339844 15.253906 8.375 15.25 8.410156 C 15.269531 8.597656 15.367188 8.660156 15.503906 8.785156 C 15.503906 8.816406 15.503906 8.847656 15.503906 8.878906 C 15.300781 8.855469 15.207031 8.738281 15.070312 8.59375 C 15.023438 8.609375 14.976562 8.625 14.929688 8.640625 C 14.929688 8.59375 14.929688 8.546875 14.929688 8.496094 C 14.960938 8.496094 14.992188 8.496094 15.023438 8.496094 C 15.054688 8.433594 15.085938 8.371094 15.121094 8.304688 Z M 15.121094 8.304688 "/>
<path style=" stroke:none;fill-rule:nonzero;fill:rgb(12.941177%,12.941177%,12.941177%);fill-opacity:1;" d="M 8.6875 14.734375 C 8.734375 14.734375 8.78125 14.734375 8.832031 14.734375 C 8.828125 14.769531 8.820312 14.804688 8.816406 14.839844 C 8.839844 15.03125 8.9375 15.089844 9.070312 15.214844 C 9.070312 15.246094 9.070312 15.28125 9.070312 15.3125 C 8.953125 15.273438 8.953125 15.273438 8.832031 15.214844 C 8.816406 15.167969 8.800781 15.121094 8.785156 15.070312 C 8.71875 15.070312 8.65625 15.070312 8.59375 15.070312 C 8.558594 15.070312 8.527344 15.070312 8.496094 15.070312 C 8.496094 15.023438 8.496094 14.976562 8.496094 14.929688 C 8.527344 14.929688 8.558594 14.929688 8.59375 14.929688 C 8.59375 14.894531 8.59375 14.863281 8.59375 14.832031 C 8.625 14.832031 8.65625 14.832031 8.6875 14.832031 C 8.6875 14.800781 8.6875 14.769531 8.6875 14.734375 Z M 8.6875 14.734375 "/>
<path style=" stroke:none;fill-rule:nonzero;fill:rgb(12.54902%,12.54902%,12.54902%);fill-opacity:1;" d="M 8.976562 14.449219 C 9.023438 14.449219 9.070312 14.449219 9.121094 14.449219 C 9.113281 14.492188 9.109375 14.53125 9.105469 14.578125 C 9.125 14.785156 9.207031 14.839844 9.359375 14.976562 C 9.359375 15.007812 9.359375 15.039062 9.359375 15.070312 C 9.3125 15.070312 9.265625 15.070312 9.214844 15.070312 C 9.214844 15.039062 9.214844 15.007812 9.214844 14.976562 C 9.183594 14.960938 9.15625 14.945312 9.121094 14.929688 C 9.023438 14.878906 9.023438 14.878906 8.976562 14.832031 C 8.96875 14.703125 8.972656 14.578125 8.976562 14.449219 Z M 8.976562 14.449219 "/>
<path style=" stroke:none;fill-rule:nonzero;fill:rgb(12.54902%,12.54902%,12.54902%);fill-opacity:1;" d="M 13.441406 10.078125 C 13.660156 10.09375 13.765625 10.191406 13.917969 10.335938 C 13.96875 10.414062 13.96875 10.414062 13.953125 10.523438 C 13.941406 10.550781 13.929688 10.578125 13.921875 10.609375 C 13.746094 10.441406 13.59375 10.265625 13.441406 10.078125 Z M 13.441406 10.078125 "/>
<path style=" stroke:none;fill-rule:nonzero;fill:rgb(12.941177%,12.941177%,12.941177%);fill-opacity:1;" d="M 15.40625 8.015625 C 15.457031 8.015625 15.503906 8.015625 15.550781 8.015625 C 15.546875 8.058594 15.542969 8.101562 15.539062 8.148438 C 15.554688 8.339844 15.605469 8.371094 15.742188 8.496094 C 15.742188 8.542969 15.742188 8.589844 15.742188 8.640625 C 15.582031 8.574219 15.492188 8.507812 15.40625 8.351562 C 15.398438 8.171875 15.398438 8.171875 15.40625 8.015625 Z M 15.40625 8.015625 "/>
<path style=" stroke:none;fill-rule:nonzero;fill:rgb(12.941177%,12.941177%,12.941177%);fill-opacity:1;" d="M 16.703125 7.296875 C 16.734375 7.296875 16.765625 7.296875 16.800781 7.296875 C 16.773438 7.589844 16.773438 7.589844 16.753906 7.679688 C 16.609375 7.75 16.476562 7.730469 16.320312 7.726562 C 16.304688 7.679688 16.289062 7.632812 16.273438 7.585938 C 16.316406 7.585938 16.363281 7.589844 16.410156 7.589844 C 16.566406 7.601562 16.566406 7.601562 16.65625 7.488281 C 16.6875 7.390625 16.6875 7.390625 16.703125 7.296875 Z M 16.703125 7.296875 "/>
<path style=" stroke:none;fill-rule:nonzero;fill:rgb(21.176471%,21.176471%,21.176471%);fill-opacity:1;" d="M 10.078125 13.679688 C 10.25 13.710938 10.402344 13.753906 10.558594 13.824219 C 10.332031 14.058594 10.332031 14.058594 10.222656 14.113281 C 10.191406 14.082031 10.160156 14.046875 10.128906 14.015625 C 10.160156 13.953125 10.191406 13.890625 10.222656 13.824219 C 10.175781 13.808594 10.128906 13.792969 10.078125 13.777344 C 10.078125 13.746094 10.078125 13.710938 10.078125 13.679688 Z M 10.078125 13.679688 "/>
<path style=" stroke:none;fill-rule:nonzero;fill:rgb(22.745098%,22.745098%,22.745098%);fill-opacity:1;" d="M 9.839844 13.535156 C 9.957031 13.582031 9.957031 13.582031 10.078125 13.632812 C 10.015625 13.703125 10.015625 13.703125 9.9375 13.777344 C 9.90625 13.777344 9.871094 13.777344 9.839844 13.777344 C 9.871094 13.871094 9.902344 13.964844 9.9375 14.0625 C 9.886719 14.0625 9.839844 14.0625 9.792969 14.0625 C 9.742188 14.015625 9.742188 14.015625 9.734375 13.855469 C 9.742188 13.679688 9.742188 13.679688 9.839844 13.535156 Z M 9.839844 13.535156 "/>
<path style=" stroke:none;fill-rule:nonzero;fill:rgb(7.450981%,7.450981%,7.450981%);fill-opacity:1;" d="M 16.367188 7.246094 C 16.507812 7.269531 16.554688 7.289062 16.65625 7.390625 C 16.5625 7.441406 16.5625 7.441406 16.464844 7.488281 C 16.464844 7.535156 16.464844 7.582031 16.464844 7.632812 C 16.417969 7.617188 16.367188 7.601562 16.320312 7.585938 C 16.316406 7.488281 16.316406 7.390625 16.320312 7.296875 C 16.335938 7.28125 16.351562 7.265625 16.367188 7.246094 Z M 16.367188 7.246094 "/>
<path style=" stroke:none;fill-rule:nonzero;fill:rgb(42.745098%,42.745098%,42.745098%);fill-opacity:1;" d="M 9.886719 3.457031 C 9.886719 3.472656 9.886719 3.488281 9.886719 3.503906 C 9.808594 3.523438 9.808594 3.523438 9.726562 3.546875 C 9.550781 3.585938 9.550781 3.585938 9.457031 3.695312 C 9.375 3.761719 9.296875 3.824219 9.214844 3.886719 C 9.183594 3.871094 9.152344 3.855469 9.121094 3.839844 C 9.363281 3.53125 9.480469 3.441406 9.886719 3.457031 Z M 9.886719 3.457031 "/>
<path style=" stroke:none;fill-rule:nonzero;fill:rgb(20.392157%,20.392157%,20.392157%);fill-opacity:1;" d="M 7.296875 16.03125 C 7.3125 16.078125 7.328125 16.128906 7.34375 16.175781 C 7.421875 16.191406 7.503906 16.207031 7.585938 16.222656 C 7.566406 16.253906 7.550781 16.289062 7.535156 16.320312 C 7.425781 16.355469 7.3125 16.386719 7.199219 16.414062 C 7.242188 16.140625 7.242188 16.140625 7.296875 16.03125 Z M 7.296875 16.03125 "/>
<path style=" stroke:none;fill-rule:nonzero;fill:rgb(35.294119%,35.294119%,35.294119%);fill-opacity:1;" d="M 16.222656 7.585938 C 16.253906 7.617188 16.289062 7.648438 16.320312 7.679688 C 16.414062 7.699219 16.511719 7.714844 16.609375 7.726562 C 16.609375 7.742188 16.609375 7.757812 16.609375 7.777344 C 16.527344 7.792969 16.449219 7.808594 16.367188 7.824219 C 16.367188 7.902344 16.367188 7.980469 16.367188 8.0625 C 16.238281 7.933594 16.222656 7.804688 16.175781 7.632812 C 16.191406 7.617188 16.207031 7.601562 16.222656 7.585938 Z M 16.222656 7.585938 "/>
<path style=" stroke:none;fill-rule:nonzero;fill:rgb(25.098041%,25.098041%,25.098041%);fill-opacity:1;" d="M 6.671875 17.761719 C 6.6875 17.761719 6.703125 17.761719 6.71875 17.761719 C 6.722656 17.839844 6.722656 17.914062 6.726562 17.992188 C 6.726562 18.039062 6.726562 18.082031 6.730469 18.125 C 6.71875 18.238281 6.71875 18.238281 6.625 18.335938 C 6.558594 18.121094 6.601562 17.972656 6.671875 17.761719 Z M 6.671875 17.761719 "/>
<path style=" stroke:none;fill-rule:nonzero;fill:rgb(34.117648%,34.117648%,34.117648%);fill-opacity:1;" d="M 12.238281 3.023438 C 12.238281 3.039062 12.238281 3.054688 12.238281 3.070312 C 12.210938 3.074219 12.183594 3.074219 12.152344 3.074219 C 11.898438 3.089844 11.898438 3.089844 11.683594 3.21875 C 11.664062 3.25 11.640625 3.28125 11.617188 3.3125 C 11.617188 3.28125 11.617188 3.25 11.617188 3.214844 C 11.585938 3.199219 11.550781 3.183594 11.519531 3.167969 C 11.746094 2.988281 11.964844 3.007812 12.238281 3.023438 Z M 12.238281 3.023438 "/>
<path style=" stroke:none;fill-rule:nonzero;fill:rgb(6.27451%,6.27451%,6.27451%);fill-opacity:1;" d="M 7.632812 16.128906 C 7.710938 16.207031 7.789062 16.285156 7.871094 16.367188 C 7.839844 16.367188 7.808594 16.367188 7.777344 16.367188 C 7.777344 16.464844 7.777344 16.558594 7.777344 16.65625 C 7.761719 16.65625 7.746094 16.65625 7.726562 16.65625 C 7.722656 16.605469 7.71875 16.550781 7.714844 16.496094 C 7.679688 16.328125 7.671875 16.273438 7.535156 16.175781 C 7.566406 16.160156 7.597656 16.144531 7.632812 16.128906 Z M 7.632812 16.128906 "/>
<path style=" stroke:none;fill-rule:nonzero;fill:rgb(31.764707%,31.764707%,31.764707%);fill-opacity:1;" d="M 15.9375 7.824219 C 16.039062 7.976562 16.054688 8.078125 16.078125 8.257812 C 15.9375 8.230469 15.9375 8.230469 15.792969 8.207031 C 15.855469 8.175781 15.917969 8.144531 15.984375 8.113281 C 15.96875 8.015625 15.953125 7.921875 15.9375 7.824219 Z M 15.9375 7.824219 "/>
<path style=" stroke:none;fill-rule:nonzero;fill:rgb(14.117648%,14.117648%,14.117648%);fill-opacity:1;" d="M 16.515625 7.148438 C 16.585938 7.152344 16.585938 7.152344 16.65625 7.152344 C 16.65625 7.214844 16.65625 7.277344 16.65625 7.34375 C 16.535156 7.304688 16.433594 7.257812 16.320312 7.199219 C 16.367188 7.152344 16.367188 7.152344 16.515625 7.148438 Z M 16.515625 7.148438 "/>
<path style=" stroke:none;fill-rule:nonzero;fill:rgb(3.529412%,3.529412%,3.529412%);fill-opacity:1;" d="M 9.457031 14.160156 C 9.503906 14.160156 9.550781 14.160156 9.601562 14.160156 C 9.542969 14.28125 9.480469 14.382812 9.40625 14.496094 C 9.378906 14.382812 9.378906 14.382812 9.359375 14.257812 C 9.390625 14.222656 9.421875 14.191406 9.457031 14.160156 Z M 9.457031 14.160156 "/>
<path style=" stroke:none;fill-rule:nonzero;fill:rgb(32.156864%,32.156864%,32.156864%);fill-opacity:1;" d="M 7.152344 16.414062 C 7.226562 16.503906 7.226562 16.503906 7.296875 16.609375 C 7.28125 16.65625 7.265625 16.703125 7.246094 16.753906 C 7.183594 16.753906 7.121094 16.753906 7.054688 16.753906 C 7.085938 16.640625 7.121094 16.53125 7.152344 16.414062 Z M 7.152344 16.414062 "/>
<path style=" stroke:none;fill-rule:nonzero;fill:rgb(12.941177%,12.941177%,12.941177%);fill-opacity:1;" d="M 13.679688 9.742188 C 13.710938 9.761719 13.742188 9.777344 13.777344 9.792969 C 13.738281 9.886719 13.738281 9.886719 13.679688 9.984375 C 13.578125 10.019531 13.578125 10.019531 13.488281 10.03125 C 13.503906 9.984375 13.519531 9.9375 13.535156 9.886719 C 13.566406 9.886719 13.597656 9.886719 13.632812 9.886719 C 13.648438 9.839844 13.664062 9.792969 13.679688 9.742188 Z M 13.679688 9.742188 "/>
</g>
</svg>
