<?xml version="1.0" encoding="UTF-8"?>
<svg version="1.1" xmlns="http://www.w3.org/2000/svg" width="19" height="19">
<path d="M0 0 C2.10250515 1.60750976 2.88802963 2.52868287 3.50390625 5.12109375 C3.5651169 7.54095488 3.52875121 9.63341191 3 12 C0.14896959 14.78472738 -1.54914374 15.96461326 -5.5625 16.0625 C-8.98816363 14.56926201 -10.77472712 13.01066331 -13 10 C-13.1506132 5.70752394 -12.66257079 3.77949504 -9.875 0.5 C-6.08386986 -1.47798094 -4.07202027 -1.13111674 0 0 Z M-8 6 C-7.67 7.32 -7.34 8.64 -7 10 C-6.67 8.68 -6.34 7.36 -6 6 C-6.66 6 -7.32 6 -8 6 Z M-3 8 C-2.67 8.99 -2.34 9.98 -2 11 C-1.67 10.01 -1.34 9.02 -1 8 C-1.66 8 -2.32 8 -3 8 Z " fill="#D72436" transform="translate(14,2)"/>
<path d="M0 0 C2.96175123 0.61277612 4.38058783 1.25372522 7 3 C7.5625 5.875 7.5625 5.875 7 9 C4.04337409 11.68159094 2.30523394 13.05932882 -1.75 12.875 C-4 12 -4 12 -6 10 C-3.36 9.34 -0.72 8.68 2 8 C1.67 7.236875 1.34 6.47375 1 5.6875 C0 3 0 3 0 0 Z " fill="#107AA8" transform="translate(10,5)"/>
<path d="M0 0 C6.17784711 0.33697348 6.17784711 0.33697348 8.9375 2.5625 C9.288125 3.036875 9.63875 3.51125 10 4 C9.67 4.99 9.34 5.98 9 7 C8.01 6.34 7.02 5.68 6 5 C2.92334973 5.08221709 2.92334973 5.08221709 0 6 C-0.66 6.99 -1.32 7.98 -2 9 C-2.125 5.625 -2.125 5.625 -2 2 C-1.34 1.34 -0.68 0.68 0 0 Z " fill="#EEB723" transform="translate(7,1)"/>
<path d="M0 0 C0.33 0 0.66 0 1 0 C1.144375 1.093125 1.28875 2.18625 1.4375 3.3125 C1.88288104 6.93122987 1.88288104 6.93122987 3 10 C0.03 9.505 0.03 9.505 -3 9 C-2.25 2.25 -2.25 2.25 0 0 Z " fill="#BE1B26" transform="translate(4,3)"/>
<path d="M0 0 C-1.7075159 2.06699293 -2.8872598 2.95952916 -5.4375 3.875 C-8 4 -8 4 -10.3125 2.5625 C-10.869375 2.046875 -11.42625 1.53125 -12 1 C-7.9472484 0.01751476 -4.16138263 -0.08159574 0 0 Z " fill="#0B89BD" transform="translate(16,14)"/>
</svg>
