<svg width="19" height="19" viewBox="0 0 19 19" fill="none" xmlns="http://www.w3.org/2000/svg">
<g clip-path="url(#clip0_29304_92)">
<path fill-rule="evenodd" clip-rule="evenodd" d="M0 9.5C0 8.85753 0.0646888 8.21667 0.193263 7.58706C0.318622 6.97553 0.504251 6.37807 0.747335 5.8035C1.22547 4.67527 1.91696 3.64989 2.78362 2.78362C3.64989 1.91696 4.67527 1.22547 5.8035 0.747335C6.37807 0.504251 6.97553 0.318622 7.58666 0.193263C8.21627 0.0646888 8.85753 0 9.5 0C10.1425 0 10.7837 0.0646888 11.4133 0.193263C12.0245 0.318622 12.6219 0.504251 13.1965 0.747335C14.3247 1.22547 15.3501 1.91696 16.2164 2.78362C17.083 3.64989 17.7745 4.67527 18.2527 5.8035C18.4957 6.37807 18.6814 6.97553 18.8067 7.58666C18.9353 8.21627 19 8.85753 19 9.5C19 10.1425 18.9353 10.7837 18.8067 11.4133C18.6814 12.0245 18.4957 12.6219 18.2527 13.1965C17.7745 14.3247 17.083 15.3501 16.2164 16.2164C15.3501 17.083 14.3247 17.7745 13.1965 18.2527C12.6219 18.4957 12.0245 18.6814 11.4133 18.8067C10.7837 18.9353 10.1425 19 9.5 19C8.85753 19 8.21627 18.9353 7.58666 18.8067C6.97553 18.6814 6.37807 18.4957 5.8035 18.2527C4.67527 17.7745 3.64989 17.083 2.78362 16.2164C1.91696 15.3501 1.22547 14.3247 0.747335 13.1965C0.504251 12.6219 0.318622 12.0245 0.193263 11.4133C0.0646888 10.7837 0 10.1425 0 9.5Z" fill="white"/>
<path d="M13.6933 10.9688L9.70987 12.6704L6.8606 9.40773L9.08315 5.6897L13.306 6.65452L13.6933 10.9688Z" fill="black"/>
<path d="M5.67948 17.8541L5.15454 16.4105L8.76345 16.1481L11.2215 17.7229L9.94456 18.6415" fill="black"/>
<path d="M0.758158 12.3423L2.46417 13.5234L3.18595 10.0457L1.74239 6.76489L0.298828 8.27407" fill="black"/>
<path d="M4.10474 2.04059L3.84229 3.48415L7.31997 2.69676L9.74776 0.990702L9.50299 0.358521" fill="black"/>
<path d="M14.7346 1.97495L13.5535 1.9093L15.2595 4.59959L17.7529 6.50248V5.25576" fill="black"/>
<path d="M18.3436 11.8831L18.1467 10.5051L16.1782 12.7361L15.0627 15.9513H16.1782" fill="black"/>
<path d="M8.899 16.1851L8.86203 16.3209L8.59082 16.2466L8.62779 16.1112L9.70057 12.1909L9.73754 12.0551L10.0087 12.1294L9.97178 12.2652L8.899 16.1851Z" fill="black"/>
<path d="M5.78332 16.8809L5.87814 16.985L5.67001 17.1742L5.57519 17.0702L1.77744 12.8963L1.68262 12.7923L1.89075 12.603L1.98557 12.7071L5.78332 16.8809Z" fill="black"/>
<path d="M6.83646 9.26935L6.97507 9.24524L7.02329 9.52207L6.88467 9.54618L3.20987 10.1842L3.07165 10.2083L3.02344 9.9311L3.16206 9.90699L6.83646 9.26935Z" fill="black"/>
<path d="M16.2617 12.6886L16.3746 12.7718L16.2079 12.9984L16.0946 12.9149L13.6099 11.0819L13.4966 10.9987L13.6637 10.7721L13.7766 10.8557L16.2617 12.6886Z" fill="black"/>
<path d="M15.5694 15.5972L15.6984 15.5414L15.8097 15.7997L15.6807 15.8552L11.0581 17.8521L10.9287 17.9079L10.8174 17.6496L10.9464 17.5937L15.5694 15.5972Z" fill="black"/>
<path d="M14.2436 2.01302L14.3798 2.04717L14.3111 2.31999L14.1749 2.28583L9.04881 0.99447L8.9126 0.960318L8.9813 0.6875L9.11751 0.722054L14.2436 2.01302Z" fill="black"/>
<path d="M9.20431 5.61833L9.27583 5.73967L9.03355 5.88231L8.96203 5.76096L7.19896 2.76801L7.12744 2.64707L7.36972 2.50403L7.44124 2.62537L9.20431 5.61833Z" fill="black"/>
<path d="M15.1575 4.50253L15.2544 4.40088L15.4581 4.59454L15.3612 4.6966L13.4077 6.75137L13.3109 6.85343L13.1072 6.65976L13.204 6.55771L15.1575 4.50253Z" fill="black"/>
<path d="M1.66814 7.30385L1.59421 7.42358L1.35474 7.27652L1.42867 7.15639L4.09376 2.82546L4.16769 2.70532L4.40716 2.85278L4.33323 2.97251L1.66814 7.30385Z" fill="black"/>
<path fill-rule="evenodd" clip-rule="evenodd" d="M0 9.5C0 8.85753 0.0646888 8.21667 0.193263 7.58706C0.318622 6.97553 0.504251 6.37807 0.747335 5.8035C1.22547 4.67527 1.91696 3.64989 2.78362 2.78362C3.64989 1.91696 4.67527 1.22547 5.8035 0.747335C6.37807 0.504251 6.97553 0.318622 7.58666 0.193263C8.21627 0.0646888 8.85753 0 9.5 0C10.1425 0 10.7837 0.0646888 11.4133 0.193263C12.0245 0.318622 12.6219 0.504251 13.1965 0.747335C14.3247 1.22547 15.3501 1.91696 16.2164 2.78362C17.083 3.64989 17.7745 4.67527 18.2527 5.8035C18.4957 6.37807 18.6814 6.97553 18.8067 7.58666C18.9353 8.21627 19 8.85753 19 9.5C19 10.1425 18.9353 10.7837 18.8067 11.4133C18.6814 12.0245 18.4957 12.6219 18.2527 13.1965C17.7745 14.3247 17.083 15.3501 16.2164 16.2164C15.3501 17.083 14.3247 17.7745 13.1965 18.2527C12.6219 18.4957 12.0245 18.6814 11.4133 18.8067C10.7837 18.9353 10.1425 19 9.5 19C8.85753 19 8.21627 18.9353 7.58666 18.8067C6.97553 18.6814 6.37807 18.4957 5.8035 18.2527C4.67527 17.7745 3.64989 17.083 2.78362 16.2164C1.91696 15.3501 1.22547 14.3247 0.747335 13.1965C0.504251 12.6219 0.318622 12.0245 0.193263 11.4133C0.0646888 10.7837 0 10.1425 0 9.5ZM0.803587 9.5C0.803587 8.91137 0.86265 8.32435 0.980376 7.74778C1.09489 7.18889 1.26485 6.64245 1.48744 6.1169C1.92499 5.08389 2.55822 4.1449 3.35216 3.35216C4.1449 2.55822 5.08389 1.92499 6.1169 1.48744C6.64245 1.26485 7.18889 1.09489 7.74778 0.980376C8.32435 0.86265 8.91137 0.803587 9.5 0.803587C10.0886 0.803587 10.6756 0.86265 11.2522 0.980376C11.8111 1.09489 12.3576 1.26485 12.8831 1.48744C13.9161 1.92499 14.8551 2.55822 15.6478 3.35216C16.4418 4.1449 17.075 5.08389 17.5126 6.1169C17.7352 6.64245 17.9051 7.18889 18.0196 7.74778C18.1374 8.32435 18.1964 8.91137 18.1964 9.5C18.1964 10.0886 18.1374 10.6756 18.0196 11.2522C17.9051 11.8111 17.7352 12.3576 17.5126 12.8831C17.075 13.9161 16.4418 14.8551 15.6478 15.6478C14.8551 16.4418 13.9161 17.075 12.8831 17.5126C12.3576 17.7352 11.8111 17.9051 11.2522 18.0196C10.6756 18.1374 10.0886 18.1964 9.5 18.1964C8.91137 18.1964 8.32435 18.1374 7.74778 18.0196C7.18889 17.9051 6.64245 17.7352 6.1169 17.5126C5.08389 17.075 4.1449 16.4418 3.35216 15.6478C2.55822 14.8551 1.92499 13.9161 1.48744 12.8831C1.26485 12.3576 1.09489 11.8111 0.980376 11.2522C0.86265 10.6756 0.803587 10.0886 0.803587 9.5Z" fill="black"/>
</g>
<defs>
<clipPath id="clip0_29304_92">
<rect width="19" height="19" fill="white"/>
</clipPath>
</defs>
</svg>
