<svg width="19" height="19" viewBox="0 0 19 19" fill="none" xmlns="http://www.w3.org/2000/svg">
<g clip-path="url(#clip0_29377_20672)">
<path d="M16.4454 13.2376C19.3957 10.2873 19.3957 5.50375 16.4454 2.55337C13.495 -0.397009 8.71146 -0.397009 5.76108 2.55337C2.8107 5.50375 2.8107 10.2873 5.76108 13.2376C8.71146 16.188 13.495 16.188 16.4454 13.2376Z" fill="#DF2E38"/>
<path d="M3.61763 6.89355C3.4064 8.47879 3.69674 10.1176 4.49255 11.554L0.341797 15.7047L3.29522 18.6582L7.44598 14.5074C8.88118 15.302 10.5196 15.592 12.1048 15.3807L3.61763 6.89355Z" fill="#F4AD67"/>
<path d="M17.3126 15.9092C17.3126 17.4275 16.0798 18.6583 14.5616 18.6583C13.0433 18.6583 11.8125 17.4275 11.8125 15.9092C11.8125 14.389 13.0433 13.1582 14.5616 13.1582C16.0798 13.1582 17.3126 14.389 17.3126 15.9092Z" fill="#FEC22D"/>
<path d="M16.4034 13.5805C16.4708 13.5185 16.5399 13.4594 16.6053 13.3941C19.6378 10.3615 19.6378 5.42732 16.6053 2.39475C13.5727 -0.638092 8.6385 -0.638092 5.60592 2.39475C3.16769 4.83298 2.66448 8.55364 4.21907 11.514L0.185059 15.5479C0.143496 15.5895 0.120117 15.6458 0.120117 15.7046C0.120117 15.7635 0.143496 15.8198 0.185059 15.8613L3.13856 18.8148C3.18183 18.8581 3.23853 18.8797 3.29523 18.8797C3.35194 18.8797 3.40864 18.8581 3.45191 18.8148L7.48607 14.7806C8.70058 15.4182 10.1436 15.746 11.6037 15.6467C11.596 15.7334 11.5904 15.8206 11.5904 15.9092C11.5904 17.5471 12.923 18.8797 14.561 18.8797C16.2002 18.8797 17.5337 17.5471 17.5337 15.9092C17.5337 14.9658 17.0907 14.1255 16.4034 13.5805ZM5.91931 2.70813C8.77855 -0.151106 13.4321 -0.151663 16.2919 2.70813C19.1515 5.56782 19.1515 10.221 16.2919 13.0807C16.2061 13.1664 16.1175 13.2475 16.0279 13.3268C15.5945 13.0796 15.0946 12.9364 14.561 12.9364C13.3232 12.9364 12.2609 13.6984 11.8151 14.7778L3.86096 6.82353C4.08169 5.31685 4.76224 3.8652 5.91931 2.70813ZM5.91931 13.0807C4.48503 11.6464 3.64606 9.61107 3.79866 7.388L11.6054 15.1949C9.50051 15.3409 7.43497 14.5963 5.91931 13.0807ZM3.29523 18.3447L0.655123 15.7046L4.44718 11.9129C4.76565 12.4406 5.15096 12.939 5.60596 13.394C6.06096 13.849 6.55937 14.2344 7.08711 14.5529L3.29523 18.3447ZM14.561 18.4365C13.1674 18.4365 12.0336 17.3027 12.0336 15.9092C12.0336 14.5143 13.1674 13.3797 14.561 13.3797C15.9558 13.3797 17.0905 14.5143 17.0905 15.9092C17.0905 17.3027 15.9558 18.4365 14.561 18.4365Z" fill="black"/>
</g>
<defs>
<clipPath id="clip0_29377_20672">
<rect width="19" height="19" fill="white"/>
</clipPath>
</defs>
</svg>
