<svg width="19" height="19" viewBox="0 0 19 19" fill="none" xmlns="http://www.w3.org/2000/svg">
<g clip-path="url(#clip0_29306_161)">
<path d="M16.074 15.8999C14.4052 17.6162 12.0714 18.6834 9.48738 18.6834C7.34038 18.6834 5.36438 17.9487 3.80005 16.7074C7.70772 16.378 11.4444 14.9309 14.5604 12.5305C15.2412 13.4964 15.7479 14.5889 16.0392 15.7637L16.074 15.8999Z" fill="#0A6EBD"/>
<path d="M14.5983 12.5305C11.4823 14.9308 7.74563 16.378 3.83797 16.7073C2.28947 15.4882 1.14313 13.7782 0.633301 11.8085C2.32747 11.9763 4.02163 11.8433 5.64297 11.4285C7.36563 10.9915 9.00597 10.2347 10.4753 9.18335C11.8718 9.78185 13.0878 10.6907 14.0473 11.818C14.2436 12.046 14.4273 12.2835 14.5983 12.5305Z" fill="#EFF5F5"/>
<path d="M18.6832 9.42082C18.6832 10.0067 18.6294 10.5798 18.5217 11.1371L18.1322 10.3455C16.5204 7.04898 13.2841 4.88615 9.66772 4.61698C9.71522 3.14132 10.0636 1.67832 10.7032 0.31665C15.2062 0.90565 18.6832 4.75632 18.6832 9.42082Z" fill="#EFF5F5"/>
<path d="M18.6832 11.2702C18.3444 13.072 17.4799 14.6902 16.248 15.9537L16.2132 15.8175C15.9219 14.6427 15.4152 13.5502 14.7344 12.5843C14.5634 12.3373 14.3797 12.0998 14.1834 11.8718C13.2239 10.7445 12.0079 9.83567 10.6114 9.23717C10.035 7.79633 9.77536 6.26683 9.8292 4.75C13.4455 5.01917 16.6819 7.182 18.2937 10.4785L18.6832 11.2702Z" fill="#F4D160"/>
<path d="M5.61765 11.5837C3.99632 11.9985 2.30215 12.1315 0.607984 11.9637C0.417984 11.2258 0.31665 10.4532 0.31665 9.65518C0.31665 6.14018 2.28948 3.08752 5.19015 1.54535C4.45865 4.86718 4.60115 8.32835 5.61765 11.5837Z" fill="#F4D160"/>
<path d="M10.5132 9.18332C9.04386 10.2347 7.40353 10.9915 5.68086 11.4285C4.66436 8.17315 4.52186 4.71198 5.25336 1.39015C6.53903 0.702984 8.0052 0.31665 9.5632 0.31665C9.9717 0.31665 10.3739 0.341984 10.7665 0.395817C10.1269 1.75748 9.77853 3.22048 9.73103 4.69615C9.6772 6.21298 9.93686 7.74248 10.5132 9.18332Z" fill="#0A6EBD"/>
<path d="M9.5 19C14.7377 19 19 14.7377 19 9.5C19 4.26233 14.7377 0 9.5 0C4.26233 0 0 4.26233 0 9.5C0 14.7377 4.26233 19 9.5 19ZM1.04183 12.16C2.60933 12.2645 4.17367 12.1252 5.69683 11.7357C7.4195 11.2987 9.02817 10.5608 10.488 9.54433C11.7483 10.1143 12.8852 10.9662 13.7845 12.0238C13.9048 12.1663 14.022 12.312 14.1328 12.464C11.1498 14.6902 7.62533 16.0423 3.914 16.378C2.58083 15.295 1.57067 13.832 1.04183 12.16ZM9.98133 5.04767C13.357 5.415 16.3527 7.50183 17.8473 10.564L18.1893 11.2607C17.8853 12.7617 17.1982 14.1265 16.2387 15.2507C15.9315 14.212 15.4597 13.2398 14.8327 12.35C14.6585 12.0967 14.4653 11.8465 14.2627 11.6122C13.2937 10.4753 12.065 9.557 10.7002 8.95217C10.2157 7.70133 9.975 6.39033 9.97817 5.04767H9.98133ZM4.67717 16.9353C8.23967 16.4888 11.6122 15.1335 14.497 12.9833C15.0638 13.851 15.4818 14.7947 15.7352 15.7985C14.1328 17.385 11.9288 18.3667 9.50317 18.3667C7.7235 18.3667 6.06733 17.8378 4.68033 16.9353H4.67717ZM18.3667 9.5C18.3667 9.71533 18.3572 9.93067 18.3413 10.1428C16.72 6.95083 13.5597 4.78483 10.0003 4.41433C10.0763 3.1445 10.3772 1.91267 10.8965 0.744167C15.124 1.4155 18.3667 5.08567 18.3667 9.5ZM10.2378 0.665C9.69633 1.9475 9.3955 3.2965 9.35117 4.6835C9.29733 6.1845 9.54117 7.657 10.0668 9.05983C8.77167 9.956 7.34983 10.6178 5.833 11.039C4.93367 7.98317 4.807 4.731 5.46883 1.6055C6.6785 0.984833 8.04967 0.633333 9.5 0.633333C9.75017 0.633333 9.994 0.646 10.2378 0.665ZM4.7405 2.0235C4.18317 5.07617 4.34783 8.22383 5.21867 11.1942C3.7905 11.5235 2.3275 11.6312 0.8645 11.5077C0.7125 10.8617 0.630167 10.1872 0.630167 9.49683C0.630167 6.35867 2.2705 3.59733 4.73733 2.02033L4.7405 2.0235Z" fill="black"/>
</g>
<defs>
<clipPath id="clip0_29306_161">
<rect width="19" height="19" fill="white"/>
</clipPath>
</defs>
</svg>
