<svg width="14" height="14" viewBox="0 0 14 14" fill="none" xmlns="http://www.w3.org/2000/svg">
<path d="M7 4.37012C6.27513 4.37012 5.6875 4.95774 5.6875 5.68262C5.6875 6.40749 6.27513 6.99512 7 6.99512C7.72487 6.99512 8.3125 6.40749 8.3125 5.68262C8.3125 4.95774 7.72487 4.37012 7 4.37012Z" fill="#5066F0"/>
<path fill-rule="evenodd" clip-rule="evenodd" d="M0.875 2.83887C0.875 2.23481 1.36469 1.74512 1.96875 1.74512H12.0312C12.6353 1.74512 13.125 2.23481 13.125 2.83887V8.52637C13.125 9.13043 12.6353 9.62012 12.0312 9.62012H1.96875C1.36469 9.62012 0.875 9.13043 0.875 8.52637V2.83887ZM4.8125 5.68262C4.8125 4.47449 5.79188 3.49512 7 3.49512C8.20812 3.49512 9.1875 4.47449 9.1875 5.68262C9.1875 6.89074 8.20812 7.87012 7 7.87012C5.79188 7.87012 4.8125 6.89074 4.8125 5.68262ZM10.9375 5.24512C10.6959 5.24512 10.5 5.44099 10.5 5.68262V5.68699C10.5 5.92862 10.6959 6.12449 10.9375 6.12449H10.9419C11.1835 6.12449 11.3794 5.92862 11.3794 5.68699V5.68262C11.3794 5.44099 11.1835 5.24512 10.9419 5.24512H10.9375ZM2.625 5.68262C2.625 5.44099 2.82088 5.24512 3.0625 5.24512H3.06688C3.3085 5.24512 3.50438 5.44099 3.50438 5.68262V5.68699C3.50438 5.92862 3.3085 6.12449 3.06688 6.12449H3.0625C2.82088 6.12449 2.625 5.92862 2.625 5.68699V5.68262Z" fill="#5066F0"/>
<path d="M1.3125 10.4951C1.07088 10.4951 0.875 10.691 0.875 10.9326C0.875 11.1742 1.07088 11.3701 1.3125 11.3701C4.46253 11.3701 7.51347 11.7914 10.4124 12.5805C11.1069 12.7695 11.8125 12.2549 11.8125 11.5189V10.9326C11.8125 10.691 11.6166 10.4951 11.375 10.4951H1.3125Z" fill="#5066F0"/>
</svg>
