<svg width="18" height="17" viewBox="0 0 18 17" fill="none" xmlns="http://www.w3.org/2000/svg">
<path d="M6.28692 1.95484C7.15109 1.60067 8.07192 1.4165 8.99984 1.4165C9.92775 1.4165 10.8486 1.60067 11.7128 1.95484C12.5698 2.309 13.349 2.83317 14.0078 3.49192C14.6665 4.15067 15.1907 4.92984 15.5448 5.78692C15.899 6.65109 16.0832 7.57192 16.0832 8.49984C16.0832 10.3769 15.3394 12.1832 14.0078 13.5078C12.6832 14.8394 10.8769 15.5832 8.99984 15.5832C8.07192 15.5832 7.15109 15.399 6.28692 15.0448C5.42984 14.6907 4.65067 14.1665 3.99192 13.5078C2.66025 12.1832 1.9165 10.3769 1.9165 8.49984C1.9165 6.62275 2.66025 4.8165 3.99192 3.49192C4.65067 2.83317 5.42984 2.309 6.28692 1.95484ZM6.08859 13.359C6.95984 13.8832 7.96567 14.1665 8.99984 14.1665C10.034 14.1665 11.0398 13.8832 11.9111 13.359L11.2028 12.1336L11.9111 11.7228C11.5144 10.9578 11.2523 10.1078 11.1603 9.20817H10.4165V7.7915H11.1603C11.2523 6.89192 11.5144 6.04192 11.9111 5.27692L11.2028 4.86609L11.9111 3.64067C11.0398 3.1165 10.034 2.83317 8.99984 2.83317C7.96567 2.83317 6.95984 3.1165 6.08859 3.64067L6.79692 4.86609L6.08859 5.26984C6.48525 6.04192 6.74734 6.89192 6.83942 7.7915H7.58317V9.20817H6.83942C6.74734 10.1078 6.48525 10.9578 6.08859 11.7298L6.79692 12.1336L6.08859 13.359ZM4.0415 11.2482L4.34609 10.7169L4.86317 11.0215C5.13942 10.4619 5.33067 9.85275 5.40859 9.20817H4.74984V7.7915H5.40859C5.33067 7.14692 5.13942 6.53775 4.86317 5.97817L4.34609 6.28275L4.0415 5.7515C3.58109 6.58734 3.33317 7.52942 3.33317 8.49984C3.33317 9.47025 3.58109 10.4123 4.0415 11.2482ZM13.9582 5.75859L13.6536 6.28275L13.1365 5.97817C12.8603 6.53775 12.669 7.14692 12.5911 7.7915H13.2498V9.20817H12.5911C12.669 9.85275 12.8603 10.4619 13.1365 11.0215L13.6536 10.7169L13.9582 11.2482C14.4186 10.4123 14.6665 9.47025 14.6665 8.49984C14.6665 7.52942 14.4186 6.58734 13.9582 5.7515V5.75859Z" fill="#9CA3AF"/>
</svg>
