<svg width="18" height="17" viewBox="0 0 18 17" fill="none" xmlns="http://www.w3.org/2000/svg">
<path d="M2.15734 10.3629C2.58234 10.207 3.0215 10.1291 3.489 10.1291C4.43817 10.1291 5.26692 10.4266 5.97525 11.0216L3.75109 13.2458C3.00025 12.3958 2.469 11.4254 2.15734 10.3629ZM11.5215 6.9416C12.9169 7.98285 14.4257 8.23785 16.0407 7.7066C16.0619 7.85535 16.0832 8.12452 16.0832 8.49993C16.0832 9.22952 15.9061 10.0441 15.5732 10.9437C15.2403 11.8362 14.8294 12.5587 14.3478 13.1041L9.864 8.63452L11.5215 6.9416ZM6.71192 11.7866C7.46275 12.8703 7.61859 14.0533 7.17234 15.3424C6.1665 15.052 5.26692 14.5987 4.51609 13.9753L6.71192 11.7866ZM9.13442 9.3641L13.604 13.8478C12.0669 15.1937 10.2607 15.7604 8.2065 15.5408C8.35525 15.0733 8.43317 14.5633 8.43317 14.0108C8.43317 13.5716 8.334 13.0545 8.13567 12.4666C7.93734 11.8787 7.70359 11.397 7.4415 11.0216L9.13442 9.3641ZM6.74025 10.2708C6.0815 9.68285 5.3165 9.31452 4.45234 9.14452C3.58817 8.9816 2.75942 9.03118 1.959 9.30035C1.93775 9.14452 1.9165 8.87535 1.9165 8.49993C1.9165 7.77035 2.09359 6.95577 2.4265 6.05618C2.75942 5.16368 3.17025 4.44118 3.65192 3.89577L8.36942 8.63452L6.74025 10.2708ZM11.5215 5.47535C10.5723 4.3066 10.3528 3.0316 10.8628 1.65743C11.3019 1.77077 11.8048 1.98327 12.3715 2.3091C12.9311 2.62785 13.3915 2.9466 13.7457 3.25118L11.5215 5.47535ZM15.8423 6.6441C15.4173 6.79285 14.9782 6.87077 14.5107 6.87077C13.7386 6.87077 12.9948 6.6441 12.2865 6.1766L14.4753 4.01618C15.0986 4.79535 15.5519 5.6666 15.8423 6.6441ZM9.13442 7.86952L4.39567 3.15202C5.93275 1.80618 7.739 1.23952 9.80025 1.4591C9.64442 1.9266 9.5665 2.4366 9.5665 2.9891C9.5665 3.4991 9.67984 4.07285 9.91359 4.71743C10.1473 5.35493 10.4165 5.86493 10.7707 6.24035L9.13442 7.86952Z" fill="#9CA3AF"/>
</svg>
