<svg width="14" height="14" viewBox="0 0 14 14" fill="none" xmlns="http://www.w3.org/2000/svg">
<path d="M8.3999 6.29526C8.0133 6.29526 7.6999 5.98186 7.6999 5.59526V2.09526C7.6999 1.70866 8.0151 1.39001 8.39782 1.44459C10.5455 1.75085 12.2443 3.44968 12.5506 5.59734C12.6052 5.98007 12.2865 6.29526 11.8999 6.29526H8.3999Z" fill="#2FDFFB"/>
<path d="M5.60198 2.84459C5.98471 2.79001 6.2999 3.10866 6.2999 3.49526V6.99526C6.2999 7.38186 6.6133 7.69526 6.9999 7.69526H10.4999C10.8865 7.69526 11.2052 8.01046 11.1506 8.39318C10.8118 10.7688 8.76915 12.5953 6.2999 12.5953C3.59371 12.5953 1.3999 10.4015 1.3999 7.69526C1.3999 5.22601 3.22636 3.18335 5.60198 2.84459Z" fill="#2FDFFB"/>
</svg>
