<svg width="14" height="14" viewBox="0 0 14 14" fill="none" xmlns="http://www.w3.org/2000/svg">
<path d="M9.91899 6.06565C9.99972 6.31941 9.79317 6.55709 9.52687 6.55709H7.50565C7.34935 6.55709 7.20492 6.47371 7.12677 6.33836L6.11601 4.58782C5.98276 4.35706 6.08544 4.05924 6.34582 4.00258C6.55662 3.95671 6.77552 3.93254 7.00006 3.93254C8.36742 3.93254 9.52548 4.82866 9.91899 6.06565Z" fill="#5066F0"/>
<path d="M4.73637 4.93234C4.91597 4.73535 5.22537 4.79522 5.35867 5.02608L6.36899 6.77585C6.44715 6.91121 6.44715 7.07799 6.369 7.21336L5.35843 8.96372C5.22513 9.19461 4.91569 9.25447 4.73609 9.05744C4.24003 8.51321 3.93756 7.78945 3.93756 6.99504C3.93756 6.20049 4.24014 5.47661 4.73637 4.93234Z" fill="#5066F0"/>
<path d="M6.34542 9.98741C6.08508 9.93072 5.98242 9.63294 6.11564 9.40219L7.12678 7.65084C7.20493 7.51548 7.34937 7.43209 7.50567 7.43209H9.52715C9.7934 7.43209 9.99994 7.66968 9.91932 7.92343C9.52611 9.16094 8.36779 10.0575 7.00006 10.0575C6.77537 10.0575 6.55634 10.0333 6.34542 9.98741Z" fill="#5066F0"/>
<path fill-rule="evenodd" clip-rule="evenodd" d="M12.2505 7.43209C12.4921 7.43209 12.688 7.23622 12.688 6.99459C12.688 6.75297 12.4921 6.55709 12.2505 6.55709H11.7934C11.769 6.28634 11.7221 6.02206 11.6548 5.76611L12.0834 5.6101C12.3104 5.52746 12.4275 5.27641 12.3449 5.04935C12.2622 4.8223 12.0112 4.70523 11.7841 4.78787L11.3555 4.9439C11.2406 4.7004 11.1059 4.46809 10.9535 4.24904L11.3034 3.95546C11.4885 3.80015 11.5126 3.5242 11.3573 3.3391C11.202 3.15401 10.926 3.12986 10.7409 3.28518L10.3908 3.579C10.2008 3.39043 9.99515 3.21759 9.776 3.06261L10.0043 2.66716C10.1251 2.45791 10.0534 2.19034 9.84418 2.06953C9.63493 1.94871 9.36736 2.02041 9.24655 2.22966L9.01863 2.62442C8.77717 2.51273 8.52489 2.42046 8.26379 2.34962L8.34294 1.90075C8.3849 1.6628 8.22601 1.43588 7.98806 1.39393C7.75011 1.35197 7.52319 1.51086 7.48123 1.74881L7.40192 2.1986C7.26956 2.18767 7.13567 2.18209 7.00049 2.18209C6.86529 2.18209 6.73137 2.18768 6.59895 2.19863L6.51964 1.74883C6.47768 1.51088 6.25077 1.35199 6.01281 1.39395C5.77486 1.43591 5.61597 1.66282 5.65793 1.90078L5.7371 2.34975C5.4761 2.42059 5.22384 2.51285 4.98239 2.62452L4.75433 2.22956C4.63351 2.02031 4.36594 1.94862 4.15669 2.06944C3.94744 2.19026 3.87576 2.45784 3.99658 2.66709L4.22499 3.06266C4.00594 3.21756 3.80038 3.39034 3.61043 3.57887L3.25999 3.28481C3.07489 3.1295 2.79894 3.15364 2.64362 3.33874C2.48831 3.52383 2.51245 3.79979 2.69755 3.9551L3.04768 4.2489C2.89519 4.468 2.76045 4.70041 2.64553 4.94402L2.21676 4.78796C1.98971 4.70532 1.73865 4.82239 1.65601 5.04944C1.57337 5.2765 1.69044 5.52755 1.91749 5.61019L2.3462 5.76623C2.27884 6.02213 2.23201 6.28637 2.20761 6.55709H1.75049C1.50886 6.55709 1.31299 6.75297 1.31299 6.99459C1.31299 7.23622 1.50886 7.43209 1.75049 7.43209H2.20761C2.232 7.70282 2.27882 7.96708 2.34618 8.223L1.91735 8.37908C1.6903 8.46172 1.57323 8.71278 1.65587 8.93983C1.73851 9.16689 1.98956 9.28396 2.21662 9.20131L2.64549 9.04522C2.76042 9.28888 2.8952 9.52134 3.04775 9.74052L2.69746 10.0344C2.51236 10.1898 2.48822 10.4657 2.64354 10.6508C2.79885 10.8359 3.0748 10.86 3.2599 10.7047L3.61055 10.4105C3.80052 10.599 4.00613 10.7718 4.22526 10.9268L3.99655 11.3229C3.87573 11.5322 3.94743 11.7998 4.15668 11.9206C4.36594 12.0414 4.63351 11.9697 4.75432 11.7604L4.98267 11.3649C5.22404 11.4765 5.47623 11.5688 5.73722 11.6396L5.65793 12.0893C5.61597 12.3272 5.77486 12.5542 6.01281 12.5961C6.25076 12.6381 6.47768 12.4792 6.51964 12.2412L6.5991 11.7906C6.73145 11.8015 6.86532 11.8071 7.00049 11.8071C7.13562 11.8071 7.26946 11.8015 7.40177 11.7906L7.48124 12.2413C7.52319 12.4792 7.75011 12.6381 7.98806 12.5961C8.22602 12.5542 8.3849 12.3273 8.34294 12.0893L8.26365 11.6396C8.52467 11.5688 8.77688 11.4766 9.01828 11.3649L9.24657 11.7603C9.36738 11.9696 9.63495 12.0413 9.84421 11.9205C10.0535 11.7997 10.1252 11.5321 10.0043 11.3228L9.77569 10.9268C9.9949 10.7718 10.2006 10.5989 10.3906 10.4103L10.741 10.7044C10.9261 10.8597 11.2021 10.8355 11.3574 10.6504C11.5127 10.4654 11.4885 10.1894 11.3035 10.0341L10.9534 9.74032C11.1058 9.52124 11.2405 9.28888 11.3554 9.04533L11.7843 9.20141C12.0113 9.28405 12.2624 9.16698 12.345 8.93992C12.4277 8.71287 12.3106 8.46181 12.0835 8.37917L11.6548 8.22311C11.7221 7.96716 11.769 7.70286 11.7934 7.43209H12.2505ZM10.7004 5.64789C10.6969 5.63819 10.6937 5.62845 10.6909 5.61867C10.5347 5.19981 10.3092 4.81471 10.0283 4.47728C10.0244 4.47295 10.0205 4.46851 10.0167 4.46398C10.013 4.45954 10.0094 4.45505 10.0059 4.45051C9.71987 4.11302 9.37807 3.82433 8.99469 3.59871C8.9861 3.59447 8.9776 3.58993 8.96918 3.58507C8.96054 3.58008 8.95213 3.57484 8.94396 3.56936C8.56817 3.35568 8.15376 3.20205 7.71382 3.12154C7.70396 3.12049 7.69408 3.11909 7.68417 3.11734C7.67458 3.11565 7.66512 3.11366 7.65579 3.11138C7.44267 3.07567 7.22375 3.05709 7.00049 3.05709C6.77741 3.05709 6.55878 3.07561 6.34602 3.11117C6.33639 3.11355 6.32661 3.11562 6.3167 3.11736C6.30645 3.11917 6.29621 3.12061 6.28602 3.12168C5.8363 3.20405 5.41365 3.36278 5.03159 3.58386C4.63614 3.81269 4.28432 4.10813 3.99141 4.4548C3.98905 4.45776 3.98665 4.4607 3.9842 4.46362C3.98296 4.4651 3.98171 4.46657 3.98045 4.46803C3.97914 4.46956 3.97781 4.47107 3.97648 4.47258C3.69371 4.81124 3.46686 5.19806 3.30994 5.61888C3.30714 5.62862 3.30399 5.63832 3.30047 5.64798C3.29696 5.65764 3.29313 5.66711 3.28902 5.67636C3.14263 6.08856 3.06299 6.5323 3.06299 6.99459C3.06299 7.45797 3.14303 7.90265 3.29004 8.31556C3.29371 8.32397 3.29715 8.33255 3.30033 8.3413C3.30351 8.35003 3.30639 8.35879 3.30898 8.36758C3.62838 9.226 4.23864 9.9429 5.01996 10.3985C5.02217 10.3997 5.02438 10.4009 5.02657 10.4021C5.02828 10.4031 5.02998 10.404 5.03168 10.405C5.03577 10.4074 5.03982 10.4098 5.0438 10.4123C5.42757 10.6325 5.85195 10.7899 6.30295 10.8705C6.30752 10.8712 6.31211 10.8719 6.3167 10.8727C6.32097 10.8735 6.32522 10.8743 6.32944 10.8751C6.54752 10.9126 6.77172 10.9321 7.00049 10.9321C7.22928 10.9321 7.45351 10.9126 7.67162 10.8751C7.67578 10.8743 7.67996 10.8735 7.68418 10.8727C7.68871 10.8719 7.69324 10.8712 7.69776 10.8705C8.14777 10.7901 8.57128 10.6333 8.95439 10.4139C8.95925 10.4108 8.96419 10.4078 8.96921 10.4049C8.97402 10.4022 8.97886 10.3995 8.98373 10.3969C9.37422 10.1688 9.72189 9.87538 10.0118 9.53165L10.0168 9.52557L10.0222 9.51927C10.3063 9.17953 10.5343 8.79116 10.6917 8.36845C10.6943 8.3594 10.6973 8.35037 10.7006 8.34139C10.7038 8.33238 10.7074 8.32354 10.7112 8.31488C10.858 7.90216 10.938 7.45771 10.938 6.99459C10.938 6.53227 10.8583 6.08856 10.7119 5.67644C10.7078 5.66713 10.7039 5.65761 10.7004 5.64789Z" fill="#5066F0"/>
</svg>
