<svg width="18" height="17" viewBox="0 0 18 17" fill="none" xmlns="http://www.w3.org/2000/svg">
<path d="M6.14525 11.3333L4.0415 13.4583C3.80775 13.6708 3.49609 13.8125 3.15609 13.8125C2.82733 13.8125 2.51204 13.6819 2.27957 13.4494C2.0471 13.217 1.9165 12.9017 1.9165 12.5729V12.3958L2.62484 7.16833C2.77359 5.53208 4.14067 4.25 5.81234 4.25H12.1873C13.859 4.25 15.2261 5.53208 15.3748 7.16833L16.0832 12.3958V12.5729C16.0832 12.9017 15.9526 13.217 15.7201 13.4494C15.4876 13.6819 15.1723 13.8125 14.8436 13.8125C14.5036 13.8125 14.1919 13.6708 13.9582 13.4583L11.8544 11.3333H6.14525ZM5.45817 5.66667V7.08333H4.0415V7.79167H5.45817V9.20833H6.1665V7.79167H7.58317V7.08333H6.1665V5.66667H5.45817ZM12.1873 5.66667C12.0464 5.66667 11.9113 5.72264 11.8117 5.82227C11.7121 5.9219 11.6561 6.05702 11.6561 6.19792C11.6561 6.33881 11.7121 6.47394 11.8117 6.57357C11.9113 6.6732 12.0464 6.72917 12.1873 6.72917C12.3282 6.72917 12.4634 6.6732 12.563 6.57357C12.6626 6.47394 12.7186 6.33881 12.7186 6.19792C12.7186 6.05702 12.6626 5.9219 12.563 5.82227C12.4634 5.72264 12.3282 5.66667 12.1873 5.66667ZM10.9478 6.90625C10.8069 6.90625 10.6717 6.96222 10.5721 7.06185C10.4725 7.16148 10.4165 7.2966 10.4165 7.4375C10.4165 7.5784 10.4725 7.71352 10.5721 7.81315C10.6717 7.91278 10.8069 7.96875 10.9478 7.96875C11.0887 7.96875 11.2238 7.91278 11.3234 7.81315C11.423 7.71352 11.479 7.5784 11.479 7.4375C11.479 7.2966 11.423 7.16148 11.3234 7.06185C11.2238 6.96222 11.0887 6.90625 10.9478 6.90625ZM13.4269 6.90625C13.286 6.90625 13.1509 6.96222 13.0513 7.06185C12.9516 7.16148 12.8957 7.2966 12.8957 7.4375C12.8957 7.5784 12.9516 7.71352 13.0513 7.81315C13.1509 7.91278 13.286 7.96875 13.4269 7.96875C13.5678 7.96875 13.7029 7.91278 13.8026 7.81315C13.9022 7.71352 13.9582 7.5784 13.9582 7.4375C13.9582 7.2966 13.9022 7.16148 13.8026 7.06185C13.7029 6.96222 13.5678 6.90625 13.4269 6.90625ZM12.1873 8.14583C12.0464 8.14583 11.9113 8.2018 11.8117 8.30143C11.7121 8.40106 11.6561 8.53619 11.6561 8.67708C11.6561 8.81798 11.7121 8.9531 11.8117 9.05273C11.9113 9.15236 12.0464 9.20833 12.1873 9.20833C12.3282 9.20833 12.4634 9.15236 12.563 9.05273C12.6626 8.9531 12.7186 8.81798 12.7186 8.67708C12.7186 8.53619 12.6626 8.40106 12.563 8.30143C12.4634 8.2018 12.3282 8.14583 12.1873 8.14583Z" fill="#9CA3AF"/>
</svg>
