<svg width="18" height="17" viewBox="0 0 18 17" fill="none" xmlns="http://www.w3.org/2000/svg">
<path d="M6.44292 14.875L2.625 11.0571C2.625 11.8292 2.65333 12.5446 2.76667 13.1962C2.87292 13.8479 2.97917 14.2375 3.12792 14.3721C3.2625 14.5208 3.645 14.6271 4.28958 14.7404C4.93417 14.8537 5.64958 14.875 6.44292 14.875ZM11.4792 7.00542L7.50542 10.9792L6.52083 9.99458L10.4946 6.02083L11.4792 7.00542ZM2.83042 9.265L8.235 14.6696C10.2042 14.3154 11.7625 13.5646 12.9171 12.4171C14.0646 11.2625 14.8154 9.70417 15.1696 7.735L9.765 2.33042C7.79583 2.68458 6.2375 3.43542 5.08292 4.58292C3.92833 5.73042 3.18458 7.29583 2.83042 9.265ZM11.5571 2.125L15.375 5.94292C15.375 5.17083 15.3467 4.45542 15.2404 3.80375C15.1271 3.15208 15.0208 2.7625 14.8721 2.62792C14.7375 2.47917 14.355 2.37292 13.7104 2.26667C13.0658 2.16042 12.3504 2.125 11.5571 2.125Z" fill="#9CA3AF"/>
</svg>
