<svg width="18" height="17" viewBox="0 0 18 17" fill="none" xmlns="http://www.w3.org/2000/svg">
<path d="M11.7131 7.38808C12.6957 8.16446 13.3444 9.28701 13.5264 10.526C13.7263 11.6618 13.502 12.8314 12.896 13.8127L11.6777 13.1043C11.9861 12.5653 12.1473 11.9546 12.1452 11.3335C12.1299 10.5851 11.8879 9.85889 11.451 9.251L7.00266 16.9506L5.77016 16.2564L7.89516 12.5731L6.66975 11.8718L5.60725 13.6993L4.396 13.0052L8.02975 6.69391C7.30581 5.91518 6.85138 4.92436 6.7335 3.86766C6.59735 2.79687 6.81898 1.7111 7.36391 0.779329L8.59641 1.50891C8.35776 1.90604 8.20207 2.34742 8.13877 2.8064C8.07546 3.26538 8.10584 3.73242 8.22808 4.17933C8.33668 4.63019 8.53752 5.05367 8.81791 5.42306C9.09831 5.79245 9.45219 6.09975 9.85725 6.32558M11.8335 3.54183C11.5533 3.54183 11.2794 3.62492 11.0464 3.78058C10.8135 3.93625 10.6319 4.1575 10.5247 4.41636C10.4174 4.67522 10.3894 4.96007 10.4441 5.23487C10.4987 5.50968 10.6336 5.76211 10.8318 5.96023C11.0299 6.15836 11.2823 6.29328 11.5571 6.34794C11.8319 6.4026 12.1168 6.37455 12.3756 6.26733C12.6345 6.1601 12.8557 5.97852 13.0114 5.74555C13.1671 5.51258 13.2502 5.23869 13.2502 4.9585C13.2502 4.58277 13.1009 4.22244 12.8352 3.95676C12.5696 3.69109 12.2092 3.54183 11.8335 3.54183ZM10.0627 0.708496C9.85252 0.708496 9.6471 0.770811 9.47237 0.88756C9.29764 1.00431 9.16146 1.17025 9.08104 1.36439C9.00062 1.55854 8.97958 1.77217 9.02058 1.97828C9.06158 2.18438 9.16277 2.3737 9.31136 2.5223C9.45996 2.67089 9.64927 2.77208 9.85538 2.81308C10.0615 2.85408 10.2751 2.83304 10.4693 2.75262C10.6634 2.6722 10.8294 2.53602 10.9461 2.36129C11.0628 2.18656 11.1252 1.98114 11.1252 1.771C11.1252 1.4892 11.0132 1.21895 10.814 1.0197C10.6147 0.820438 10.3445 0.708496 10.0627 0.708496Z" fill="#9CA3AF"/>
</svg>
