<svg width="18" height="17" viewBox="0 0 18 17" fill="none" xmlns="http://www.w3.org/2000/svg">
<path d="M8.99984 3.5415C5.104 3.5415 1.9165 4.65359 1.9165 6.02067C1.9165 7.38775 5.104 8.49984 8.99984 8.49984C12.8957 8.49984 16.0832 7.38775 16.0832 6.02067C16.0832 4.65359 12.8957 3.5415 8.99984 3.5415ZM1.9165 8.32984V11.6873C1.9165 13.0544 5.104 14.1665 8.99984 14.1665C12.8957 14.1665 16.0832 13.0544 16.0832 11.6873V8.32984C15.6086 8.65567 15.0773 8.90359 14.4753 9.109C12.9807 9.63317 11.0894 9.9165 8.99984 9.9165C6.91025 9.9165 5.019 9.63317 3.52442 9.109C2.92234 8.90359 2.39109 8.65567 1.9165 8.32984Z" fill="#9CA3AF"/>
</svg>
