<svg width="18" height="17" viewBox="0 0 18 17" fill="none" xmlns="http://www.w3.org/2000/svg">
<path d="M11.9893 11.4891C13.4272 10.0512 14.1922 8.14574 14.2772 5.80824C13.5051 7.51533 12.4072 9.07366 10.9905 10.4903C9.57388 11.907 8.01555 13.0049 6.30846 13.777C8.64596 13.7132 10.5301 12.9482 11.9893 11.4891ZM6.01096 5.51074C4.57305 6.94866 3.80805 8.85408 3.72305 11.1916C4.0418 10.4832 4.53763 9.66866 5.18221 8.74783C5.81263 7.82699 6.43596 7.08324 7.00971 6.50949C8.42638 5.09283 9.98471 3.99491 11.6918 3.22283C9.3543 3.28658 7.47013 4.05158 6.01096 5.51074ZM15.021 2.47908C15.3751 2.86866 15.616 3.61949 15.708 4.74574C15.793 5.87908 15.623 7.19658 15.191 8.71241C14.7589 10.2353 14.0364 11.4962 13.0164 12.5162C12.0885 13.4582 10.9835 14.1312 9.70846 14.5562C8.44055 14.9882 7.1868 15.2078 5.94721 15.2078C4.43846 15.2078 3.45388 14.9741 2.9793 14.5207C2.62513 14.1312 2.3843 13.3803 2.29221 12.2541C2.20721 11.1207 2.37721 9.80324 2.8093 8.28741C3.24138 6.76449 3.96388 5.50366 4.98388 4.48366C5.9118 3.54158 7.0168 2.86866 8.2918 2.44366C9.55971 2.01158 10.8135 1.79199 12.053 1.79199C13.5618 1.79199 14.5464 2.02574 15.021 2.47908Z" fill="#9CA3AF"/>
</svg>
