<svg width="18" height="17" viewBox="0 0 18 17" fill="none" xmlns="http://www.w3.org/2000/svg">
<path d="M12.4919 12.1265L11.9253 11.1632L12.9594 8.06775L13.9582 7.73484L14.6665 8.26609C14.6665 8.28734 14.6665 8.32275 14.6665 8.36525C14.6665 8.41484 14.6878 8.45734 14.6878 8.49984C14.6878 9.89525 14.2203 11.1278 13.2923 12.1903L12.4919 12.1265ZM7.40609 10.6248L6.43567 7.77025L8.99984 5.97109L11.564 7.77025L10.5936 10.6248H7.40609ZM8.99984 14.1878C8.3765 14.1878 7.78859 14.0886 7.229 13.8903L6.74025 12.8207L7.20775 12.0415H10.8273L11.2594 12.8207L10.7707 13.8903C10.2111 14.0886 9.62317 14.1878 8.99984 14.1878ZM4.70734 12.1903C4.33192 11.7511 4.00609 11.1632 3.72984 10.4478C3.45359 9.72525 3.31192 9.07359 3.31192 8.49984C3.31192 8.45734 3.33317 8.41484 3.33317 8.36525C3.33317 8.32275 3.33317 8.28734 3.33317 8.26609L4.0415 7.73484L5.04025 8.06775L6.07442 11.1632L5.50775 12.1265L4.70734 12.1903ZM8.2915 3.74692V4.73859L5.45817 6.70067L4.509 6.40317L4.2115 5.43984C4.52317 4.95817 4.98359 4.4765 5.59275 4.009C6.20192 3.5415 6.78275 3.23692 7.33525 3.08109L8.2915 3.74692ZM10.6644 3.08109C11.2169 3.23692 11.7978 3.5415 12.4069 4.009C13.0161 4.4765 13.4765 4.95817 13.7882 5.43984L13.4907 6.40317L12.5415 6.70775L9.70817 4.74567V3.74692L10.6644 3.08109ZM3.99192 3.49192C2.62484 4.88025 1.9165 6.55192 1.9165 8.49984C1.9165 10.4478 2.62484 12.1194 3.99192 13.5078C5.359 14.8961 7.05192 15.5832 8.99984 15.5832C10.9478 15.5832 12.6194 14.8748 14.0078 13.5078C15.3961 12.1407 16.0832 10.4478 16.0832 8.49984C16.0832 6.55192 15.3748 4.88025 14.0078 3.49192C12.6407 2.10359 10.9478 1.4165 8.99984 1.4165C7.05192 1.4165 5.38025 2.12484 3.99192 3.49192Z" fill="#9CA3AF"/>
</svg>
