<svg width="14" height="14" viewBox="0 0 14 14" fill="none" xmlns="http://www.w3.org/2000/svg">
<path d="M7.00033 1.16113C7.76637 1.16113 8.52491 1.31202 9.23265 1.60517C9.94038 1.89832 10.5834 2.328 11.1251 2.86968C11.6668 3.41135 12.0965 4.05441 12.3896 4.76215C12.6828 5.46988 12.8337 6.22842 12.8337 6.99447C12.8337 8.54156 12.2191 10.0253 11.1251 11.1193C10.0312 12.2132 8.54742 12.8278 7.00033 12.8278C4.31699 12.8278 2.07116 11.0311 1.37699 8.58697L3.61116 9.50863C3.76283 10.2611 4.43366 10.8328 5.23283 10.8328C6.14283 10.8328 6.88366 10.092 6.88366 9.18197V9.10613L8.86699 7.68863H8.91366C10.127 7.68863 11.1128 6.7028 11.1128 5.48947C11.1128 4.27613 10.127 3.2903 8.91366 3.2903C7.70033 3.2903 6.70866 4.27613 6.70866 5.48947V5.51863L5.32616 7.53697L5.23283 7.53113C4.88866 7.53113 4.56783 7.63613 4.30533 7.81697L1.16699 6.5278C1.41783 3.52363 3.92616 1.16113 7.00033 1.16113ZM4.83033 10.0103C5.29699 10.2028 5.83366 9.98697 6.02616 9.5203C6.21866 9.05363 5.99699 8.5228 5.54199 8.3303L4.79533 8.02113C5.08116 7.91613 5.40199 7.9103 5.70533 8.03863C6.01449 8.16113 6.25366 8.4003 6.37616 8.70947C6.50449 9.0128 6.50449 9.35113 6.37616 9.65447C6.12533 10.2845 5.38449 10.5878 4.75449 10.3253C4.46283 10.2028 4.24116 9.98113 4.11866 9.71863L4.83033 10.0103ZM10.3837 5.48947C10.3837 6.3003 9.72449 6.95947 8.91366 6.95947C8.10866 6.95947 7.44949 6.3003 7.44949 5.48947C7.44872 5.29697 7.48607 5.10623 7.55937 4.92824C7.63268 4.75025 7.7405 4.58854 7.87662 4.45242C8.01273 4.31631 8.17445 4.20849 8.35244 4.13518C8.53042 4.06187 8.72117 4.02453 8.91366 4.0253C9.72449 4.0253 10.3837 4.68447 10.3837 5.48947ZM7.81699 5.48947C7.81699 6.09613 8.30699 6.59197 8.91949 6.59197C9.52616 6.59197 10.0162 6.09613 10.0162 5.48947C10.0162 4.8828 9.52616 4.38697 8.91949 4.38697C8.30699 4.38697 7.81699 4.8828 7.81699 5.48947Z" fill="#2FDFFB"/>
</svg>
