<svg width="18" height="17" viewBox="0 0 18 17" fill="none" xmlns="http://www.w3.org/2000/svg">
<path d="M8.99984 1.4165C10.7707 1.4165 12.3644 2.054 13.604 3.1165C12.0882 4.41275 11.1248 6.3465 11.1248 8.49984C11.1248 10.6532 12.0882 12.5869 13.604 13.8832C12.3644 14.9457 10.7707 15.5832 8.99984 15.5832C7.229 15.5832 5.63525 14.9457 4.39567 13.8832C5.9115 12.5869 6.87484 10.6532 6.87484 8.49984C6.87484 6.3465 5.9115 4.41275 4.39567 3.1165C5.63525 2.054 7.229 1.4165 8.99984 1.4165ZM16.0832 8.49984C16.0832 10.1432 15.5236 11.6519 14.5815 12.8561C13.3348 11.8148 12.5415 10.2494 12.5415 8.49984C12.5415 6.75025 13.3348 5.18484 14.5815 4.14359C15.5236 5.34775 16.0832 6.8565 16.0832 8.49984ZM1.9165 8.49984C1.9165 6.8565 2.47609 5.34775 3.41817 4.14359C4.66484 5.18484 5.45817 6.75025 5.45817 8.49984C5.45817 10.2494 4.66484 11.8148 3.41817 12.8561C2.47609 11.6519 1.9165 10.1432 1.9165 8.49984Z" fill="#9CA3AF"/>
</svg>
