<svg width="14" height="14" viewBox="0 0 14 14" fill="none" xmlns="http://www.w3.org/2000/svg">
<path fill-rule="evenodd" clip-rule="evenodd" d="M10.8998 11.1351C12.0004 10.0979 12.6875 8.62677 12.6875 6.99512C12.6875 3.854 10.1411 1.30762 7 1.30762C3.85888 1.30762 1.3125 3.854 1.3125 6.99512C1.3125 8.62677 1.99958 10.0979 3.1002 11.1351C4.1184 12.0946 5.49053 12.6826 7 12.6826C8.50947 12.6826 9.8816 12.0946 10.8998 11.1351ZM3.58465 10.3856C4.38644 9.3855 5.61844 8.74512 7 8.74512C8.38156 8.74512 9.61356 9.3855 10.4153 10.3856C9.54349 11.2638 8.33525 11.8076 7 11.8076C5.66475 11.8076 4.45651 11.2638 3.58465 10.3856ZM9.1875 5.24512C9.1875 6.45324 8.20812 7.43262 7 7.43262C5.79188 7.43262 4.8125 6.45324 4.8125 5.24512C4.8125 4.03699 5.79188 3.05762 7 3.05762C8.20812 3.05762 9.1875 4.03699 9.1875 5.24512Z" fill="#5066F0"/>
</svg>
