<svg width="18" height="17" viewBox="0 0 18 17" fill="none" xmlns="http://www.w3.org/2000/svg">
<path d="M13.9865 3.43525C12.7823 2.2665 11.3586 1.59359 9.70817 1.4165V3.98067L16.0832 7.64984C15.8848 6.02067 15.1836 4.604 13.9865 3.43525ZM8.99984 15.5832C11.4365 15.5832 13.3632 14.6057 14.7869 12.6507L12.584 11.3332L6.21609 15.0165C7.1015 15.3919 8.0365 15.5832 8.99984 15.5832ZM9.70817 8.08192L15.4811 11.3828C15.7928 10.7169 15.9982 10.0157 16.0832 9.28609L9.70817 5.61692V8.08192ZM3.24817 12.6153C3.71567 13.2598 4.22567 13.784 4.78525 14.1665L11.1532 10.554L8.99984 9.31442L3.24817 12.6153ZM8.31984 1.4165C7.58317 1.48025 6.87484 1.6715 6.1665 1.98317V9.31442L8.31984 8.08192V1.4165ZM1.9165 8.49984C1.9165 9.48442 2.129 10.4619 2.54692 11.4182L4.74984 10.1148V2.83317C2.85859 4.24984 1.9165 6.12692 1.9165 8.49984Z" fill="#9CA3AF"/>
</svg>
