<svg viewBox="0 0 32 32" xmlns="http://www.w3.org/2000/svg">
<path d="M24.4301 19.6621C18.7339 18.9421 14.2649 14.488 13.5284 8.86041L13.5217 8.79669C13.4696 8.37131 13.4398 7.87807 13.4398 7.37821C13.4398 6.64165 13.5044 5.92 13.6285 5.21903L13.6177 5.29352C13.626 5.24138 13.631 5.18179 13.631 5.12138C13.631 4.50234 13.1286 4 12.5096 4C12.378 4 12.2514 4.02234 12.1347 4.06455L12.1421 4.06207C7.48201 5.91338 4.2478 10.3832 4.2478 15.6086C4.2478 22.4519 9.79594 28 16.6393 28C21.3921 28 25.5201 25.3236 27.599 21.3959L27.6313 21.3288C27.7074 21.1823 27.7521 21.0094 27.7521 20.8257C27.7521 20.2149 27.2564 19.7192 26.6456 19.7192C26.6241 19.7192 26.6017 19.72 26.5802 19.7208H26.5835C26.3593 19.7357 26.0977 19.744 25.8346 19.744C25.3397 19.744 24.8514 19.7142 24.3722 19.6563L24.4301 19.6621Z"/>
</svg>
