<svg viewBox="0 0 32 32" xmlns="http://www.w3.org/2000/svg">
<path d="M10.9053 24.3657C10.9583 24.3699 11.0104 24.3841 11.0584 24.4083L13.1591 25.458C13.3675 25.5624 13.4547 25.8202 13.3529 26.0338C13.3293 26.0831 13.2967 26.1273 13.2576 26.164L10.9265 28.3303C10.7547 28.4897 10.4893 28.4764 10.3329 28.3003C10.2556 28.2127 10.2165 28.0967 10.2255 27.9799L10.4559 24.7638C10.473 24.5268 10.6741 24.3482 10.9053 24.3657ZM21.5024 24.6069C21.526 24.6561 21.5399 24.7095 21.5439 24.7638L21.7744 27.9799C21.7915 28.2169 21.6172 28.4238 21.386 28.4405C21.2712 28.4488 21.158 28.4088 21.0733 28.3303L18.7422 26.164C18.5704 26.0046 18.5574 25.7318 18.7129 25.5557C18.7487 25.5148 18.7919 25.4822 18.8399 25.458L20.9406 24.4083C21.149 24.304 21.4006 24.3924 21.5024 24.6069ZM15.9999 8.83009C20.1769 8.83009 23.5624 12.3007 23.5624 16.5816C23.5624 20.8625 20.176 24.3323 15.9991 24.3323C11.8222 24.3323 8.43581 20.8617 8.43581 16.5816C8.43581 12.3015 11.8222 8.83009 15.9991 8.83009H15.9999ZM25.5328 17.1825C25.5849 17.195 25.6346 17.2175 25.6777 17.2484L28.2612 19.0884C28.4518 19.2244 28.499 19.4923 28.3663 19.6876C28.3003 19.7844 28.1994 19.8495 28.0854 19.867L24.9759 20.3602C24.7463 20.3969 24.5321 20.2358 24.4963 20.0005C24.4882 19.9463 24.4898 19.8912 24.502 19.8378L25.028 17.5037C25.0801 17.2717 25.3056 17.1274 25.532 17.1808L25.5328 17.1825ZM6.90671 17.356C6.93683 17.4011 6.95882 17.4512 6.97103 17.5046L7.49702 19.8386C7.54913 20.0706 7.40827 20.3018 7.18191 20.3552C7.1298 20.3677 7.07607 20.3694 7.02314 20.361L3.91364 19.8678C3.68403 19.8311 3.52688 19.6116 3.56271 19.3763C3.58062 19.2595 3.64331 19.156 3.73776 19.0884L6.32128 17.2484C6.51181 17.1124 6.7748 17.1608 6.90671 17.356ZM26.0376 8.61312C26.0718 8.72578 26.0588 8.84761 26.0034 8.95025L24.4686 11.765C24.3554 11.9728 24.0998 12.047 23.897 11.931C23.8506 11.9043 23.8091 11.8685 23.7757 11.8259L22.3052 9.96415C22.1595 9.77973 22.1872 9.50852 22.3671 9.35832C22.4086 9.3241 22.4567 9.29823 22.5072 9.28154L25.5124 8.32773C25.7339 8.25763 25.9692 8.38447 26.0384 8.61145L26.0376 8.61312ZM6.4882 8.3294L9.49348 9.28321C9.71495 9.35331 9.83953 9.59448 9.77032 9.82229C9.75485 9.87486 9.72879 9.92326 9.69541 9.96582L8.22493 11.8276C8.07918 12.012 7.81456 12.0412 7.63381 11.891C7.59228 11.8568 7.55727 11.8142 7.53121 11.7666L5.99641 8.95192C5.88323 8.74414 5.9557 8.48211 6.15844 8.36611C6.25859 8.30853 6.37746 8.29602 6.48738 8.33107L6.4882 8.3294ZM16.1562 3.58868C16.2629 3.63208 16.3476 3.71886 16.3899 3.82818L17.5583 6.82231C17.6446 7.04345 17.5396 7.2938 17.3247 7.38225C17.275 7.40228 17.2221 7.41313 17.1683 7.41313H14.8315C14.5995 7.41313 14.4114 7.22036 14.4114 6.98254C14.4114 6.92746 14.422 6.87322 14.4415 6.82231L15.6099 3.82818C15.6962 3.60704 15.9405 3.50023 16.1562 3.58868Z"/>
</svg>
