<svg viewBox="0 0 32 32" xmlns="http://www.w3.org/2000/svg">
<path d="M25.8999 17.1C25.6082 17.1 25.3284 17.2159 25.1221 17.4222C24.9158 17.6285 24.7999 17.9083 24.7999 18.2V21.5C24.7999 22.3752 24.4522 23.2146 23.8334 23.8335C23.2145 24.4523 22.3751 24.8 21.4999 24.8H10.5C9.62476 24.8 8.7854 24.4523 8.16653 23.8335C7.54767 23.2146 7.19999 22.3752 7.19999 21.5V10.5C7.19999 9.62479 7.54767 8.78542 8.16653 8.16655C8.7854 7.54768 9.62476 7.2 10.5 7.2H16C16.2917 7.2 16.5715 7.08411 16.7778 6.87782C16.9841 6.67153 17.0999 6.39174 17.0999 6.1C17.0999 5.80826 16.9841 5.52847 16.7778 5.32218C16.5715 5.11589 16.2917 5 16 5H10.5C9.04183 5.00175 7.6439 5.58177 6.61283 6.61284C5.58177 7.64391 5.00175 9.04185 5 10.5V21.5C5.00175 22.9582 5.58177 24.3561 6.61283 25.3872C7.6439 26.4182 9.04183 26.9983 10.5 27H21.4999C22.9581 26.9983 24.356 26.4182 25.3871 25.3872C26.4181 24.3561 26.9982 22.9582 26.9999 21.5V18.2C26.9999 17.9083 26.884 17.6285 26.6777 17.4222C26.4714 17.2159 26.1916 17.1 25.8999 17.1Z"/>
<path d="M10.511 17.2562C10.5443 17.4882 10.6508 17.7035 10.8151 17.8707C10.9793 18.0379 11.1926 18.1482 11.424 18.1857C11.4821 18.1953 11.541 18.2001 11.6 18.2C11.8044 18.2001 12.0048 18.1432 12.1787 18.0358C12.3526 17.9283 12.4931 17.7746 12.5845 17.5917C13.9496 14.8604 17.5817 14.6965 19.2999 14.7988V17.1C19.3 17.3175 19.3645 17.5302 19.4854 17.711C19.6063 17.8919 19.778 18.0328 19.979 18.116C20.18 18.1993 20.4011 18.2211 20.6145 18.1786C20.8278 18.1362 21.0238 18.0315 21.1776 17.8777L26.6776 12.3777C26.787 12.2683 26.8721 12.1371 26.9274 11.9926C26.9827 11.8481 27.0068 11.6936 26.9983 11.5391C26.9898 11.3847 26.9488 11.2337 26.878 11.0962C26.8072 10.9586 26.7082 10.8376 26.5874 10.7409L21.0874 6.3409C20.9256 6.21135 20.7305 6.13016 20.5246 6.10667C20.3186 6.08318 20.1103 6.11836 19.9234 6.20815C19.7366 6.29794 19.579 6.43868 19.4687 6.61416C19.3583 6.78965 19.2999 6.99273 19.2999 7.2V9.3098C16.2199 9.1657 13.866 9.8983 12.3249 11.4867C11.6331 12.2663 11.114 13.1833 10.8014 14.1776C10.4888 15.1719 10.3898 16.221 10.511 17.2562Z"/>
</svg>
