<svg viewBox="0 0 32 32" xmlns="http://www.w3.org/2000/svg">
<path fillRule="evenodd" clipRule="evenodd" d="M12.4873 6.51953C17.7269 6.51953 21.9746 10.7672 21.9746 16.0068C21.9746 18.274 21.1793 20.3554 19.8525 21.9873L20.7295 22.8643L20.8975 22.6973C21.032 22.5629 21.2498 22.5634 21.3838 22.6982L26.2314 27.5762C26.3649 27.7105 26.3653 27.9276 26.2314 28.0615L24.4834 29.8086C24.3489 29.9431 24.1311 29.9425 23.9971 29.8076L19.1484 24.9297C19.0152 24.7954 19.0156 24.5781 19.1494 24.4443L19.2998 24.293L18.4189 23.4121C16.7945 24.7148 14.7315 25.4941 12.4873 25.4941C7.24789 25.494 3.00008 21.2463 3 16.0068C3 10.7673 7.24785 6.51972 12.4873 6.51953ZM12.4873 9.54199C8.91732 9.54219 6.02344 12.4368 6.02344 16.0068C6.02362 19.5767 8.91743 22.4705 12.4873 22.4707C16.0573 22.4707 18.952 19.5768 18.9521 16.0068C18.9521 12.4367 16.0575 9.54199 12.4873 9.54199Z"/>
<path d="M25.3447 3C25.6892 3.83219 25.9962 4.48806 26.2646 4.9668C26.533 5.44534 26.7996 5.81617 27.0635 6.08008C27.323 6.34405 27.6922 6.61046 28.1709 6.87891C28.654 7.14729 29.3046 7.4497 30.123 7.78516V8.06055C29.3135 8.39603 28.6667 8.69742 28.1836 8.96582C27.7051 9.23416 27.3319 9.50078 27.0635 9.76465C26.7995 10.0286 26.5331 10.4002 26.2646 10.8789C25.9962 11.3576 25.6892 12.0135 25.3447 12.8457H25.0703C24.7213 12.0135 24.412 11.3576 24.1436 10.8789C23.8751 10.4002 23.611 10.0286 23.3516 9.76465C23.0831 9.50077 22.7076 9.23417 22.2246 8.96582C21.746 8.69742 21.0993 8.39604 20.2852 8.06055V7.78516C21.1038 7.44964 21.7528 7.14733 22.2314 6.87891C22.7145 6.61052 23.0877 6.34399 23.3516 6.08008C23.611 5.81618 23.8752 5.44531 24.1436 4.9668C24.412 4.48806 24.7213 3.83219 25.0703 3H25.3447Z"/>
</svg>
