<?xml version="1.0" encoding="UTF-8"?><svg id="_레이어_2" xmlns="http://www.w3.org/2000/svg" xmlns:xlink="http://www.w3.org/1999/xlink" viewBox="0 0 925.35 187.64"><defs><style>.cls-1{fill:url(#_무제_그라디언트);}.cls-2{fill:#fff;}</style><linearGradient id="_무제_그라디언트" x1="70.41" y1="-419.31" x2="234.27" y2="-255.5" gradientTransform="translate(0 -243.62) scale(1 -1)" gradientUnits="userSpaceOnUse"><stop offset="0" stop-color="#00fc89"/><stop offset=".3" stop-color="#00febd"/><stop offset=".5" stop-color="#00fed7"/><stop offset=".8" stop-color="#00f7ed"/><stop offset="1" stop-color="#5197fb"/></linearGradient></defs><g id="_레이어_2-2"><g id="_레이어_1-2"><g id="symbol_round_w_2"><path class="cls-1" d="M.04,94c.49-4.93,4.48-8.95,8.02-12.54C26.95,62.39,59.06,29.75,81.58,7.05c2.6-2.55,5.86-5.38,8.91-6.4,7.83-2.1,13.48,3.22,15.05,12.99.45,3.14.54,6.09.63,9.36.13,9.85,0,20.69,0,31.25.18,9.72-.58,16.39,1.43,24.32,2.82,9,9.72,11.46,17.02,8.2,2.77-1.34,5.33-3.67,7.7-6,18.99-18.99,51.49-52.26,73.93-74.64,3.54-3.31,7.61-6.58,12.54-6.05,13.03,1.65,12.67,19.07,12.63,30.13.13,10.39-.4,21.36.58,31.75.58,5.38,1.65,9.18,3.94,11.55,6.31,6.31,24.09,4.57,33.72,4.88,12.45.27,35.77-2.37,33.58,15.9-.67,5.28-4.16,9.36-7.79,13.12-20.78,21.13-52.57,53.11-70.34,71.15-3.67,3.58-7.43,7.75-12.4,8.91-5.82.99-10.48-2.15-13.16-8.51-2.37-6.27-1.97-12.72-2.1-21.99v-28.07c-.09-7.25.36-14.28-1.48-21.13-4.07-12.89-15-11.37-22.57-3.18-24.72,24.45-57.09,58.39-78.68,79.12-7.39,6.76-16.34,3.09-19.97-5.51-3-6.45-2.51-19.7-2.55-29.42-.13-11.02.76-24-2.02-32.24-3.04-10.03-13.7-9.54-23.01-10.07-5.73-.13-12.22,0-18.58-.05-11.11-.13-28.79.27-28.57-12.4h.05,0Z"/><g id="title"><g id="Horizontal_logo_w"><path class="cls-2" d="M399.53,184.16h-50.21V32.06l-13.87-28.15h64.08v180.25Z"/><path class="cls-2" d="M418.64,141.73V46.56c0-31.3,28.36-45.8,64.7-45.8,44.75,0,62.6,17.23,67.23,56.51l-44.33,6.3c-3.15-15.76-7.98-23.95-20.8-23.95-11.13,0-20.59,5.67-20.59,16.81v75.42c0,11.13,9.45,16.81,20.59,16.81,14.08,0,19.75-9.03,23.11-26.05l44.12,6.3c-4.83,40.76-23.11,58.61-69.33,58.61-36.34,0-64.71-14.5-64.71-45.8h.01,0Z"/><path class="cls-2" d="M563.17,46.56c0-31.3,28.36-45.8,66.81-45.8s66.81,14.5,66.81,45.8v95.17c0,31.3-28.36,45.8-66.81,45.8s-66.81-14.5-66.81-45.8V46.56h0ZM609.39,131.85c0,11.13,9.45,16.81,20.59,16.81s20.59-5.67,20.59-16.81V56.43c0-11.13-9.45-16.81-20.59-16.81s-20.59,5.67-20.59,16.81v75.42h0Z"/><path class="cls-2" d="M804.13,3.91h44.12v180.46h-44.12l-44.33-96.43v96.43h-44.12V32.06l-13.87-28.15h57.98l44.33,96.43V3.91h.01Z"/></g><path class="cls-2" d="M877.22,4.81h19.3v5.6h-6.31v26.57h-6.67V10.41h-6.2v-5.6h-.12Z"/><path class="cls-2" d="M898.55,36.87V4.7h8.46l5,22.64,5.12-22.64h8.22v32.17h-6.2v-19.9l-4.65,19.9h-5.12l-4.88-19.9v19.9h-6.2.25Z"/></g></g></g></g></svg>