<svg width="77" height="17" viewBox="0 0 77 17" fill="none" xmlns="http://www.w3.org/2000/svg">
<path d="M74.6759 4.17238C75.9611 4.17238 76.6875 4.97333 76.6875 6.64973V16.4846H73.1485V8.5869C73.1485 8.10261 72.9063 7.93497 72.5152 8.00947C71.7328 8.15849 70.9691 8.36338 70.0751 8.60553V16.4846H66.536V6.85462L65.3066 4.35865H70.0751V5.10371H70.1123C71.6583 4.69393 73.3161 4.17238 74.6759 4.17238Z" fill="white"/>
<path d="M54.4355 13.1132V7.73006C54.4355 5.30859 56.6521 4.07923 59.7441 4.07923C62.8362 4.07923 65.0527 5.30859 65.0527 7.73006V13.1132C65.0527 15.5346 62.8362 16.764 59.7441 16.764C56.6521 16.764 54.4355 15.5346 54.4355 13.1132ZM57.9746 8.49375V12.3495C57.9746 13.1318 58.7383 13.5043 59.7441 13.5043C60.75 13.5043 61.5137 13.1318 61.5137 12.3495V8.49375C61.5137 7.71143 60.75 7.3389 59.7441 7.3389C58.7383 7.3389 57.9746 7.71143 57.9746 8.49375Z" fill="white"/>
<path d="M49.4053 0.372534L52.9443 0V3.12928L49.4053 3.50181V0.372534ZM49.4053 4.63804L52.9443 4.26551V16.4846H49.4053V4.63804Z" fill="white"/>
<path d="M41.397 12.5171V0.372534L44.936 0V4.35864H47.9163L48.4751 7.61831H44.936V11.6603C44.936 12.8897 45.439 13.2249 46.5379 13.2249H48.2888V16.4846H45.6625C42.7381 16.4846 41.397 15.0876 41.397 12.5171Z" fill="white"/>
<path d="M36.3682 12.2377V4.35864H39.9073V16.4846H36.3682V15.7395H36.3309C34.7849 16.1493 33.1272 16.6709 31.7674 16.6709C30.4822 16.6709 29.7557 15.8699 29.7557 14.1935V6.85462L28.5264 4.35864H33.2948V12.2564C33.2948 12.7406 33.5369 12.9083 33.9281 12.8338C34.7104 12.6848 35.4741 12.4799 36.3682 12.2377Z" fill="white"/>
<path d="M24.5396 0.111763H28.0786V16.4846H24.5396V0.111763Z" fill="white"/>
<path d="M12.6162 13.1132V7.73006C12.6162 5.30859 14.8328 4.07923 17.9248 4.07923C21.0168 4.07923 23.2334 5.30859 23.2334 7.73006V13.1132C23.2334 15.5346 21.0168 16.764 17.9248 16.764C14.8328 16.764 12.6162 15.5346 12.6162 13.1132ZM16.1553 8.49375V12.3495C16.1553 13.1318 16.919 13.5043 17.9248 13.5043C18.9307 13.5043 19.6943 13.1318 19.6943 12.3495V8.49375C19.6943 7.71143 18.9307 7.3389 17.9248 7.3389C16.919 7.3389 16.1553 7.71143 16.1553 8.49375Z" fill="white"/>
<path d="M6.93926 6.85461C10.9254 8.28887 11.4842 8.99668 11.4842 12.2936C11.4842 15.2366 9.80777 16.4846 5.87754 16.4846H0.550309V13.0387H5.87754C7.1069 13.0387 7.57256 12.722 7.57256 11.9769C7.57256 11.0829 7.27454 10.729 4.89032 9.85351C0.960096 8.41925 0.419922 7.71144 0.419922 4.58216C0.419922 1.71365 2.0777 0.484291 5.91479 0.484291H10.3479L11.1861 3.93022H5.91479C4.74131 3.93022 4.33152 4.20963 4.33152 4.89881C4.33152 5.60663 4.61092 6.01641 6.93926 6.85461Z" fill="white"/>
</svg>
