<svg width="18" height="18" viewBox="0 0 18 18" fill="none" xmlns="http://www.w3.org/2000/svg">
<path d="M6.28692 2.73951C7.15109 2.38534 8.07192 2.20117 8.99984 2.20117C9.92775 2.20117 10.8486 2.38534 11.7128 2.73951C12.5698 3.09367 13.349 3.61784 14.0078 4.27659C14.6665 4.93534 15.1907 5.71451 15.5448 6.57159C15.899 7.43576 16.0832 8.35659 16.0832 9.28451C16.0832 11.1616 15.3394 12.9678 14.0078 14.2924C12.6832 15.6241 10.8769 16.3678 8.99984 16.3678C8.07192 16.3678 7.15109 16.1837 6.28692 15.8295C5.42984 15.4753 4.65067 14.9512 3.99192 14.2924C2.66025 12.9678 1.9165 11.1616 1.9165 9.28451C1.9165 7.40742 2.66025 5.60117 3.99192 4.27659C4.65067 3.61784 5.42984 3.09367 6.28692 2.73951ZM6.08859 14.1437C6.95984 14.6678 7.96567 14.9512 8.99984 14.9512C10.034 14.9512 11.0398 14.6678 11.9111 14.1437L11.2028 12.9183L11.9111 12.5074C11.5144 11.7424 11.2523 10.8924 11.1603 9.99284H10.4165V8.57617H11.1603C11.2523 7.67659 11.5144 6.82659 11.9111 6.06159L11.2028 5.65076L11.9111 4.42534C11.0398 3.90117 10.034 3.61784 8.99984 3.61784C7.96567 3.61784 6.95984 3.90117 6.08859 4.42534L6.79692 5.65076L6.08859 6.05451C6.48525 6.82659 6.74734 7.67659 6.83942 8.57617H7.58317V9.99284H6.83942C6.74734 10.8924 6.48525 11.7424 6.08859 12.5145L6.79692 12.9183L6.08859 14.1437ZM4.0415 12.0328L4.34609 11.5016L4.86317 11.8062C5.13942 11.2466 5.33067 10.6374 5.40859 9.99284H4.74984V8.57617H5.40859C5.33067 7.93159 5.13942 7.32242 4.86317 6.76284L4.34609 7.06742L4.0415 6.53617C3.58109 7.37201 3.33317 8.31409 3.33317 9.28451C3.33317 10.2549 3.58109 11.197 4.0415 12.0328ZM13.9582 6.54326L13.6536 7.06742L13.1365 6.76284C12.8603 7.32242 12.669 7.93159 12.5911 8.57617H13.2498V9.99284H12.5911C12.669 10.6374 12.8603 11.2466 13.1365 11.8062L13.6536 11.5016L13.9582 12.0328C14.4186 11.197 14.6665 10.2549 14.6665 9.28451C14.6665 8.31409 14.4186 7.37201 13.9582 6.53617V6.54326Z" fill="#9CA3AF"/>
</svg>
