<svg width="17" height="17" viewBox="0 0 17 17" fill="none" xmlns="http://www.w3.org/2000/svg">
<path d="M4.25 6.3724H5.66667V7.78906H7.08333V9.20573H5.66667V10.6224H4.25V9.20573H2.83333V7.78906H4.25V6.3724ZM13.1042 6.3724C13.386 6.3724 13.6562 6.48434 13.8555 6.68359C14.0547 6.88285 14.1667 7.1531 14.1667 7.4349C14.1667 7.71669 14.0547 7.98694 13.8555 8.1862C13.6562 8.38545 13.386 8.4974 13.1042 8.4974C12.8224 8.4974 12.5521 8.38545 12.3529 8.1862C12.1536 7.98694 12.0417 7.71669 12.0417 7.4349C12.0417 7.1531 12.1536 6.88285 12.3529 6.68359C12.5521 6.48434 12.8224 6.3724 13.1042 6.3724ZM10.9792 8.4974C11.261 8.4974 11.5312 8.60934 11.7305 8.8086C11.9297 9.00785 12.0417 9.2781 12.0417 9.5599C12.0417 9.84169 11.9297 10.1119 11.7305 10.3112C11.5312 10.5105 11.261 10.6224 10.9792 10.6224C10.6974 10.6224 10.4271 10.5105 10.2279 10.3112C10.0286 10.1119 9.91667 9.84169 9.91667 9.5599C9.91667 9.2781 10.0286 9.00785 10.2279 8.8086C10.4271 8.60934 10.6974 8.4974 10.9792 8.4974ZM12.0417 3.53906C13.3567 3.53906 14.6179 4.06146 15.5477 4.99132C16.4776 5.92119 17 7.18236 17 8.4974C17 9.81243 16.4776 11.0736 15.5477 12.0035C14.6179 12.9333 13.3567 13.4557 12.0417 13.4557C10.6533 13.4557 9.39958 12.8891 8.5 11.9682C7.60042 12.8891 6.34667 13.4557 4.95833 13.4557C3.6433 13.4557 2.38213 12.9333 1.45226 12.0035C0.522394 11.0736 0 9.81243 0 8.4974C0 7.18236 0.522394 5.92119 1.45226 4.99132C2.38213 4.06146 3.6433 3.53906 4.95833 3.53906H12.0417ZM4.95833 4.95573C4.01902 4.95573 3.11819 5.32887 2.454 5.99306C1.78981 6.65725 1.41667 7.55809 1.41667 8.4974C1.41667 9.4367 1.78981 10.3375 2.454 11.0017C3.11819 11.6659 4.01902 12.0391 4.95833 12.0391C6.12 12.0391 7.14708 11.4795 7.79167 10.6224H9.20833C9.85292 11.4795 10.88 12.0391 12.0417 12.0391C12.981 12.0391 13.8818 11.6659 14.546 11.0017C15.2102 10.3375 15.5833 9.4367 15.5833 8.4974C15.5833 7.55809 15.2102 6.65725 14.546 5.99306C13.8818 5.32887 12.981 4.95573 12.0417 4.95573H4.95833Z" fill="#9CA3AF"/>
</svg>
