<svg width="17" height="17" viewBox="0 0 17 17" fill="none" xmlns="http://www.w3.org/2000/svg">
<path d="M9.03125 2.14682V2.54864C9.03125 2.78514 9.1363 3.00941 9.31798 3.16082L10.0749 3.79159C10.3878 4.0523 10.4537 4.50695 10.2278 4.84579L9.86583 5.38876C9.66923 5.68365 9.37996 5.9046 9.04373 6.01667L8.94298 6.05026C8.45233 6.21381 8.2515 6.79913 8.53839 7.22946C8.80009 7.62202 8.65852 8.15511 8.23654 8.36611L6.375 9.29688L6.6749 10.0466C6.80567 10.3735 6.66402 10.7461 6.3491 10.9036C6.05646 11.0499 5.70106 10.966 5.50475 10.7043L5.02362 10.0627C4.66819 9.58884 3.9383 9.65466 3.67338 10.1845L3.1875 11.1562L2.75403 11.2646M9.03125 2.14682C8.85608 2.13237 8.6789 2.125 8.5 2.125C4.97918 2.125 2.125 4.97918 2.125 8.5C2.125 9.49054 2.35091 10.4283 2.75403 11.2646M9.03125 2.14682C12.3035 2.41678 14.875 5.15808 14.875 8.5C14.875 9.8311 14.467 11.0669 13.7693 12.0892M13.7693 12.0892L13.6445 11.7148C13.4276 11.064 12.8185 10.625 12.1325 10.625H11.6875L11.4577 10.3952C11.2647 10.2022 11.0029 10.0938 10.7299 10.0938C10.34 10.0938 9.98361 10.314 9.80926 10.6627L9.7834 10.7145C9.64264 10.996 9.39019 11.2055 9.08756 11.2919L8.3872 11.492C7.99751 11.6034 7.75346 11.9895 7.82009 12.3893L7.87177 12.6994C7.92773 13.0351 8.21825 13.2812 8.55867 13.2812C9.15815 13.2812 9.69037 13.6649 9.87994 14.2336L10.032 14.6897M13.7693 12.0892C12.8984 13.3654 11.576 14.3089 10.032 14.6897M10.032 14.6897C9.54125 14.8108 9.02812 14.875 8.5 14.875C5.96973 14.875 3.78375 13.4009 2.75403 11.2646M11.1561 6.375C11.1561 7.00968 10.8778 7.57937 10.4367 7.96875" stroke="#9CA3AF" stroke-width="1.5" stroke-linecap="round" stroke-linejoin="round"/>
</svg>
