<svg width="30" height="30" viewBox="0 0 30 30" fill="none" xmlns="http://www.w3.org/2000/svg">
<path d="M10.5 22.875V24.386C10.5 25.5795 10.0259 26.7241 9.18198 27.568L8.25 28.5H21.75L20.818 27.568C19.9741 26.7241 19.5 25.5795 19.5 24.386V22.875M28.5 4.875V19.5C28.5 21.364 26.989 22.875 25.125 22.875H4.875C3.01104 22.875 1.5 21.364 1.5 19.5V4.875M28.5 4.875C28.5 3.01104 26.989 1.5 25.125 1.5H4.875C3.01104 1.5 1.5 3.01104 1.5 4.875M28.5 4.875V15C28.5 16.864 26.989 18.375 25.125 18.375H4.875C3.01104 18.375 1.5 16.864 1.5 15V4.875" stroke="url(#paint0_linear_2790_72)" stroke-width="1.5" stroke-linecap="round" stroke-linejoin="round"/>
<defs>
<linearGradient id="paint0_linear_2790_72" x1="1.5" y1="4.15574" x2="30.0231" y2="5.32579" gradientUnits="userSpaceOnUse">
<stop stop-color="#2FE0FC"/>
<stop offset="0.5" stop-color="#9969FF"/>
<stop offset="1" stop-color="#9315F0"/>
</linearGradient>
</defs>
</svg>
