<svg width="32" height="30" viewBox="0 0 32 30" fill="none" xmlns="http://www.w3.org/2000/svg">
<path d="M20.5 25.6913C21.7494 26.055 23.0706 26.25 24.4374 26.25C26.6556 26.25 28.7538 25.7364 30.6196 24.8217C30.6231 24.7358 30.6249 24.6493 30.6249 24.5625C30.6249 21.1452 27.8547 18.375 24.4374 18.375C22.3104 18.375 20.434 19.4483 19.3204 21.0828M20.5 25.6913V25.6875C20.5 24.0182 20.0722 22.4487 19.3204 21.0828M20.5 25.6913C20.5 25.7448 20.4995 25.7982 20.4986 25.8515C17.706 27.5329 14.4347 28.5 10.9375 28.5C7.44029 28.5 4.16896 27.5329 1.37638 25.8515C1.37546 25.7969 1.375 25.7423 1.375 25.6875C1.375 20.4063 5.65628 16.125 10.9375 16.125C14.5494 16.125 17.6935 18.1275 19.3204 21.0828M16 6.5625C16 9.35844 13.7334 11.625 10.9375 11.625C8.14156 11.625 5.875 9.35844 5.875 6.5625C5.875 3.76656 8.14156 1.5 10.9375 1.5C13.7334 1.5 16 3.76656 16 6.5625ZM28.375 9.9375C28.375 12.1121 26.6121 13.875 24.4375 13.875C22.2629 13.875 20.5 12.1121 20.5 9.9375C20.5 7.76288 22.2629 6 24.4375 6C26.6121 6 28.375 7.76288 28.375 9.9375Z" stroke="url(#paint0_linear_2790_1523)" stroke-width="1.5" stroke-linecap="round" stroke-linejoin="round"/>
<defs>
<linearGradient id="paint0_linear_2790_1523" x1="1.375" y1="4.15574" x2="32.2659" y2="5.52851" gradientUnits="userSpaceOnUse">
<stop stop-color="#2FE0FC"/>
<stop offset="0.5" stop-color="#9969FF"/>
<stop offset="1" stop-color="#9315F0"/>
</linearGradient>
</defs>
</svg>
