<svg width="17" height="17" viewBox="0 0 17 17" fill="none" xmlns="http://www.w3.org/2000/svg">
<path d="M3.54183 8.4974L4.9585 5.66406V4.95573H2.8335V5.66406H4.25016L2.8335 8.4974M6.37516 8.4974L7.79183 5.66406V4.95573H5.66683V5.66406H7.0835L5.66683 8.4974M9.2085 8.4974L10.6252 5.66406V4.95573H8.50016V5.66406H9.91683L8.50016 8.4974M14.8752 1.41406C14.096 1.41406 13.4585 2.05156 13.4585 2.83073C13.4585 3.32656 13.7418 3.8224 14.1668 4.0349V12.0391H12.0418V10.6224C12.4668 10.6224 12.7502 10.3391 12.7502 9.91406V3.53906C12.7502 3.11406 12.4668 2.83073 12.0418 2.83073H9.35016C8.7835 1.98073 7.79183 1.41406 6.72933 1.41406C5.66683 1.41406 4.67516 1.98073 4.1085 2.83073H1.41683C0.991829 2.83073 0.708496 3.11406 0.708496 3.53906V9.91406C0.708496 10.3391 0.991829 10.6224 1.41683 10.6224V15.5807H12.0418V13.4557H14.1668C14.946 13.4557 15.5835 12.8182 15.5835 12.0391V4.0349C16.0085 3.8224 16.2918 3.32656 16.2918 2.83073C16.2918 2.05156 15.6543 1.41406 14.8752 1.41406ZM2.12516 4.2474H11.3335V9.20573H2.12516V4.2474ZM10.6252 14.1641H2.8335V10.6224H10.6252V14.1641ZM9.2085 13.4557H4.25016V12.0391H9.2085V13.4557Z" fill="#9CA3AF"/>
</svg>
