<svg width="17" height="17" viewBox="0 0 17 17" fill="none" xmlns="http://www.w3.org/2000/svg">
<path d="M8.13202 2.47834C8.26813 2.1511 8.73169 2.1511 8.86779 2.47834L10.3737 6.09895C10.4311 6.2369 10.5608 6.33116 10.7097 6.3431L14.6185 6.65647C14.9718 6.68479 15.115 7.12566 14.8459 7.35622L11.8678 9.90725C11.7543 10.0045 11.7048 10.157 11.7394 10.3023L12.6493 14.1166C12.7315 14.4613 12.3565 14.7338 12.054 14.5491L8.7076 12.5051C8.58009 12.4272 8.41973 12.4272 8.29222 12.5051L4.94578 14.5491C4.64333 14.7338 4.2683 14.4613 4.35053 14.1166L5.26037 10.3023C5.29504 10.157 5.24549 10.0045 5.13202 9.90725L2.15396 7.35623C1.8848 7.12566 2.02804 6.68479 2.38132 6.65647L6.29008 6.3431C6.43901 6.33116 6.56875 6.2369 6.62612 6.09895L8.13202 2.47834Z" stroke="#9CA3AF" stroke-width="1.5" stroke-linecap="round" stroke-linejoin="round"/>
</svg>
